<?xml version="1.0" encoding="utf-8"?>
<!-- Generator: Adobe Illustrator 26.0.1, SVG Export Plug-In . SVG Version: 6.00 Build 0)  -->
<svg version="1.1" id="Layer_1" xmlns="http://www.w3.org/2000/svg" xmlns:xlink="http://www.w3.org/1999/xlink" x="0px" y="0px"
	 viewBox="0 0 2312 483.2" style="enable-background:new 0 0 2312 483.2;" xml:space="preserve">
<style type="text/css">
	.st0{fill:#418BB5;}
	.st1{fill:#2A5A75;}
	.st2{fill:#142B38;}
	.st3{font-family:'EthnocentricRg-Regular';}
	.st4{font-size:437.3817px;}
</style>
<polygon class="st0" points="135.4,82.7 58.8,103.4 180,191.9 358.9,127.5 355.5,122.4 293.7,87.1 210.6,120.3 "/>
<polygon class="st0" points="204.4,113.6 284.5,92.4 286.3,87.1 230.1,58.3 223.2,57.6 153.9,82.7 "/>
<polygon class="st1" points="272.6,267.2 272.6,356.5 355.9,322.7 355.9,236.6 "/>
<path class="st1" d="M184.8,196c-1.6,2.1-3.2,198.4-3.2,198.4l91-38v-89.2c0,0,89.5-25.7,90.4-33.7c0.8-8,7.2-97.5,7.2-97.5
	L184.8,196z"/>
<polygon class="st0" points="52.5,112.1 63.1,294 133.3,354 177,391.9 177,469.4 167.2,467 119.1,419.1 110.7,413.9 64,366.8 
	59.2,362.5 21.7,324.9 16.6,254.6 19.3,254.6 15,246 10.5,170.6 12.9,164.2 9.4,157.4 4.1,88.3 8.5,85.6 "/>
<path class="st1" d="M181.5,196c-1.6,2.1-3.2,198.4-3.2,198.4l91-38v-89.2c0,0,89.5-25.7,90.4-33.7c0.8-8,7.2-97.5,7.2-97.5
	L181.5,196z"/>
<polygon class="st2" points="116,250.1 60.6,210.8 58.8,293 112.9,335.1 "/>
<path class="st1" d="M364,127.9c-16.8-11.8-135.9-72.1-135.9-72.1L55,105.8L13,72l7.2-3.6l64.5-17.2l9.5,4l3.2-7.2l71.3-19.3
	l5.9-0.1L180,32l2.1-6.6l61-17.1L299,33.2v2.6l6.3,0.4l62.1,29.2l6.8,5.2l3.8-0.2l65,29.3L364,127.9z"/>
<polygon class="st2" points="57,113.6 176.5,189.4 175,386.5 165.2,383.6 110.2,333 120.4,250.1 54.5,204 "/>
<path class="st2" d="M184.4,468.5c0,0,1.2,5.4,6.5,2.4s64.8-28.8,64.8-28.8l5.8-4.4l12.3-3.4l140.6-61.7l2.9-3.4l7.9-70.7l0.8-14.3
	l9.5-78.7l-2.6-7.1l2.6-6.5l10.5-80.5l-76.3,23.7l-11,103.2l-7.7,85.3l-169.9,72.7v72.4h3.3V468.5z"/>
<path d="M16.1,257.4c0.1-2-0.3-4.1,0.9-5.9c0.5-0.7,0.1-1.1-0.4-1.5c-1.8-1.7-2.3-3.9-2.4-6.3c-0.4-7.6-1.1-15.1-1.6-22.7
	c-0.5-7.2-0.9-14.3-1.4-21.5c-0.5-8.5-1.1-16.9-1.6-25.4c-0.1-1.8-0.1-3.6-0.2-5.5c-0.1-1.8,0.2-3.4,1.4-4.8c0.6-0.7,0.8-1.3-0.1-2
	c-1.5-1-1.7-2.7-1.8-4.3c-0.4-6.3-0.8-12.7-1.3-19c-0.7-8.6-1.5-17.3-2.2-25.9c-0.3-3.7-0.4-7.6-0.7-11.4c-0.3-4.2-0.8-8.4-1-12.7
	c-0.2-3.2-0.4-6.5-0.1-9.7s2.1-5.7,4.9-7.2c2-1.1,4.2-1.8,6.4-2.4c9.7-2.6,19.4-5,29-7.5c13.3-3.5,26.7-7.1,40-10.5
	c1.4-0.4,3-0.2,4.5,0.1c1,0.2,1.8,0.3,2.4-0.6c1.2-1.9,3-2.6,5.2-3.2c11.9-3.1,23.8-6.3,35.7-9.6s23.8-6.5,35.6-9.7
	c2-0.5,3.9-0.6,5.9-0.1c0.6,0.2,1.5,0.1,1.9-0.2c1.6-1.5,3.6-1.9,5.4-2.4c9.5-2.8,19.1-5.4,28.6-8.1c9.2-2.6,18.4-5.4,27.7-8.1
	c1.4-0.4,2.9-0.7,4.4-1.1c2.9-0.8,5.5-0.4,8.2,0.8c7.5,3.6,15,7.1,22.4,10.5c8.8,4.1,17.6,8.1,26.3,12.2c1.5,0.7,3.1,1.4,4.1,3
	c0.3,0.4,1.2,0.8,1.8,0.7c3.2-0.4,5.9,1,8.6,2.3c17.4,8.2,34.7,16.3,52.1,24.5c2.2,1,4.4,2,6.5,3.2c1.1,0.6,2.1,1.6,2.8,2.6
	c0.7,1.1,1.5,1.4,2.7,1.5c1.5,0.2,3,0.5,4.3,1.1c8.3,3.8,16.5,7.7,24.7,11.5c10.4,4.9,20.8,9.8,31.3,14.7c2.1,1,4.2,1.8,6.3,2.8
	c2.8,1.3,4.8,3.4,5.8,6.2c0.5,1.4,0.9,3,0.7,4.4c-0.6,5.3-1.4,10.6-2.1,15.8c-0.7,5.3-1.2,10.6-1.9,15.9c-0.4,3.6-1,7.2-1.4,10.8
	c-0.6,4.6-1.1,9.2-1.7,13.8c-0.7,5.3-1.5,10.6-2.2,15.8c-0.3,2.4-0.6,4.8-0.8,7.2c-0.2,2.6-0.6,5.2-2.6,7.2c-0.5,0.5-0.5,1,0,1.6
	c1.4,1.7,1.8,3.6,1.4,5.9c-0.7,5.1-1.3,10.2-1.8,15.3c-0.3,2.8-0.5,5.6-0.7,8.4c-0.1,1.3-0.4,2.6-0.6,3.8c-1,8.3-2.1,16.5-3.1,24.8
	c-0.6,5.4-1.1,10.7-1.8,16.1c-0.6,4.5-1.3,8.9-2,13.4c-0.2,1.5-0.6,2.9-2,3.9c-0.5,0.4-1.2,0.9-0.6,1.8c1.3,1.9,1.1,4.1,0.9,6.1
	c-0.4,3.5-0.9,7-1.4,10.4c-0.4,2.8-0.6,5.6-1,8.4c-0.4,3.5-1,6.9-1.2,10.4c-0.2,3-1.2,5.9-1,8.8c0.2,3.6-0.9,6.9-0.9,10.4
	c0,2.4-0.6,4.8-0.9,7.1c-0.1,0.7,0,1.5-0.1,2.1c-0.3,1.3-0.1,2.5-0.3,4c-0.3,2.7-1,5.3-0.9,8c0,2.5-0.9,3.9-3.3,5
	c-24.2,10.7-48.4,21.6-72.6,32.4c-20.8,9.3-41.6,18.6-62.4,27.9c-5,2.3-3.7,1.7-8.8,3.9c-1,0.5-8.5,4.1-9.8,3.3
	c-0.4-0.2,0,0-1.6,0.3c-3.9,4-9.1,5.4-13.9,7.6c-16.2,7.4-32.4,14.5-48.6,21.8c-3,1.4-5.9,3.1-8.9,4.4c-2.9,1.2-6,2.2-9.1,2.9
	c-1.2,0.3-2.6-0.1-3.8-0.5c-2.4-0.9-4.6-2.1-6.4-3.9c-15.9-15.9-31.8-31.7-47.7-47.6c-0.9-0.9-1.6-1.8-2.4-2.7
	c-0.7-0.7-1.3-1.6-2.2-2c-2.2-1-3.8-2.7-5.4-4.3c-10.6-10.3-21.1-20.7-31.6-31c-4.5-4.4-9.1-8.6-13.4-13.1c-1.5-1.5-2.5-3.4-3.7-5.1
	c-0.9-1.2-1.7-2.3-3.1-3.1c-1.5-0.9-2.8-2.3-4.1-3.5c-7.6-7.4-15.1-14.9-22.7-22.3c-3.2-3.1-6.4-6.2-9.5-9.3
	c-0.2-0.2-0.5-0.4-0.6-0.6c-1.8-2.1-3.3-4.1-3.4-7.2c-0.1-4.8-0.6-9.7-0.9-14.5c-0.5-8-0.9-15.9-1.3-23.9
	c-0.3-5.9-0.7-11.9-1.1-17.8C16.6,262.3,16.4,259.8,16.1,257.4z M190.9,264.9c0,5.1-0.1,8.6,0,12c0,1.4,0.3,2.8,0.8,4.1
	c0.3,0.7,1.2,1.5,1.9,1.6c2.1,0.4,5,0.5,8-0.6c3.7-1.5,7.4-2.9,11.1-4.3c2.1-0.8,4.3-1.6,6.4-2.4c1.9-0.7,3.8-1.6,5.7-2.3
	c1.9-0.8,3.9-1.5,5.8-2.2c3.3-1.3,6.6-2.8,10-3.7c2.9-0.8,5.7-2,8.4-2.9s5.4-2.2,8.2-3.2c5.1-1.8,7.8-5.6,8.4-10.7
	c0.7-5.9,0.9-11.9,1.2-17.8c0.1-2.3,0-4.6,0.2-7c0.5-7,1.2-14.1,1.6-21.1c0.3-5.9,0.4-11.9,0.5-17.9c0-1.4-0.2-2.8-0.6-4.1
	c-0.6-2.4-1.5-3-3.9-2.9c-1.4,0.1-2.7,0.4-4.1,0.8c-1.7,0.5-3.4,1.1-5.1,1.6c-3.1,1-6.3,2.1-9.4,3.2c-2.6,0.9-5.2,1.9-7.8,2.8
	c-2,0.6-4,1-6,1.6c-4,1.4-7.9,3.2-12,4.4c-4.9,1.4-9.8,3.1-14.6,4.9c-1.2,0.5-2.4,1-3.7,1.3c-6.5,1.7-9.4,6.9-9.8,11.6
	c-0.2,3-0.4,6.1-0.5,9.1c-0.1,9.7-0.2,19.4-0.3,29.1c0,0.7,0,1.4,0,2.1C191.3,256.9,191.1,261.8,190.9,264.9z M281.1,230.6h0.1
	c0,0.7-0.1,1.4-0.1,2.1c0.2,3-0.1,6,0.9,9c0.9,2.7,3,4.3,5.3,4.6c3.7,0.4,14.4-1.1,15.3-1.4c5.9-1.8,5.9-1.8,7.9-2.5
	c3.1-1.1,6.1-2.3,9.2-3.4c1.5-0.5,9.5-3.6,13.3-5.2c4.1-1.9,6.9-3.8,10.2-5.7c3-1.8,5.9-3.8,8-6.6c3.8-5,6.2-10.8,6.7-17.2
	c0.3-3.8,0.5-7.7,0.9-11.5c0.5-5.6,1.1-11.2,1.6-16.9s1-11.4,1.5-17.2c0.3-3.1,0.6-6.2-0.3-9.3c-0.3-0.9-0.7-1.3-1.6-1.4
	c-3.1-0.4-4.4,0.6-7.7,1.2c-1.8,0.4,1-0.2-3.3,0.8c-3,0.7-4.6,1.7-7.5,2.7s-5.9,1.7-8.7,2.7c-3,1-5.8,2.3-8.8,3.3
	c-4.1,1.4-8.3,2.6-12.4,4c-3.1,1.1-6.2,2.2-9.4,3.3c-3.7,1.3-7.6,2.2-11.1,3.9c-3.7,1.8-6.1,4.9-6.5,9.2c-0.5,6-1,12-1.4,18
	C282.5,208.4,281.8,219.5,281.1,230.6z M190.3,363.9c0,4.2,0,7.3,0,10.3c0,1.5-0.1,3,0.1,4.5c0.2,1.8,1.4,3.4,2.9,3.5
	c1.3,0.1,2.7,0.1,3.9-0.3c2.4-0.7,4.6-1.8,6.9-2.7c2.2-0.9,4.2-2.2,6.5-2.9c2.9-0.9,5.6-2.3,8.4-3.4c2.4-1,4.7-2,7.1-3
	c2.8-1.1,5.5-2.2,8.3-3.4c1.8-0.8,0,0,5.3-2.3c3.4-1.5,6.6-2.7,9.8-4.2c3.2-1.6,5.7-4.6,7.7-7.6c2-3.1,3.6-6.5,4.3-10.2
	c0.9-4.5,1.7-9,2.4-13.6c0.4-2.6,0.5-5.2,0.7-7.8c0.1-1.9,0.2-3.8,0.4-5.7c0.2-2.8,0.6-5.6,0.8-8.4c0.5-6.6-0.2-13.1-1.3-19.6
	c-0.6-3.4-2.2-6.5-6-7.6c-2.5-0.7-5.2-0.8-7.8,0.1c-4,1.4-7.9,2.9-11.8,4.4c-8.2,3-16.4,6-24.6,9.1c-4.3,1.6-8.5,3.5-12.9,5
	c-1.6,0.5-2.9,1.2-4.2,2.2c-2.4,1.8-4.3,4-4.8,7.1c-0.4,2.5-0.6,5-0.6,7.5c-0.2,6.2-0.1,12.3-0.3,18.5
	C191,343.9,190.6,354.5,190.3,363.9z M369.8,209.6h0.1c0,1.2-0.1,2.4,0,3.6c0.1,1.2,1.3,2.7,2.3,2.8c1.5,0.1,3.1,0.2,4.5-0.2
	c3-0.9,5.9-2.1,8.8-3.2c2.1-0.8,4.2-1.9,6.4-2.4c3.9-0.9,7.5-2.7,11.3-3.8c1.4-0.4,2.8-1.2,4.2-1.5c1.5-0.1,3-0.9,4.5-1.5
	c3-1.1,6-2.1,8.9-3.2c2.7-1,5.5-1.8,7.9-3.4c1.1-0.8,2.5-1.4,3.3-2.4c2.2-2.7,3.3-5.9,3.7-9.4c1-8.1,2.1-16.2,3.1-24.3
	c0.6-4.8,1.2-9.6,1.8-14.4c0.4-3.2,1-6.4,1.4-9.6c0.5-4.2,0.9-8.4,1.3-12.6c0.3-2.8-1.9-4.9-5-4.2c-2.3,0.6-4.7,1.1-7,1.7
	c-1.9,0.6-3.8,1.3-5.7,1.9c-2.3,0.8-4.6,1.7-7,2.4c-3.1,0.9-6.4,1.4-9.4,2.7c-4.4,1.7-8.9,3.2-13.4,4.7c-4,1.3-8,2.5-12,3.8
	c-1,0.3-2.1,0.8-2.9,1.6c-2.3,2.2-4,4.8-4.4,8.1c-0.3,2.8-0.8,5.6-1.1,8.4c-0.4,3.4-0.5,6.9-0.9,10.3c-0.5,4.5-1.1,9-1.6,13.5
	c-0.3,2.7-0.5,5.4-0.8,8.1C371.4,194.5,370.6,202.1,369.8,209.6z M189.8,447c0,6.6,0,11.1,0,15.7c0,3.6,2.9,5.7,6.4,3.9
	c2-1,4.1-2,6.1-2.9c5.1-2.1,10.1-4.6,15.2-6.7c3.5-1.4,6.7-3.4,10.2-4.8c3.6-1.4,6.8-3.5,10.4-4.8c4.5-1.5,8.8-3.6,13-5.8
	c2-1,4-2.6,5.3-4.4c1.7-2.2,2.5-5,2.6-7.9c0.1-5.4,0.4-10.7,0.6-16c0.2-4.3,0.5-8.6,0.7-13c0.4-7.5,0.9-14.9,1.2-22.4
	c0.1-1.4-0.1-2.8-0.5-4.2c-0.2-1.1-0.8-2.2-2.1-2.3c-1.3-0.1-2.7-0.3-3.9,0.1c-3.6,1.2-7.2,2.6-10.7,4.1
	c-8.9,3.7-17.7,7.6-26.6,11.4c-6.4,2.7-12.9,5.4-19.4,8.1c-5.4,2.3-7.8,6.7-7.9,12.4c-0.1,3.7-0.1,7.5-0.2,11.2
	C190.1,428.9,189.9,439,189.8,447z M362.6,291.4c0.1,2.5,0.2,5.7,0.4,8.9c0.1,1.1,0.4,2.2,0.7,3.2c1,2.9,3.5,4.5,6.5,4.9
	c3.2,0.4,5.9-1,8.6-2c2.5-0.8,5-2,7.5-3c2.7-1,5.4-1.9,8-2.9c3.6-1.4,7.3-2.9,10.9-4.4c4-1.6,8-3.4,12-4.8c4.5-1.5,6.5-5.1,7.3-9.2
	c1.1-5.7,1.7-11.6,2.4-17.4c1-8,1.8-16.1,2.7-24.1c0.8-6.3,1.7-12.6,2.5-18.9c0.2-1.9,0.4-3.8,0.3-5.7c0-1.5-0.7-3.1-2.2-3.6
	c-1.1-0.3-2.6-0.1-3.8,0.3c-2.8,0.9-5.5,2.1-8.3,3.1c-4,1.4-8.1,2.7-12.2,4.1c-2.6,0.9-5.9,1.6-8.5,2.5c-4.3,1.4-7.6,2.8-11.7,4.3
	c-1.1,0.4-2.3,1.2-3.3,1.7c-6.1,3.4-10.5,8.3-13.1,14.8c-1.9,4.9-2.9,10.1-3.7,15.2c-0.5,2.8-0.9,5.6-1.1,8.4
	c-0.2,2.9-0.3,5-0.9,8.5c0,0.2-0.1,0.6-0.1,0.6C363.8,275.8,362.9,285.6,362.6,291.4z M279.5,326.6c0.2,1.8-0.2,3.9,1,5.9
	c1.6,2.7,3.7,4.5,6.8,5.4c2.7,0.8,5.5,1.1,8,0.2c7.1-2.5,14-5.4,21-8.3c3.5-1.4,6.7-3.2,10.2-4.5c7.3-2.8,12.8-7.7,16.9-14.2
	c2.6-4.2,4.7-8.7,5.1-13.9c0.6-8.1,1.5-16.3,2.2-24.4c0.3-4.1,0.5-8.2,0.6-12.4c0-7.9-5.8-12.1-12.8-11.5c-1,0.1-1.5,0.4-3.1,0.8
	c-2.2,0.6-4.1,1.4-6.2,1.9c-0.4,0.4-1.9,0.4-5.5,2.1c-1.6,0.7-3.4,1.3-5.1,1.9c-3.4,1.3-6.1,2.6-10.1,3.8c-2.9,0.6-5.4,1.9-7.9,3.1
	c-4.4,2-8.4,4.9-11.3,8.9c-1.4,2-2.6,4.3-4,6.3c-1.4,2.1-1.9,4.5-2.7,6.8c-1.1,3-1.2,6.1-1.3,9.2c-0.1,4-0.4,8.1-0.6,12.1
	C280.2,312.7,279.9,319.6,279.5,326.6z M326.4,341.2c-3.3,1.1-6.7,2.3-9.9,3.7c-2.4,0.9-7,3.1-14.4,6c-4.4,2.6-8.9,5.1-13.3,7.7
	c-1.2,0.7-4.4,2.6-4.8,3c-2,2-3.8,4-5.4,6.3c-1.8,2.5-3.2,5.2-3.8,8.1c-1.3,7-1.8,14.1-1.8,21.3c0,0.5,0,1,0,1.5
	c-0.3,7.3-0.5,14.5-0.8,21.8h-0.1c0,1.9,0,3.8,0,5.8c-0.1,3.4,2.6,5.4,5.8,4.1c2.9-1.2,5.9-2.4,8.8-3.7c3.8-1.8,7.6-3.6,11.5-5.3
	c6.8-2.9,13.5-6.1,20.1-9.3c4.3-2,8.8-3.5,13-5.7c2.3-1.2,4.7-2.1,6.7-3.6c1.5-1.1,3.1-2.8,3.7-4.6c1-3.1,1.3-6.5,1.6-9.8
	c0.5-6,0.8-12.1,1.1-18.1c0.4-7.4,0.8-14.7,1.3-22.1c0.2-2.3-1-4.3-1.5-6.4v-0.1c-0.2-0.3-2-2.1-5.2-2.1c-2.2,0.3-4.5-0.1-6.6,0.5
	 M118.8,199.5c0,13.1-0.1,23,0,32.9c0.1,5.6,1.9,10.3,6.6,13.9c12.8,9.8,25.3,19.8,37.9,29.8c0.6,0.5,1.3,1,2,1.4
	c2.1,1.2,3.9,0.7,5-1.5c0.4-0.9,0.7-1.9,0.7-2.9c0.2-7.5,0.2-14.9,0.3-22.4c0.1-5.6,0.1-11.1,0.2-16.7c0.1-9.8,0.1-19.6,0.1-29.4
	c0-3.6-1.5-6.9-4.1-9.1c-4.2-3.4-8.8-6.4-13.2-9.6c-5.8-4-11.6-8-17.3-12c-4.2-2.9-8.3-6-12.6-8.8c-2.7-1.8-5.3-0.5-5.7,2.7
	c-0.2,1.8-0.4,3.6-0.4,5.4C118.5,183,118.7,192.8,118.8,199.5z M169.8,337.9c0-11.4-0.1-22.9,0-34.3c0.1-4.9-1.8-8.4-5.7-11.3
	c-5.4-4.1-10.6-8.5-15.9-12.8c-5.1-4.1-10.1-8.3-15.3-12.4c-1.4-1.1-2.9-2.1-4.5-3c-2-1.2-3.8-1-5.6,0.4c-1.6,1.2-2.5,3-2.8,4.9
	c-0.6,3.8-1.2,7.6-1.2,11.4c-0.1,12.6-0.7,25.3,0.5,37.9c0.2,2.6,0.6,5.2,0.9,7.8c0.5,4.2,2.1,8.1,3.9,12c1.4,3,3.3,5.5,5.7,7.7
	c10.1,9.2,20.2,18.4,30.4,27.6c1.2,1.1,2.4,2.1,3.7,3.1c2.2,1.6,4.8,0.5,5.1-2.2c0.1-0.6,0.1-1.2,0.1-1.8
	C169.2,361.2,169.7,337.9,169.8,337.9z M185.1,180.2c0.8-0.1,1.6-0.2,2.4-0.4c6.7-1.2,13.1-3.6,19.6-5.6c8-2.5,16-5.2,24-7.8
	c7.3-2.4,14.7-4.6,22-7c1.1-0.4,2.2-1,3.1-1.7c1.3-1,1.3-2.6,0.1-3.6c-1-0.9-2.3-1.6-3.5-2.4c-6.4-3.9-12.9-7.7-19.4-11.6
	c-7.2-4.4-14.3-8.9-21.6-13.2c-1.5-0.9-3.3-1.5-5-2c-4-1.1-8-0.6-11.9,0.5c-5.1,1.5-10.2,3-15.2,4.5c-8.2,2.4-16.5,4.9-24.7,7.4
	c-5.4,1.6-10.7,3.2-16.1,4.8c-1.5,0.5-3.1,0.9-4.4,1.8c-2.4,1.6-2.4,3-0.2,4.8c0.5,0.4,1,0.7,1.5,1.1c12.7,8.7,25.5,17.4,38.1,26.2
	C177.5,178.4,180.9,180.1,185.1,180.2z M355.5,386.7c0,0.1,0,0.8,0,1.5c0.2,3,1.4,4.2,4.4,3.9c1.2-0.1,2.4-0.5,3.4-0.9
	c3-1.2,5.9-2.6,8.9-3.9c3.7-1.6,7.5-3.1,11.2-4.7c5-2.1,9.9-4.3,14.9-6.5c2.8-1.2,5.7-2.3,8.5-3.6c1.9-0.9,4.1-1.6,5.6-3
	c1.9-2,3.4-4.5,3.8-7.4c0.4-2.7,0.8-5.4,1.1-8.1c1.2-11.2,1.9-22.5,3.8-33.6c0.6-4,0.7-8,1-12.1c0.1-0.8,0-1.6-0.2-2.4
	c-0.4-1.4-2.1-2.5-3.2-2.1c-4.4,1.6-8.8,3.2-13.2,4.9c-3.6,1.4-7.1,3-10.7,4.4c-4.4,1.8-8.9,3.4-13.2,5.2c-4.5,1.9-8.9,3.8-13.4,5.8
	c-4.2,1.9-7.2,5-7.8,9.8c-0.6,5-1.2,10-1.7,15c-0.8,8.7-1.5,17.5-2.2,26.2C356.1,378.7,355.8,382.4,355.5,386.7z M292.8,97.6
	c-1.7,0.2-4.7,0.3-7.7,1c-8.2,2-16.4,4.3-24.6,6.2c-8.3,2-16.6,4.1-24.4,7.9c-2.5,1.2-5.1,2.5-7.3,4.2c-2.3,1.8-1.9,3.4,0.5,5
	c3.7,2.3,7.3,4.6,11,6.9c10.7,6.7,21.4,13.4,32.1,20.1c1.8,1.1,3.4,1,5.7,0.5c4.5-0.9,18.6-6.1,26.7-8.6c10-3.2,20.1-6.5,30.1-9.7
	c4.9-1.6,9.8-3.2,14.6-4.7c1.3-0.4,2.6-1.2,2.6-2.6s-1.3-2.1-2.5-2.7c-5.2-2.6-10.5-5.1-15.7-7.8c-7.7-4-14.3-7.8-22.9-12.2
	c-0.2-0.2-0.5-0.3-0.8-0.4C305.2,98.7,299.8,97.7,292.8,97.6z M108.9,193.3c0-1.9,0.1-4.1,0-6.3c-0.3-7.7-0.8-15.3-1-23
	c-0.1-3.2-0.8-6.2-2.5-8.9c-0.5-0.8-1.2-1.7-2-2.2c-4.1-2.9-8.2-5.8-12.4-8.7c-9.3-6.4-18.7-12.9-28-19.4c-1.5-1.1-2.9-1.3-4.5-0.6
	c-1.6,0.7-1.7,2.1-1.7,3.6c0.1,2.7,0.3,5.5,0.4,8.2c0.3,7.3,0.5,14.5,0.8,21.8c0.3,7.8,0.7,15.6,1.2,23.3c0.2,3,0.9,6,1.7,8.9
	c1.4,5.4,4.7,9.8,8.3,13.9c5.9,6.6,12.9,11.8,19.9,17c3.6,2.7,7.5,5,11.8,6.6c2.5,1,4.6,0.4,6.1-1.9c0.8-1.2,1.5-2.7,1.7-4.1
	c0.4-2.9,0.7-5.8,0.6-8.7C109.4,206.4,109.1,200.1,108.9,193.3z M119.8,137.3c1.7-0.2,3.4-0.1,5.1-0.6c5.1-1.3,10.3-2.9,15.4-4.3
	c6.5-1.8,13-3.6,19.5-5.4c5.4-1.5,10.9-2.9,16.2-4.7c2.5-0.8,5-1.5,6.9-3.6c2.1-2.2,2.2-5,0-7c-2.8-2.5-5.6-4.9-8.6-7.1
	c-6.6-4.6-13.5-8.7-20.7-12.2c-3.9-1.9-7.8-3.6-12.1-4.4c-4.2-0.8-8.4-1.2-12.6-0.7c-4,0.5-7.9,1.5-11.8,2.4
	c-1.2,0.3-2.3,0.8-3.5,1.1c-5.4,1.4-10.9,2.8-16.3,4.3c-5.4,1.4-10.9,2.8-16.3,4.3c-2.9,0.8-5.8,1.5-8.6,2.6c-3,1.2-3.2,3.4-0.4,5.3
	c12.8,8.9,25.6,17.8,38.4,26.8C113.1,136.3,116.1,137.6,119.8,137.3z M169.9,429.3L169.9,429.3c0-3,0-6.1,0-9.1c0-6.7-0.1-13.3,0-20
	c0.1-3.2-1.2-5.7-3.2-7.9c-1.9-2.1-3.9-4.1-6-6c-5.4-4.9-10.7-9.8-16.1-14.6c-6.2-5.6-12.5-11.1-18.8-16.6c-0.4-0.4-1-0.7-1.5-0.8
	c-2.2-0.4-3.5,0.5-3.7,2.9c-0.3,3.2-0.2,6.4-0.2,9.7c0.2,11.6,0.4,23.2,0.6,34.9c0.1,4.6,0.1,9.3,0.2,14c0.1,2.5,1.1,4.6,2.9,6.4
	c13.1,13,26.2,26.1,39.3,39.2c0.6,0.6,1.3,1.3,2,1.8c0.9,0.7,1.8,0.7,2.7-0.1c1.4-1.1,1.8-2.5,1.8-4.3
	C169.9,448.9,169.9,439.1,169.9,429.3z M370,118.9c1.3,0,2.7,0.2,3.9-0.1c2.5-0.6,5-1.5,7.5-2.3c9.3-2.9,18.6-5.8,27.9-8.7
	c6.3-2,12.6-4.1,18.9-6.2c1.1-0.4,2.3-0.8,3.4-1.3c1.9-1.1,1.9-2.5,0.2-3.7c-0.5-0.3-1-0.6-1.6-0.8c-7.9-3.7-15.8-7.5-23.7-11.2
	c-7.9-3.7-15.9-7.4-23.8-11c-4.1-1.9-8.2-2.6-12.6-1.3c-4.8,1.4-9.6,2.8-14.4,4.2c-5.8,1.7-11.5,3.5-17.3,5.2
	c-6.4,1.9-12.9,3.8-19.4,5.7c-1.4,0.4-2.7,0.7-4,1.3c-2.3,1.1-2.5,3.2-0.4,4.7c0.8,0.5,1.6,0.9,2.4,1.3c7.5,3.8,15.1,7.5,22.6,11.3
	c7.4,3.7,14.7,7.4,22,11.2C364.2,118.5,367,119.2,370,118.9z M112.6,374.1c-0.2-6.9-0.3-13.7-0.6-20.6c-0.1-1.5-0.3-3.1-1-4.4
	c-1.7-3.5-3.5-7.1-5.7-10.2c-2.6-3.6-5.5-7-8.6-10c-4.4-4.4-9-8.5-13.8-12.5c-3.4-2.8-7.1-5.2-10.8-7.5c-2.5-1.6-4.8-0.9-6.5,1.6
	c-0.9,1.4-1.4,2.9-1.3,4.6c0.2,4.8,0.7,9.7,0.5,14.5c-0.2,7.6,0.9,15.1,0.3,22.7c-0.3,3.4,0.1,6.9,0.4,10.3c0.3,3.5,1.5,6.7,4,9.2
	c7.7,7.5,15.4,15,23.1,22.5c3.8,3.6,7.5,7.2,11.4,10.8c1.2,1.2,2.6,2.2,3.9,3.3c1.2,1,2.7,1,4,0.6s0.7-1.9,0.9-2.9
	c0.1-0.6,0-1.2,0-1.8c0-6.6,0-13.1,0-19.7 M109.2,279.8c-0.2-12.3-2.2-20.8-6.3-28.8c-2-3.8-4.4-7.4-7.9-10.1
	c-6.7-5.1-13.2-10.4-19.8-15.6c-1.3-1-2.9-1.9-4.4-2.6c-1.1-0.5-2.2-0.4-3.4,0.2c-3,1.4-3.6,4.1-4.3,6.8c-0.7,2.9-0.1,5.8,0,8.7
	c0.2,5.6,0.3,11.1,0.6,16.6c0.3,5.6,0.8,11.2,1.2,16.9c0.6,8,3.7,15.1,8.1,21.8c2,3,4.7,5.2,7.3,7.6c5.5,4.8,11,9.6,16.5,14.3
	c1.3,1.1,2.8,1.9,4.2,2.8c2.7,1.8,5.2,0.3,6.8-1.8c0.6-0.8,1-1.8,1.3-2.7c1.3-3.7,1.3-7.5,1.2-11.3
	C109.8,293.9,109.4,285.2,109.2,279.8z M52,184c-0.2-2.9-0.4-5.9-0.6-8.8c-0.3-5.2-0.4-10.5-0.8-15.7c-0.7-11.4-1.5-22.8-2.3-34.2
	c-0.4-5-1.9-9.3-6.6-12.2c-6.1-3.9-11.9-8.2-17.9-12.3c-4.3-3-8.6-5.9-12.9-8.8c-2.3-1.5-3.7-1.1-4.6,1.5c-0.2,0.6-0.3,1.3-0.3,2
	c0,1.4,0,2.8,0.1,4.2c0.7,8.1,1.5,16.1,2.1,24.1c0.8,9.7,1.4,19.4,2,29c0.1,1.5,0.2,3,0.6,4.5c0.8,3.3,2.2,6.2,5,8.4
	c10,7.6,20.1,15.3,30.1,23c0.8,0.6,1.7,1.2,2.6,1.5c1.4,0.6,2.4,0.2,2.8-1.3C51.8,187.4,52.1,184,52,184z M213.3,106.8
	c7.1,0.3,14.4-1.7,21.6-3.8c5.9-1.7,11.8-3.5,17.6-5.4c4-1.3,8-2.6,11.9-4.2c1.4-0.6,2.7-1.8,3.7-3c1.8-2.2,1.4-4.9-0.8-6.7
	c-1.3-1.1-2.7-2.1-4.2-2.9c-5.8-3.2-11.7-6.3-17.6-9.4c-1.5-0.8-3.1-1.6-4.6-2.3c-5-2.6-10.4-3.9-16-4c-3.8,0-7.8-0.3-11.5,0.2
	c-5,0.8-9.8,2.2-14.7,3.6c-7.3,2.1-14.4,4.3-21.7,6.4c-2.9,0.8-5.7,2-8.2,3.7c-1.5,1-2.1,2.3-2.1,4.1c0,1.3,0.2,2.5,1.1,3.3
	c1.4,1.3,2.7,2.7,4.3,3.7c6.7,4.1,13.5,8,20.2,12C198.7,105.7,205.6,106.8,213.3,106.8z M300,81.4c2-0.1,4.1,0,6-0.4
	c4.8-1.1,9.6-2.3,14.3-3.7c11.6-3.5,23.2-7.2,34.8-10.8c1.1-0.3,2.1-1.1,3.1-1.8c0.8-0.6,0.8-1.5,0-2c-1.1-0.7-2.2-1.4-3.4-2
	c-8.7-4.1-17.5-8.2-26.2-12.2c-6.4-3-12.8-5.9-19.1-8.9c-4-1.9-8.3-2.1-12.4-1c-9.3,2.5-18.5,5.3-27.8,8c-3.8,1.1-7.6,2-11.3,3.2
	c-2.9,0.9-5.8,1.9-8.4,3.3c-3.1,1.8-3.2,4.5-0.4,6.9c1.5,1.2,3,2.4,4.6,3.4c8.9,5.6,18.2,10.2,28,14.1
	C287.6,79.8,293.6,81.8,300,81.4z M59.3,97.7c4.9,0.1,9-1.3,13.2-2.4c3.6-0.9,7.2-2,10.7-3c6.9-1.9,13.8-3.7,20.6-5.6
	c6.4-1.7,12.8-3.3,19.2-5c1.3-0.4,2.7-0.9,4-1.4c1.7-0.7,1.9-1.4,0.5-2.4c-2.2-1.6-4.5-3.1-6.7-4.5c-9-5.7-18.1-11.2-26.9-17.2
	c-4.9-3.3-10.1-3.6-15.3-2.5c-7.8,1.7-15.5,4.1-23.2,6.1c-7.6,2-15.2,3.8-22.7,5.8c-3.6,0.9-7.1,2-10.7,3.1
	c-1.4,0.4-2.9,0.8-3.1,2.5c-0.1,1.5,1.3,2.2,2.3,2.9c10.2,7.1,20.3,14.1,30.5,21.2C54.1,97,56.7,98,59.3,97.7z M54.4,254.5
	c0.1,0-0.1-13.6-0.6-20.3c-0.5-5.5-1.5-11-2.2-16.5c-0.5-4.3-2.1-8.2-4-12c-1.2-2.6-3.2-4.7-5.4-6.5c-2.5-2-5.1-3.9-7.6-5.9
	c-6-4.7-12-9.4-18-14.2c-1.1-0.9-2.2-2.1-3.7-1.3c-1.4,0.7-1.3,2.4-1.4,3.8c0,0.1,0,0.2,0,0.3c0.2,3.5,0.4,7.1,0.7,10.6
	c0.7,9.9,1.4,19.8,2.1,29.6c0.5,7,0.9,13.9,1.3,20.9c0.2,3.1,1.4,5.5,3.8,7.6c5.5,4.8,10.8,9.8,16.2,14.6c3.8,3.4,7.5,6.8,11.3,10.1
	c2.5,2.2,5.6,1.5,6.9-1.6c0.4-1.1,0.6-2.3,0.6-3.5C54.5,265,54.4,259.8,54.4,254.5z M147.6,71.6c6.3,0.3,12.7-1.6,19.2-2.9
	c8-1.7,15.8-4,23.5-6.5c2.7-0.9,5.3-2,7.9-2.9c1.5-0.5,3.1-0.9,4.6-1.5c2-0.8,4.1-1.6,5.9-2.9c2.2-1.5,2.3-3.6,0.5-5.3
	c-1.4-1.3-3.2-2.5-4.9-3.4c-8.7-4.8-17.5-9.6-26.3-14.4c-2.4-1.3-5-2.2-7.8-1.9c-2.8,0.3-5.6,0.8-8.3,1.5
	c-10.9,2.8-21.9,5.8-32.8,8.8c-7.4,2-14.9,4.1-22.3,6.2c-1.3,0.4-2.9,0.7-3.1,2.4c-0.2,1.6,1.3,2.1,2.4,2.8
	C115,57.1,124,62.4,132.9,68C137.2,70.8,142,71.8,147.6,71.6z M58.1,303.3c-0.1-4-1.4-7.5-4.5-10.2c-1.5-1.3-2.9-2.8-4.4-4.1
	c-8-7-16-14.1-24.1-21.1c-1-0.9-2-1.7-3.1-2.4c-1.7-1.1-3.2-0.3-3.4,1.7c-0.1,0.7,0,1.4,0,2.1c0.1,2.7,0.3,5.5,0.5,8.2
	c0.8,13.9,1.7,27.9,2.4,41.8c0.2,3.8,1.5,6.7,4.2,9.3c9.8,9.4,19.5,18.9,29.2,28.3c0.4,0.4,0.7,0.7,1.1,1.1c0.9,0.9,2,1.4,3.3,0.9
	c1.3-0.6,1.2-1.7,1.2-2.8c0-2.7,0-5.5,0-8.2c0,0-0.5-11.9-0.9-17.9c-0.2-4.3-0.7-8.7-1-13 M229.8,49.3c1.6-0.2,3.2-0.3,4.8-0.7
	c3.2-0.8,6.4-1.7,9.6-2.6c7.2-2.1,14.5-4.1,21.7-6.3c6.6-2,13.3-4,19.9-6c0.9-0.3,1.7-0.6,2.5-1.1c1.3-0.9,1.2-2,0-2.9
	c-1-0.7-2.1-1.3-3.2-1.8c-4.9-2.3-9.9-4.6-14.8-6.9c-6.9-3.2-13.8-6.5-20.7-9.8C246.2,9.6,242.7,9,239,10
	c-8.7,2.4-17.4,4.9-26.1,7.3c-5.3,1.5-10.6,2.9-15.9,4.4c-3,0.8-6,1.6-9,2.5c-1.1,0.4-2.4,0.8-2.6,2.2c-0.2,1.5,1.1,2,2.1,2.7
	c0.2,0.2,0.5,0.3,0.8,0.4c11.1,5.8,22.3,11.6,33.4,17.5C224.2,48.6,226.8,49.4,229.8,49.3z"/>
<text transform="matrix(0.735 0 0 1 464.337 390.2336)" class="st3 st4">HANSEN</text>
</svg>
