<?xml version="1.0" encoding="utf-8"?>
<!-- Generator: Adobe Illustrator 26.0.1, SVG Export Plug-In . SVG Version: 6.00 Build 0)  -->
<svg version="1.1" id="Layer_1" xmlns="http://www.w3.org/2000/svg" xmlns:xlink="http://www.w3.org/1999/xlink" x="0px" y="0px"
	 viewBox="0 0 709 675" style="enable-background:new 0 0 709 675;" xml:space="preserve">
<style type="text/css">
	.st0{fill:#FFFFFF;}
	.st1{fill:none;stroke:#000000;stroke-width:0.3;}
</style>
<polygon class="st0" points="253.5,189.5 176.9,210.2 298.1,298.6 477,234.2 473.6,229.1 411.8,193.9 328.6,227 "/>
<polygon class="st0" points="322.5,220.3 402.6,199.1 404.4,193.9 348.2,165 341.3,164.4 272,189.5 "/>
<polygon class="st0" points="390.7,373.9 390.7,463.2 474,429.4 474,343.3 "/>
<polygon class="st0" points="170.6,218.8 181.2,400.7 251.4,460.7 295.1,498.7 295.1,576.1 285.3,573.7 237.2,525.8 228.8,520.6 
	182.1,473.5 177.3,469.2 139.8,431.6 134.8,361.3 137.4,361.3 133.1,352.8 128.6,277.3 131,270.9 127.5,264.1 122.2,195.1 
	126.6,192.3 "/>
<path class="st0" d="M302.9,302.8c-1.6,2.1-3.2,198.4-3.2,198.4l91-38v-89.3c0,0,89.5-25.7,90.4-33.7c0.8-8,7.2-97.5,7.2-97.5
	L302.9,302.8z"/>
<polygon class="st0" points="234.1,356.9 178.7,317.6 176.9,399.7 231,441.8 "/>
<path class="st0" d="M482.1,234.6c-16.8-11.8-135.9-72.1-135.9-72.1l-173.1,50l-42-33.8l7.2-3.6l64.6-17.3l9.5,4l3.1-7.2l71.3-19.3
	l5.9-0.1l5.4,3.4l2.1-6.6l61-17.1l55.8,24.9v2.6l6.3,0.4l62.1,29.2l6.8,5.2l3.8-0.2l65,29.3L482.1,234.6z"/>
<polygon class="st0" points="175.1,220.3 294.6,296.1 293.1,493.2 283.3,490.3 228.3,439.7 238.5,356.9 172.6,310.7 "/>
<path class="st0" d="M302.6,575.3c0,0,1.2,5.4,6.5,2.3s64.8-28.8,64.8-28.8l5.8-4.4L392,541l140.6-61.7l2.9-3.4l7.9-70.7l0.8-14.3
	l9.5-78.7l-2.6-7.1l2.6-6.5l10.5-80.5l-76.3,23.7l-11,103.2l-7.7,85.3L299.3,503v72.4L302.6,575.3L302.6,575.3z"/>
<path d="M134.2,364.2c0.1-2-0.3-4.1,0.9-5.9c0.4-0.7,0.1-1.1-0.4-1.5c-1.8-1.7-2.3-3.8-2.4-6.3c-0.4-7.6-1.1-15.1-1.6-22.7
	c-0.5-7.2-0.9-14.3-1.4-21.5c-0.5-8.5-1.1-16.9-1.6-25.4c-0.1-1.8-0.1-3.6-0.2-5.5c-0.1-1.8,0.2-3.4,1.4-4.8c0.6-0.7,0.8-1.3-0.1-2
	c-1.5-1-1.7-2.7-1.8-4.3c-0.5-6.3-0.8-12.7-1.3-19c-0.7-8.6-1.5-17.3-2.2-25.9c-0.3-3.8-0.5-7.7-0.8-11.5c-0.3-4.2-0.8-8.4-1-12.7
	c-0.2-3.2-0.4-6.5-0.1-9.7s2.1-5.7,4.9-7.2c2-1.1,4.2-1.8,6.4-2.4c9.7-2.6,19.4-5,29-7.5c13.4-3.5,26.7-7.1,40.1-10.6
	c1.4-0.4,3-0.2,4.5,0.1c1,0.2,1.8,0.3,2.4-0.6c1.2-1.9,3-2.6,5.2-3.2c11.9-3.1,23.8-6.4,35.7-9.6c11.9-3.2,23.8-6.5,35.6-9.7
	c2-0.5,3.9-0.6,5.9-0.1c0.6,0.2,1.5,0.1,1.9-0.2c1.5-1.5,3.6-1.9,5.4-2.4c9.5-2.8,19.1-5.3,28.6-8.1c9.2-2.7,18.4-5.4,27.7-8.1
	c1.4-0.4,2.9-0.7,4.4-1.1c2.8-0.8,5.5-0.4,8.2,0.8c7.5,3.6,15,7.1,22.4,10.5c8.8,4.1,17.6,8.1,26.3,12.2c1.5,0.7,3.1,1.4,4.1,3
	c0.3,0.5,1.2,0.8,1.8,0.7c3.2-0.4,5.9,1,8.6,2.3c17.4,8.2,34.7,16.3,52.1,24.5c2.2,1,4.4,2,6.5,3.2c1.1,0.6,2.1,1.6,2.8,2.6
	c0.7,1.1,1.5,1.4,2.7,1.5c1.5,0.2,3,0.5,4.3,1.1c8.3,3.8,16.5,7.7,24.7,11.5c10.4,4.9,20.8,9.8,31.3,14.7c2.1,1,4.2,1.8,6.3,2.8
	c2.8,1.3,4.8,3.4,5.8,6.2c0.5,1.4,0.9,3,0.7,4.4c-0.6,5.3-1.4,10.6-2.1,15.9c-0.7,5.3-1.2,10.6-1.9,15.9c-0.4,3.6-0.9,7.2-1.4,10.8
	c-0.6,4.6-1.1,9.2-1.7,13.8c-0.7,5.3-1.5,10.5-2.2,15.8c-0.3,2.4-0.6,4.8-0.8,7.2c-0.2,2.6-0.6,5.2-2.6,7.2c-0.5,0.5-0.5,1,0,1.6
	c1.4,1.7,1.8,3.6,1.4,5.9c-0.7,5.1-1.3,10.2-1.8,15.3c-0.3,2.8-0.5,5.6-0.7,8.4c-0.1,1.3-0.4,2.5-0.6,3.8c-1,8.3-2.1,16.5-3.1,24.8
	c-0.6,5.4-1.1,10.7-1.8,16.1c-0.6,4.5-1.3,8.9-2,13.4c-0.2,1.5-0.6,2.9-2,3.9c-0.5,0.4-1.2,0.9-0.6,1.8c1.3,1.9,1.1,4.1,0.9,6.1
	c-0.4,3.5-0.9,7-1.4,10.4c-0.4,2.8-0.6,5.6-1,8.4c-0.4,3.5-1,6.9-1.2,10.4c-0.2,3-1.2,5.9-1,8.8c0.2,3.6-0.9,6.9-0.9,10.4
	c0,2.4-0.6,4.8-0.9,7.1c-0.1,0.7,0,1.5-0.1,2.1c-0.3,1.3-0.1,2.5-0.3,4c-0.3,2.7-1,5.3-0.9,8c0,2.5-0.9,3.9-3.3,5
	c-24.2,10.7-48.4,21.6-72.6,32.4c-20.8,9.3-41.6,18.6-62.4,27.9c-5,2.3-3.7,1.7-8.8,3.9c-1,0.5-8.5,4.1-9.8,3.3
	c-0.4-0.2,0,0-1.6,0.3c-3.9,4-9.1,5.4-13.9,7.6c-16.2,7.3-32.4,14.5-48.6,21.8c-3,1.3-5.9,3.1-8.9,4.3c-2.9,1.2-6,2.2-9.1,2.9
	c-1.2,0.3-2.6-0.1-3.8-0.5c-2.4-0.9-4.6-2.1-6.4-3.9c-15.9-15.9-31.8-31.7-47.7-47.6c-0.9-0.9-1.6-1.8-2.4-2.7
	c-0.7-0.7-1.4-1.6-2.2-2c-2.2-1-3.8-2.7-5.4-4.3c-10.6-10.3-21.1-20.7-31.6-31c-4.5-4.4-9.1-8.6-13.4-13.1c-1.5-1.5-2.5-3.4-3.7-5.1
	c-0.9-1.2-1.7-2.3-3.1-3.1c-1.5-0.9-2.8-2.3-4.1-3.5c-7.6-7.4-15.1-14.9-22.7-22.3c-3.2-3.1-6.4-6.2-9.5-9.3
	c-0.2-0.2-0.4-0.4-0.7-0.6c-1.8-2.1-3.3-4.1-3.4-7.2c-0.1-4.8-0.6-9.7-0.9-14.5c-0.5-8-0.9-15.9-1.3-23.9
	c-0.3-5.9-0.7-11.9-1.1-17.8C134.7,369,134.4,366.6,134.2,364.2z M309,371.6c0,5.1-0.1,8.6,0,12c0,1.4,0.3,2.8,0.8,4.1
	c0.3,0.7,1.2,1.5,1.9,1.6c2,0.4,5,0.5,8-0.6c3.7-1.5,7.4-2.9,11.1-4.3c2.1-0.8,4.3-1.6,6.4-2.4c1.9-0.7,3.8-1.6,5.7-2.3
	c1.9-0.8,3.8-1.5,5.8-2.2c3.3-1.3,6.6-2.8,10-3.7c2.8-0.8,5.7-2,8.3-2.9c2.7-0.9,5.4-2.2,8.2-3.2c5.1-1.8,7.8-5.6,8.4-10.7
	c0.7-5.9,0.9-11.9,1.2-17.8c0.1-2.3,0-4.6,0.2-7c0.5-7,1.2-14.1,1.6-21.1c0.3-5.9,0.4-11.9,0.5-17.9c0-1.4-0.2-2.8-0.6-4.1
	c-0.6-2.4-1.5-3-3.9-2.9c-1.4,0-2.7,0.4-4.1,0.8c-1.7,0.5-3.4,1.1-5.1,1.6c-3.1,1-6.3,2.1-9.4,3.2c-2.6,0.9-5.2,2-7.8,2.8
	c-2,0.6-4,1-6,1.6c-4,1.4-7.9,3.2-12,4.4c-4.9,1.4-9.8,3.1-14.6,4.9c-1.2,0.5-2.4,1-3.7,1.3c-6.5,1.7-9.5,6.9-9.8,11.6
	c-0.2,3-0.4,6.1-0.5,9.1c-0.1,9.7-0.2,19.4-0.3,29.1c0,0.7,0,1.4,0,2.1C309.4,363.6,309.1,368.5,309,371.6z M399.2,337.3h0.1
	c0,0.7-0.1,1.4-0.1,2.1c0.2,3-0.1,6,0.9,9c0.9,2.7,3,4.3,5.3,4.5c3.7,0.4,14.4-1.1,15.3-1.4c5.9-1.8,5.9-1.8,7.9-2.5
	c3.1-1.1,6.1-2.3,9.2-3.4c1.5-0.5,9.5-3.6,13.3-5.2c4.1-1.9,6.9-3.8,10.2-5.7c3-1.8,5.9-3.8,8-6.6c3.8-5,6.2-10.8,6.7-17.2
	c0.3-3.8,0.5-7.7,0.9-11.5c0.5-5.6,1.1-11.2,1.6-16.9c0.5-5.7,1-11.5,1.5-17.2c0.3-3.1,0.6-6.2-0.3-9.3c-0.3-0.9-0.7-1.3-1.6-1.4
	c-3.1-0.4-4.4,0.6-7.7,1.2c-1.8,0.4,1-0.2-3.3,0.8c-3,0.7-4.6,1.7-7.5,2.7s-5.9,1.7-8.7,2.7c-3,1-5.8,2.3-8.8,3.3
	c-4.1,1.4-8.3,2.6-12.4,4c-3.1,1.1-6.2,2.2-9.4,3.3c-3.7,1.3-7.6,2.2-11.1,3.9c-3.7,1.8-6.1,4.9-6.5,9.2c-0.5,6-1,12-1.4,18
	C400.6,315.1,399.9,326.2,399.2,337.3z M308.4,470.6c0,4.2,0,7.3,0,10.3c0,1.5-0.1,3,0.1,4.5c0.2,1.8,1.4,3.4,2.9,3.5
	c1.3,0.1,2.7,0.1,3.9-0.3c2.4-0.7,4.6-1.8,6.9-2.7c2.2-0.9,4.2-2.2,6.5-2.9c2.9-0.9,5.6-2.3,8.4-3.4c2.4-1,4.7-2,7.1-3
	c2.8-1.1,5.5-2.2,8.3-3.4c1.8-0.8,0,0,5.3-2.3c3.4-1.5,6.6-2.7,9.8-4.2c3.2-1.6,5.7-4.6,7.7-7.6c2-3.1,3.6-6.5,4.3-10.2
	c0.9-4.5,1.7-9,2.4-13.6c0.4-2.6,0.5-5.2,0.7-7.8c0.1-1.9,0.2-3.8,0.4-5.7c0.2-2.8,0.6-5.6,0.8-8.4c0.5-6.6-0.2-13.1-1.3-19.6
	c-0.6-3.4-2.2-6.5-6-7.6c-2.5-0.7-5.2-0.8-7.8,0.1c-4,1.4-7.9,2.9-11.8,4.4c-8.2,3-16.4,6-24.6,9.1c-4.3,1.6-8.5,3.5-12.9,5
	c-1.6,0.5-2.9,1.2-4.2,2.2c-2.4,1.8-4.3,4-4.8,7.1c-0.4,2.5-0.6,5-0.6,7.5c-0.2,6.2-0.1,12.3-0.3,18.5
	C309.1,450.6,308.7,461.2,308.4,470.6z M487.9,316.3h0.1c0,1.2-0.1,2.4,0,3.6s1.3,2.7,2.3,2.8c1.5,0.1,3.1,0.2,4.5-0.2
	c3-0.9,5.9-2.1,8.8-3.2c2.1-0.8,4.2-1.9,6.4-2.4c3.9-0.9,7.5-2.7,11.3-3.8c1.4-0.4,2.8-1.2,4.2-1.5c1.5-0.1,3-0.9,4.5-1.5
	c3-1.1,6-2.1,8.9-3.2c2.7-1,5.5-1.8,7.9-3.4c1.1-0.8,2.5-1.4,3.3-2.4c2.2-2.7,3.3-5.9,3.7-9.4c1-8.1,2.1-16.2,3.1-24.3
	c0.6-4.8,1.2-9.6,1.8-14.4c0.4-3.2,1-6.4,1.4-9.6c0.5-4.2,0.8-8.4,1.3-12.6c0.3-2.8-1.9-4.9-5-4.2c-2.3,0.6-4.7,1.1-7,1.7
	c-1.9,0.5-3.8,1.3-5.7,1.9c-2.3,0.8-4.6,1.7-7,2.4c-3.1,0.9-6.4,1.5-9.4,2.7c-4.4,1.7-8.9,3.2-13.4,4.7c-4,1.3-8,2.5-12,3.8
	c-1,0.3-2.1,0.8-2.9,1.6c-2.3,2.2-4,4.8-4.4,8.1c-0.3,2.8-0.8,5.6-1.1,8.4c-0.4,3.4-0.5,6.9-0.9,10.3c-0.5,4.5-1.1,9-1.6,13.5
	c-0.3,2.7-0.5,5.4-0.8,8.1C489.5,301.3,488.7,308.8,487.9,316.3z M307.9,553.8c0,6.6,0,11.1,0,15.7c0,3.6,2.9,5.7,6.4,3.9
	c2-1,4.1-2,6.1-2.9c5.1-2.1,10-4.6,15.2-6.7c3.5-1.4,6.7-3.4,10.2-4.8c3.6-1.4,6.8-3.5,10.4-4.8c4.5-1.5,8.8-3.6,13-5.8
	c2-1.1,4-2.6,5.3-4.4c1.7-2.2,2.5-5,2.6-7.9c0.1-5.4,0.4-10.7,0.6-16.1c0.2-4.3,0.5-8.6,0.7-13c0.4-7.5,0.9-14.9,1.2-22.4
	c0.1-1.4-0.1-2.8-0.5-4.2c-0.2-1.1-0.8-2.2-2.1-2.3c-1.3-0.1-2.7-0.3-3.9,0.1c-3.6,1.2-7.2,2.6-10.7,4.1
	c-8.9,3.7-17.7,7.6-26.6,11.4c-6.5,2.7-12.9,5.4-19.4,8.1c-5.5,2.3-7.8,6.7-7.9,12.4c-0.1,3.7-0.1,7.5-0.2,11.2
	C308.2,535.6,308.1,545.7,307.9,553.8z M480.7,398.1c0.1,2.5,0.2,5.7,0.4,8.9c0.1,1.1,0.4,2.2,0.7,3.2c1,2.9,3.5,4.5,6.5,4.9
	c3.2,0.4,5.9-1,8.6-2c2.5-0.8,5-2,7.5-3c2.7-1,5.4-1.9,8-2.9c3.6-1.4,7.3-2.9,10.9-4.4c4-1.6,8-3.4,12-4.8c4.5-1.5,6.5-5.1,7.3-9.2
	c1.1-5.7,1.7-11.6,2.4-17.4c1-8,1.8-16,2.7-24.1c0.8-6.3,1.7-12.6,2.6-18.9c0.2-1.9,0.4-3.8,0.3-5.7c0-1.5-0.7-3.1-2.2-3.6
	c-1.1-0.3-2.6-0.1-3.8,0.3c-2.8,0.9-5.5,2.1-8.3,3.1c-4,1.4-8.1,2.7-12.2,4.1c-2.6,0.9-5.9,1.6-8.5,2.5c-4.3,1.4-7.6,2.8-11.7,4.3
	c-1.1,0.4-2.3,1.2-3.3,1.7c-6.1,3.4-10.5,8.3-13.1,14.8c-1.9,4.9-2.9,10.1-3.7,15.2c-0.5,2.8-0.9,5.6-1.1,8.4
	c-0.2,2.9-0.3,5-0.9,8.5c0,0.2-0.1,0.6-0.1,0.6C481.9,382.5,481,392.3,480.7,398.1z M397.6,433.4c0.2,1.8-0.2,3.9,1,5.9
	c1.6,2.7,3.7,4.5,6.8,5.4c2.7,0.8,5.5,1.1,8,0.2c7.1-2.5,14-5.4,21-8.3c3.5-1.4,6.7-3.2,10.2-4.5c7.3-2.8,12.8-7.7,16.9-14.2
	c2.6-4.2,4.7-8.7,5.1-13.9c0.6-8.1,1.5-16.3,2.2-24.4c0.3-4.1,0.5-8.2,0.6-12.4c0-7.9-5.8-12.1-12.8-11.5c-1,0.1-1.5,0.4-3.1,0.8
	c-2.2,0.6-4.1,1.4-6.2,1.9c-0.4,0.4-1.9,0.4-5.5,2.1c-1.6,0.7-3.4,1.3-5.1,1.9c-3.4,1.3-6.1,2.6-10.1,3.8c-2.9,0.6-5.4,1.9-7.9,3.1
	c-4.4,2-8.4,4.9-11.3,8.9c-1.4,2-2.6,4.3-4,6.3c-1.4,2.1-1.9,4.5-2.7,6.8c-1.1,3-1.2,6.1-1.3,9.2c-0.1,4-0.4,8.1-0.6,12.1
	C398.3,419.5,398,426.3,397.6,433.4z M444.5,447.9c-3.3,1.1-6.7,2.3-9.9,3.7c-2.4,0.9-7,3.1-14.4,6c-4.4,2.6-8.9,5.1-13.3,7.7
	c-1.2,0.7-4.4,2.6-4.8,3c-2,2-3.8,4-5.4,6.3c-1.8,2.5-3.2,5.2-3.8,8.1c-1.3,7-1.8,14.1-1.8,21.3c0,0.5,0,1,0,1.5
	c-0.3,7.3-0.5,14.5-0.8,21.8h-0.1c0,1.9,0,3.8,0,5.8c-0.1,3.4,2.6,5.4,5.8,4.1c2.9-1.2,5.9-2.4,8.8-3.7c3.8-1.8,7.6-3.6,11.5-5.3
	c6.8-2.9,13.5-6.1,20.1-9.3c4.3-2,8.8-3.5,13-5.7c2.3-1.2,4.7-2.1,6.7-3.6c1.5-1.1,3.1-2.8,3.7-4.6c1-3.1,1.3-6.5,1.6-9.8
	c0.5-6,0.8-12.1,1.1-18.1c0.4-7.4,0.8-14.7,1.3-22.1c0.2-2.3-1-4.3-1.5-6.4v-0.1c-0.2-0.3-2-2.1-5.2-2.1c-2.2,0.3-4.5-0.1-6.6,0.5
	 M237,306.2c0,13.1-0.1,23,0,32.9c0.1,5.6,1.9,10.3,6.6,13.9c12.8,9.8,25.3,19.9,37.9,29.8c0.6,0.5,1.3,1,2,1.4
	c2.1,1.2,3.9,0.7,5-1.5c0.4-0.9,0.7-1.9,0.7-2.9c0.2-7.5,0.2-14.9,0.3-22.4c0.1-5.6,0.1-11.1,0.2-16.7c0-9.8,0.1-19.6,0.1-29.4
	c0-3.6-1.5-6.9-4.2-9c-4.2-3.5-8.7-6.5-13.2-9.6c-5.8-4-11.6-8-17.3-12c-4.2-2.9-8.3-6-12.6-8.8c-2.7-1.8-5.3-0.5-5.7,2.7
	c-0.2,1.8-0.4,3.6-0.4,5.4C236.6,289.8,236.8,299.6,237,306.2z M287.9,444.7c0-11.4-0.1-22.9,0-34.3c0.1-4.9-1.8-8.4-5.7-11.3
	c-5.4-4.1-10.6-8.5-15.9-12.8c-5.1-4.1-10.1-8.3-15.3-12.4c-1.4-1.1-2.9-2.1-4.5-3c-2-1.2-3.8-1-5.6,0.4c-1.6,1.2-2.5,3-2.8,4.9
	c-0.6,3.8-1.2,7.6-1.2,11.4c-0.1,12.6-0.7,25.3,0.5,37.9c0.2,2.6,0.6,5.2,0.9,7.8c0.5,4.2,2.1,8.1,3.9,12c1.4,3,3.3,5.5,5.7,7.7
	c10.1,9.2,20.2,18.4,30.4,27.6c1.2,1.1,2.4,2.1,3.7,3.1c2.2,1.6,4.8,0.5,5.1-2.2c0.1-0.6,0-1.2,0.1-1.8
	C287.3,467.9,287.8,444.7,287.9,444.7z M303.2,286.9c0.8-0.1,1.6-0.2,2.4-0.4c6.7-1.2,13.1-3.6,19.6-5.6c8-2.5,16-5.2,24-7.8
	c7.3-2.4,14.7-4.6,22-7c1.1-0.4,2.2-1,3.1-1.7c1.3-1,1.3-2.6,0.1-3.6c-1-0.9-2.3-1.6-3.5-2.4c-6.4-3.9-12.9-7.7-19.4-11.6
	c-7.2-4.4-14.3-8.9-21.6-13.2c-1.5-0.9-3.3-1.5-5-2c-4-1.1-8-0.6-11.9,0.5c-5.1,1.5-10.2,3-15.2,4.5c-8.2,2.4-16.5,4.9-24.7,7.4
	c-5.4,1.6-10.7,3.2-16.1,4.8c-1.5,0.5-3.1,0.9-4.4,1.8c-2.4,1.6-2.4,3-0.2,4.8c0.5,0.4,1,0.7,1.5,1.1c12.7,8.7,25.5,17.4,38.1,26.2
	C295.6,285.1,299,286.9,303.2,286.9z M473.6,493.5c0,0.1,0,0.8,0,1.5c0.2,3,1.4,4.2,4.4,3.9c1.2-0.1,2.4-0.5,3.4-0.9
	c3-1.2,5.9-2.6,8.9-3.9c3.7-1.6,7.5-3.1,11.2-4.7c5-2.1,9.9-4.3,14.9-6.5c2.8-1.2,5.7-2.3,8.5-3.6c1.9-0.9,4.1-1.6,5.6-3
	c1.9-2,3.4-4.5,3.8-7.4c0.4-2.7,0.8-5.4,1.1-8.1c1.2-11.2,1.9-22.5,3.7-33.6c0.7-4,0.7-8,1-12.1c0.1-0.8,0-1.6-0.2-2.4
	c-0.4-1.4-2.1-2.5-3.2-2.1c-4.4,1.6-8.8,3.2-13.2,4.9c-3.6,1.4-7.1,3-10.7,4.4c-4.4,1.8-8.9,3.4-13.2,5.2c-4.5,1.9-8.9,3.8-13.4,5.8
	c-4.2,1.9-7.2,5-7.8,9.8c-0.6,5-1.2,10-1.7,15c-0.8,8.7-1.5,17.5-2.2,26.2C474.2,485.5,473.9,489.2,473.6,493.5z M410.9,204.4
	c-1.7,0.2-4.7,0.3-7.7,1c-8.2,2-16.4,4.3-24.6,6.2c-8.3,2-16.6,4.1-24.4,7.9c-2.5,1.2-5.1,2.5-7.3,4.2c-2.3,1.8-1.9,3.4,0.5,5
	c3.7,2.3,7.3,4.6,11,6.9c10.7,6.7,21.4,13.4,32.1,20.1c1.8,1.1,3.4,1,5.7,0.5c4.5-0.9,18.6-6.1,26.7-8.6c10-3.2,20.1-6.5,30.1-9.7
	c4.9-1.6,9.8-3.2,14.6-4.7c1.3-0.4,2.6-1.1,2.6-2.6c0-1.4-1.3-2.1-2.5-2.7c-5.2-2.6-10.5-5.1-15.7-7.8c-7.7-4-14.3-7.8-22.9-12.2
	c-0.2-0.2-0.5-0.3-0.8-0.4C423.3,205.4,417.9,204.4,410.9,204.4z M227,300.1c0-1.9,0.1-4.1,0-6.3c-0.3-7.7-0.8-15.3-1-23
	c-0.1-3.2-0.9-6.2-2.5-8.9c-0.5-0.8-1.2-1.7-2-2.2c-4.1-2.9-8.2-5.8-12.4-8.7c-9.3-6.4-18.7-12.9-28-19.4c-1.5-1.1-2.9-1.3-4.5-0.5
	c-1.6,0.7-1.7,2.1-1.7,3.6c0.1,2.7,0.3,5.4,0.4,8.2c0.3,7.3,0.5,14.5,0.8,21.8c0.3,7.8,0.7,15.6,1.2,23.3c0.2,3,0.9,6,1.7,8.9
	c1.4,5.4,4.7,9.8,8.3,13.9c5.9,6.6,12.9,11.8,19.9,17c3.6,2.7,7.5,5,11.8,6.6c2.5,1,4.6,0.4,6.1-1.9c0.8-1.2,1.5-2.7,1.7-4.1
	c0.4-2.9,0.7-5.8,0.6-8.7C227.5,313.1,227.2,306.8,227,300.1z M237.9,244c1.7-0.2,3.4-0.1,5.1-0.6c5.1-1.3,10.3-2.9,15.4-4.3
	c6.5-1.8,13-3.6,19.5-5.4c5.4-1.5,10.9-2.9,16.2-4.7c2.5-0.8,5-1.5,6.9-3.5c2.1-2.2,2.2-5,0-7c-2.8-2.5-5.6-4.9-8.6-7.1
	c-6.6-4.6-13.5-8.7-20.7-12.2c-3.9-1.9-7.8-3.6-12.1-4.4c-4.2-0.8-8.4-1.2-12.6-0.7c-4,0.5-7.9,1.5-11.8,2.4
	c-1.2,0.3-2.3,0.8-3.5,1.1c-5.4,1.4-10.9,2.8-16.3,4.3c-5.4,1.4-10.9,2.8-16.3,4.3c-2.9,0.8-5.8,1.5-8.6,2.6c-3,1.2-3.2,3.4-0.4,5.3
	c12.8,8.9,25.6,17.8,38.4,26.8C231.2,243,234.2,244.3,237.9,244z M288,536L288,536c0-3,0-6.1,0-9.1c0-6.7-0.1-13.3,0-20
	c0.1-3.2-1.2-5.7-3.2-7.9c-1.9-2.1-3.9-4.1-6-6c-5.4-4.9-10.7-9.8-16.1-14.6c-6.2-5.6-12.5-11.1-18.8-16.6c-0.4-0.4-1-0.7-1.5-0.8
	c-2.1-0.4-3.5,0.5-3.7,2.9c-0.3,3.2-0.2,6.4-0.2,9.7c0.2,11.6,0.4,23.2,0.6,34.9c0.1,4.6,0.1,9.3,0.2,14c0.1,2.5,1.1,4.6,2.9,6.4
	c13.1,13,26.2,26.1,39.3,39.2c0.6,0.6,1.3,1.3,2,1.8c0.9,0.7,1.8,0.7,2.7-0.1c1.4-1.1,1.8-2.5,1.8-4.3C288,555.6,288,545.8,288,536z
	 M488.1,225.6c1.3,0,2.7,0.2,3.9-0.1c2.5-0.6,5-1.5,7.5-2.3c9.3-2.9,18.6-5.8,27.9-8.7c6.3-2,12.6-4.1,18.9-6.2
	c1.1-0.4,2.3-0.8,3.4-1.3c1.9-1.1,1.9-2.5,0.2-3.7c-0.5-0.3-1-0.6-1.6-0.9c-7.9-3.7-15.8-7.5-23.7-11.2s-15.9-7.4-23.8-11
	c-4.1-1.9-8.2-2.6-12.6-1.3c-4.8,1.4-9.6,2.8-14.4,4.2c-5.8,1.7-11.5,3.5-17.3,5.2c-6.4,1.9-12.9,3.8-19.4,5.7
	c-1.4,0.4-2.7,0.7-4,1.3c-2.3,1.1-2.5,3.2-0.4,4.7c0.8,0.5,1.6,0.9,2.4,1.3c7.5,3.8,15.1,7.5,22.6,11.3c7.4,3.7,14.7,7.4,22,11.2
	C482.3,225.2,485.1,225.9,488.1,225.6z M230.7,480.8c-0.1-6.9-0.3-13.7-0.6-20.6c-0.1-1.5-0.3-3.1-1-4.4c-1.7-3.5-3.5-7.1-5.7-10.2
	c-2.6-3.6-5.5-7-8.6-10c-4.4-4.4-9-8.5-13.8-12.5c-3.4-2.8-7.1-5.2-10.9-7.5c-2.5-1.6-4.8-0.9-6.5,1.6c-0.9,1.4-1.4,2.9-1.3,4.6
	c0.2,4.8,0.7,9.7,0.5,14.5c-0.2,7.6,0.9,15.1,0.4,22.7c-0.3,3.4,0.1,6.9,0.4,10.3c0.3,3.5,1.5,6.7,4,9.2c7.7,7.5,15.4,15,23.1,22.5
	c3.8,3.6,7.5,7.2,11.4,10.8c1.2,1.2,2.6,2.2,3.9,3.3c1.2,1,2.7,1,4,0.6c1.3-0.4,0.7-1.9,0.9-2.9c0.1-0.6,0-1.2,0-1.8
	c0-6.6,0-13.1,0-19.7 M227.3,386.5c-0.2-12.3-2.2-20.8-6.4-28.8c-2-3.8-4.4-7.4-7.9-10.1c-6.7-5.1-13.2-10.5-19.8-15.6
	c-1.3-1-2.9-1.9-4.4-2.6c-1.1-0.5-2.2-0.4-3.4,0.2c-3,1.4-3.6,4.1-4.3,6.8c-0.7,2.9-0.1,5.8,0,8.7c0.2,5.6,0.3,11.1,0.6,16.6
	c0.3,5.6,0.8,11.2,1.2,16.9c0.6,8,3.7,15.1,8.1,21.8c2,3,4.7,5.2,7.3,7.6c5.5,4.8,11,9.6,16.5,14.3c1.3,1.1,2.8,1.9,4.2,2.8
	c2.7,1.8,5.2,0.3,6.8-1.8c0.6-0.8,1-1.8,1.3-2.7c1.3-3.7,1.3-7.5,1.2-11.3C227.9,400.6,227.5,391.9,227.3,386.5z M170.1,290.7
	c-0.2-2.9-0.4-5.8-0.6-8.8c-0.3-5.2-0.4-10.5-0.8-15.7c-0.7-11.4-1.5-22.8-2.3-34.2c-0.4-5-1.9-9.3-6.6-12.2
	c-6.1-3.9-11.9-8.2-17.9-12.3c-4.3-3-8.6-5.9-12.9-8.8c-2.3-1.5-3.7-1.1-4.6,1.5c-0.2,0.7-0.4,1.4-0.4,2.1c0,1.4,0,2.8,0.1,4.2
	c0.7,8.1,1.5,16.1,2.1,24.1c0.8,9.7,1.4,19.4,2,29c0.1,1.5,0.2,3,0.6,4.5c0.8,3.3,2.2,6.2,5,8.4c10,7.6,20.1,15.3,30.1,23
	c0.8,0.6,1.7,1.2,2.6,1.5c1.4,0.6,2.4,0.2,2.8-1.3C169.9,294.1,170.2,290.7,170.1,290.7z M331.4,213.5c7.1,0.3,14.4-1.7,21.6-3.8
	c5.9-1.7,11.8-3.5,17.6-5.4c4-1.3,8-2.6,11.9-4.2c1.4-0.6,2.7-1.8,3.7-3c1.8-2.2,1.4-4.9-0.8-6.7c-1.3-1.1-2.7-2.1-4.2-2.9
	c-5.8-3.2-11.7-6.3-17.6-9.4c-1.5-0.8-3.1-1.6-4.6-2.3c-5-2.6-10.4-3.9-16-3.9c-3.8,0-7.8-0.4-11.5,0.2c-5,0.8-9.8,2.2-14.7,3.6
	c-7.3,2.1-14.5,4.4-21.7,6.4c-2.9,0.8-5.7,2-8.2,3.7c-1.5,1-2.1,2.3-2.1,4.1c0,1.3,0.2,2.5,1.1,3.3c1.4,1.3,2.7,2.7,4.3,3.7
	c6.7,4.1,13.5,8,20.2,12C316.8,212.5,323.6,213.6,331.4,213.5z M418.1,188.1c2-0.1,4.1,0,6-0.4c4.8-1.1,9.6-2.3,14.3-3.7
	c11.6-3.5,23.2-7.1,34.8-10.8c1.1-0.4,2.1-1.1,3.1-1.8c0.8-0.6,0.8-1.5,0-2c-1.1-0.7-2.2-1.4-3.4-2c-8.7-4.1-17.5-8.2-26.2-12.2
	c-6.4-3-12.8-5.9-19.1-8.9c-4-1.9-8.3-2.1-12.4-1c-9.3,2.5-18.5,5.3-27.8,8c-3.8,1.1-7.6,2-11.3,3.2c-2.9,0.9-5.8,1.9-8.4,3.3
	c-3.1,1.8-3.2,4.5-0.4,6.9c1.5,1.2,3,2.4,4.6,3.4c8.9,5.6,18.2,10.2,28,14.1C405.7,186.5,411.7,188.5,418.1,188.1z M177.4,204.4
	c4.9,0.1,9-1.3,13.2-2.4c3.6-0.9,7.2-2,10.7-3c6.9-1.9,13.8-3.7,20.6-5.6c6.4-1.7,12.8-3.3,19.2-5c1.3-0.4,2.7-0.9,4-1.4
	c1.8-0.7,1.9-1.4,0.5-2.4c-2.2-1.6-4.5-3.1-6.7-4.5c-9-5.7-18.1-11.2-26.9-17.2c-4.9-3.3-10.1-3.6-15.3-2.5
	c-7.8,1.7-15.5,4.1-23.2,6.1c-7.6,2-15.2,3.8-22.7,5.8c-3.6,0.9-7.1,2-10.7,3.1c-1.3,0.4-2.9,0.8-3.1,2.5c-0.2,1.5,1.3,2.1,2.3,2.9
	c10.2,7.1,20.3,14.1,30.5,21.2C172.2,203.8,174.8,204.7,177.4,204.4z M172.5,361.3c0.1,0-0.1-13.6-0.6-20.3
	c-0.4-5.5-1.5-11-2.2-16.5c-0.6-4.3-2.1-8.2-4-12c-1.2-2.6-3.2-4.7-5.4-6.5c-2.5-2-5.1-3.9-7.6-5.9c-6-4.7-12-9.4-18-14.2
	c-1.1-0.9-2.2-2.1-3.7-1.3c-1.4,0.7-1.3,2.4-1.4,3.8c0,0.1,0,0.2,0,0.3c0.2,3.5,0.4,7.1,0.7,10.6c0.7,9.9,1.4,19.8,2.1,29.6
	c0.5,7,0.9,13.9,1.3,20.9c0.2,3.1,1.4,5.5,3.8,7.6c5.5,4.8,10.8,9.8,16.2,14.6c3.8,3.4,7.5,6.8,11.3,10.1c2.5,2.2,5.6,1.5,6.9-1.6
	c0.4-1.1,0.6-2.3,0.6-3.5C172.6,371.8,172.5,366.5,172.5,361.3z M265.7,178.3c6.3,0.3,12.7-1.6,19.2-2.9c8-1.7,15.8-4,23.5-6.5
	c2.7-0.9,5.3-2,7.9-2.9c1.5-0.6,3.1-0.9,4.5-1.6c2-0.8,4.1-1.6,6-2.9c2.2-1.5,2.3-3.6,0.5-5.3c-1.4-1.4-3.2-2.5-4.9-3.4
	c-8.7-4.8-17.5-9.6-26.3-14.4c-2.4-1.3-5-2.2-7.8-1.9s-5.6,0.8-8.3,1.5c-11,2.9-21.9,5.9-32.9,8.9c-7.4,2-14.9,4.1-22.4,6.2
	c-1.3,0.4-2.9,0.7-3.1,2.4c-0.2,1.6,1.3,2.1,2.4,2.8c8.9,5.5,17.9,10.9,26.8,16.4C255.3,177.5,260.1,178.5,265.7,178.3z M176.2,410
	c-0.1-4-1.4-7.5-4.5-10.2c-1.5-1.3-2.9-2.8-4.4-4.1c-8-7-16.1-14.1-24.1-21.1c-1-0.9-2-1.7-3.1-2.4c-1.7-1.1-3.2-0.3-3.4,1.7
	c-0.1,0.7,0,1.4,0,2.1c0.1,2.7,0.3,5.5,0.5,8.2c0.8,13.9,1.7,27.9,2.4,41.8c0.2,3.8,1.5,6.7,4.2,9.3c9.8,9.4,19.4,18.9,29.2,28.3
	c0.4,0.4,0.7,0.7,1.1,1.1c0.9,0.9,2,1.4,3.3,0.9c1.3-0.6,1.2-1.7,1.2-2.8c0-2.7,0-5.5,0-8.2c0,0-0.5-11.9-0.9-17.9
	c-0.2-4.3-0.7-8.7-1-13 M347.9,156c1.6-0.2,3.2-0.3,4.8-0.7c3.2-0.8,6.4-1.6,9.6-2.6c7.2-2.1,14.5-4.1,21.7-6.3c6.6-2,13.3-4,19.9-6
	c0.9-0.3,1.7-0.6,2.5-1.1c1.3-0.9,1.2-2,0-2.9c-1-0.7-2.1-1.3-3.2-1.8c-4.9-2.3-9.9-4.6-14.8-6.9c-6.9-3.2-13.8-6.5-20.7-9.8
	c-3.4-1.6-6.9-2.2-10.6-1.2c-8.7,2.4-17.4,4.9-26.1,7.3c-5.3,1.5-10.6,2.9-15.9,4.4c-3,0.8-6,1.6-9,2.5c-1.1,0.3-2.4,0.8-2.6,2.2
	c-0.2,1.5,1.1,2,2.1,2.7c0.2,0.2,0.5,0.3,0.8,0.4c11.1,5.8,22.3,11.6,33.4,17.5C342.3,155.3,344.9,156.1,347.9,156z"/>
<g>
	<line class="st1" x1="83.6" y1="23" x2="83.6" y2="59"/>
	<line class="st1" x1="29.6" y1="77" x2="65.6" y2="77"/>
	<line class="st1" x1="29.6" y1="612" x2="65.6" y2="612"/>
	<line class="st1" x1="83.6" y1="666" x2="83.6" y2="630"/>
	<line class="st1" x1="608.1" y1="23" x2="608.1" y2="59"/>
	<line class="st1" x1="662.1" y1="77" x2="626.1" y2="77"/>
	<line class="st1" x1="662.1" y1="612" x2="626.1" y2="612"/>
	<line class="st1" x1="608.1" y1="666" x2="608.1" y2="630"/>
</g>
</svg>
