<?xml version="1.0" encoding="utf-8"?>
<!-- Generator: Adobe Illustrator 26.0.1, SVG Export Plug-In . SVG Version: 6.00 Build 0)  -->
<svg version="1.1" id="Layer_1" xmlns="http://www.w3.org/2000/svg" xmlns:xlink="http://www.w3.org/1999/xlink" x="0px" y="0px"
	 viewBox="0 0 634 631" style="enable-background:new 0 0 634 631;" xml:space="preserve">
<style type="text/css">
	.st0{fill:#FFFFFF;stroke:#000000;stroke-width:16;stroke-miterlimit:10;}
	.st1{fill:#418BB5;}
	.st2{fill:#2A5A75;}
	.st3{fill:#142B38;}
</style>
<circle class="st0" cx="314.1" cy="314.5" r="298.7"/>
<polygon class="st1" points="229.4,169.3 152.8,190 274,278.4 452.9,214 449.5,208.9 387.7,173.7 304.5,206.8 "/>
<polygon class="st1" points="298.4,200.1 378.5,178.9 380.3,173.7 324.1,144.8 317.2,144.2 247.9,169.3 "/>
<polygon class="st2" points="366.6,353.7 366.6,443 449.9,409.2 449.9,323.1 "/>
<polygon class="st1" points="146.5,198.6 157.1,380.5 227.3,440.5 271,478.5 271,555.9 261.2,553.5 213.1,505.6 204.7,500.4 
	158,453.3 153.2,449 115.7,411.4 110.7,341.1 113.3,341.1 109,332.6 104.5,257.1 106.9,250.7 103.4,243.9 98.1,174.9 102.5,172.1 
	"/>
<path class="st2" d="M278.8,282.6c-1.6,2.1-3.2,198.4-3.2,198.4l91-38v-89.3c0,0,89.5-25.7,90.4-33.7c0.8-8,7.2-97.5,7.2-97.5
	L278.8,282.6z"/>
<polygon class="st3" points="210,336.7 154.6,297.4 152.8,379.5 206.9,421.6 "/>
<path class="st2" d="M458,214.4c-16.8-11.8-135.9-72.1-135.9-72.1l-173.1,50l-42-33.8l7.2-3.6l64.6-17.3l9.5,4l3.1-7.2l71.3-19.3
	l5.9-0.1l5.4,3.4l2.1-6.6l61-17.1l55.8,24.9l0,2.6l6.3,0.4l62.1,29.2l6.8,5.2l3.8-0.2l65,29.3L458,214.4z"/>
<polygon class="st3" points="151,200.1 270.5,275.9 269,473 259.2,470.1 204.2,419.5 214.4,336.7 148.5,290.5 "/>
<path class="st3" d="M278.5,555.1c0,0,1.2,5.4,6.5,2.3s64.8-28.8,64.8-28.8l5.8-4.4l12.3-3.4l140.6-61.7l2.9-3.4l7.9-70.7l0.8-14.3
	l9.5-78.7l-2.6-7.1l2.6-6.5l10.5-80.5l-76.3,23.7l-11,103.2l-7.7,85.3l-169.9,72.7v72.4H278.5z"/>
<path d="M110.1,344c0.1-2-0.3-4.1,0.9-5.9c0.4-0.7,0.1-1.1-0.4-1.5c-1.8-1.7-2.3-3.8-2.4-6.3c-0.4-7.6-1.1-15.1-1.6-22.7
	c-0.5-7.2-0.9-14.3-1.4-21.5c-0.5-8.5-1.1-16.9-1.6-25.4c-0.1-1.8-0.1-3.6-0.2-5.5c-0.1-1.8,0.2-3.4,1.4-4.8c0.6-0.7,0.8-1.3-0.1-2
	c-1.5-1-1.7-2.7-1.8-4.3c-0.5-6.3-0.8-12.7-1.3-19c-0.7-8.6-1.5-17.3-2.2-25.9c-0.3-3.8-0.5-7.7-0.8-11.5c-0.3-4.2-0.8-8.4-1-12.7
	c-0.2-3.2-0.4-6.5-0.1-9.7c0.3-3.2,2.1-5.7,4.9-7.2c2-1.1,4.2-1.8,6.4-2.4c9.7-2.6,19.4-5,29-7.5c13.4-3.5,26.7-7.1,40.1-10.6
	c1.4-0.4,3-0.2,4.5,0.1c1,0.2,1.8,0.3,2.4-0.6c1.2-1.9,3-2.6,5.2-3.2c11.9-3.1,23.8-6.4,35.7-9.6s23.8-6.5,35.6-9.7
	c2-0.5,3.9-0.6,5.9-0.1c0.6,0.2,1.5,0.1,1.9-0.2c1.5-1.5,3.6-1.9,5.4-2.4c9.5-2.8,19.1-5.3,28.6-8.1c9.2-2.7,18.4-5.4,27.7-8.1
	c1.4-0.4,2.9-0.7,4.4-1.1c2.8-0.8,5.5-0.4,8.2,0.8c7.5,3.6,15,7.1,22.4,10.5c8.8,4.1,17.6,8.1,26.3,12.2c1.5,0.7,3.1,1.4,4.1,3
	c0.3,0.5,1.2,0.8,1.8,0.7c3.2-0.4,5.9,1,8.6,2.3c17.4,8.2,34.7,16.3,52.1,24.5c2.2,1,4.4,2,6.5,3.2c1.1,0.6,2.1,1.6,2.8,2.6
	c0.7,1.1,1.5,1.4,2.7,1.5c1.5,0.2,3,0.5,4.3,1.1c8.3,3.8,16.5,7.7,24.7,11.5c10.4,4.9,20.8,9.8,31.3,14.7c2.1,1,4.2,1.8,6.3,2.8
	c2.8,1.3,4.8,3.4,5.8,6.2c0.5,1.4,0.9,3,0.7,4.4c-0.6,5.3-1.4,10.6-2.1,15.9c-0.7,5.3-1.2,10.6-1.9,15.9c-0.4,3.6-0.9,7.2-1.4,10.8
	c-0.6,4.6-1.1,9.2-1.7,13.8c-0.7,5.3-1.5,10.5-2.2,15.8c-0.3,2.4-0.6,4.8-0.8,7.2c-0.2,2.6-0.6,5.2-2.6,7.2c-0.5,0.5-0.5,1,0,1.6
	c1.4,1.7,1.8,3.6,1.4,5.9c-0.7,5.1-1.3,10.2-1.8,15.3c-0.3,2.8-0.5,5.6-0.7,8.4c-0.1,1.3-0.4,2.5-0.6,3.8c-1,8.3-2.1,16.5-3.1,24.8
	c-0.6,5.4-1.1,10.7-1.8,16.1c-0.6,4.5-1.3,8.9-2,13.4c-0.2,1.5-0.6,2.9-2,3.9c-0.5,0.4-1.2,0.9-0.6,1.8c1.3,1.9,1.1,4.1,0.9,6.1
	c-0.4,3.5-0.9,7-1.4,10.4c-0.4,2.8-0.6,5.6-1,8.4c-0.4,3.5-1,6.9-1.2,10.4c-0.2,3-1.2,5.9-1,8.8c0.2,3.6-0.9,6.9-0.9,10.4
	c0,2.4-0.6,4.8-0.9,7.1c-0.1,0.7,0,1.5-0.1,2.1c-0.3,1.3-0.1,2.5-0.3,4c-0.3,2.7-1,5.3-0.9,8c0,2.5-0.9,3.9-3.3,5
	c-24.2,10.7-48.4,21.6-72.6,32.4c-20.8,9.3-41.6,18.6-62.4,27.9c-5,2.3-3.7,1.7-8.8,3.9c-1,0.5-8.5,4.1-9.8,3.3
	c-0.4-0.2,0,0-1.6,0.3c-3.9,4-9.1,5.4-13.9,7.6c-16.2,7.3-32.4,14.5-48.6,21.8c-3,1.3-5.9,3.1-8.9,4.3c-2.9,1.2-6,2.2-9.1,2.9
	c-1.2,0.3-2.6-0.1-3.8-0.5c-2.4-0.9-4.6-2.1-6.4-3.9c-15.9-15.9-31.8-31.7-47.7-47.6c-0.9-0.9-1.6-1.8-2.4-2.7
	c-0.7-0.7-1.4-1.6-2.2-2c-2.2-1-3.8-2.7-5.4-4.3c-10.6-10.3-21.1-20.7-31.6-31c-4.5-4.4-9.1-8.6-13.4-13.1c-1.5-1.5-2.5-3.4-3.7-5.1
	c-0.9-1.2-1.7-2.3-3.1-3.1c-1.5-0.9-2.8-2.3-4.1-3.5c-7.6-7.4-15.1-14.9-22.7-22.3c-3.2-3.1-6.4-6.2-9.5-9.3
	c-0.2-0.2-0.4-0.4-0.7-0.6c-1.8-2.1-3.3-4.1-3.4-7.2c-0.1-4.8-0.6-9.7-0.9-14.5c-0.5-8-0.9-15.9-1.3-23.9
	c-0.3-5.9-0.7-11.9-1.1-17.8C110.6,348.8,110.3,346.4,110.1,344z M284.9,351.4c0,5.1-0.1,8.6,0,12c0,1.4,0.3,2.8,0.8,4.1
	c0.3,0.7,1.2,1.5,1.9,1.6c2,0.4,5,0.5,8-0.6c3.7-1.5,7.4-2.9,11.1-4.3c2.1-0.8,4.3-1.6,6.4-2.4c1.9-0.7,3.8-1.6,5.7-2.3
	c1.9-0.8,3.8-1.5,5.8-2.2c3.3-1.3,6.6-2.8,10-3.7c2.8-0.8,5.7-2,8.3-2.9c2.7-0.9,5.4-2.2,8.2-3.2c5.1-1.8,7.8-5.6,8.4-10.7
	c0.7-5.9,0.9-11.9,1.2-17.8c0.1-2.3,0-4.6,0.2-7c0.5-7,1.2-14.1,1.6-21.1c0.3-5.9,0.4-11.9,0.5-17.9c0-1.4-0.2-2.8-0.6-4.1
	c-0.6-2.4-1.5-3-3.9-2.9c-1.4,0-2.7,0.4-4.1,0.8c-1.7,0.5-3.4,1.1-5.1,1.6c-3.1,1-6.3,2.1-9.4,3.2c-2.6,0.9-5.2,2-7.8,2.8
	c-2,0.6-4,1-6,1.6c-4,1.4-7.9,3.2-12,4.4c-4.9,1.4-9.8,3.1-14.6,4.9c-1.2,0.5-2.4,1-3.7,1.3c-6.5,1.7-9.5,6.9-9.8,11.6
	c-0.2,3-0.4,6.1-0.5,9.1c-0.1,9.7-0.2,19.4-0.3,29.1c0,0.7,0,1.4,0,2.1C285.3,343.4,285,348.3,284.9,351.4z M375.1,317.1
	c0,0,0.1,0,0.1,0c0,0.7-0.1,1.4-0.1,2.1c0.2,3-0.1,6,0.9,9c0.9,2.7,3,4.3,5.3,4.5c3.7,0.4,14.4-1.1,15.3-1.4
	c5.9-1.8,5.9-1.8,7.9-2.5c3.1-1.1,6.1-2.3,9.2-3.4c1.5-0.5,9.5-3.6,13.3-5.2c4.1-1.9,6.9-3.8,10.2-5.7c3-1.8,5.9-3.8,8-6.6
	c3.8-5,6.2-10.8,6.7-17.2c0.3-3.8,0.5-7.7,0.9-11.5c0.5-5.6,1.1-11.2,1.6-16.9c0.5-5.7,1-11.5,1.5-17.2c0.3-3.1,0.6-6.2-0.3-9.3
	c-0.3-0.9-0.7-1.3-1.6-1.4c-3.1-0.4-4.4,0.6-7.7,1.2c-1.8,0.4,1-0.2-3.3,0.8c-3,0.7-4.6,1.7-7.5,2.7c-2.9,1-5.9,1.7-8.7,2.7
	c-3,1-5.8,2.3-8.8,3.3c-4.1,1.4-8.3,2.6-12.4,4c-3.1,1.1-6.2,2.2-9.4,3.3c-3.7,1.3-7.6,2.2-11.1,3.9c-3.7,1.8-6.1,4.9-6.5,9.2
	c-0.5,6-1,12-1.4,18C376.5,294.9,375.8,306,375.1,317.1z M284.3,450.4c0,4.2,0,7.3,0,10.3c0,1.5-0.1,3,0.1,4.5
	c0.2,1.8,1.4,3.4,2.9,3.5c1.3,0.1,2.7,0.1,3.9-0.3c2.4-0.7,4.6-1.8,6.9-2.7c2.2-0.9,4.2-2.2,6.5-2.9c2.9-0.9,5.6-2.3,8.4-3.4
	c2.4-1,4.7-2,7.1-3c2.8-1.1,5.5-2.2,8.3-3.4c1.8-0.8,0,0,5.3-2.3c3.4-1.5,6.6-2.7,9.8-4.2c3.2-1.6,5.7-4.6,7.7-7.6
	c2-3.1,3.6-6.5,4.3-10.2c0.9-4.5,1.7-9,2.4-13.6c0.4-2.6,0.5-5.2,0.7-7.8c0.1-1.9,0.2-3.8,0.4-5.7c0.2-2.8,0.6-5.6,0.8-8.4
	c0.5-6.6-0.2-13.1-1.3-19.6c-0.6-3.4-2.2-6.5-6-7.6c-2.5-0.7-5.2-0.8-7.8,0.1c-4,1.4-7.9,2.9-11.8,4.4c-8.2,3-16.4,6-24.6,9.1
	c-4.3,1.6-8.5,3.5-12.9,5c-1.6,0.5-2.9,1.2-4.2,2.2c-2.4,1.8-4.3,4-4.8,7.1c-0.4,2.5-0.6,5-0.6,7.5c-0.2,6.2-0.1,12.3-0.3,18.5
	C285,430.4,284.6,441,284.3,450.4z M463.8,296.1c0,0,0.1,0,0.1,0c0,1.2-0.1,2.4,0,3.6c0.1,1.2,1.3,2.7,2.3,2.8
	c1.5,0.1,3.1,0.2,4.5-0.2c3-0.9,5.9-2.1,8.8-3.2c2.1-0.8,4.2-1.9,6.4-2.4c3.9-0.9,7.5-2.7,11.3-3.8c1.4-0.4,2.8-1.2,4.2-1.5
	c1.5-0.1,3-0.9,4.5-1.5c3-1.1,6-2.1,8.9-3.2c2.7-1,5.5-1.8,7.9-3.4c1.1-0.8,2.5-1.4,3.3-2.4c2.2-2.7,3.3-5.9,3.7-9.4
	c1-8.1,2.1-16.2,3.1-24.3c0.6-4.8,1.2-9.6,1.8-14.4c0.4-3.2,1-6.4,1.4-9.6c0.5-4.2,0.8-8.4,1.3-12.6c0.3-2.8-1.9-4.9-5-4.2
	c-2.3,0.6-4.7,1.1-7,1.7c-1.9,0.5-3.8,1.3-5.7,1.9c-2.3,0.8-4.6,1.7-7,2.4c-3.1,0.9-6.4,1.5-9.4,2.7c-4.4,1.7-8.9,3.2-13.4,4.7
	c-4,1.3-8,2.5-12,3.8c-1,0.3-2.1,0.8-2.9,1.6c-2.3,2.2-4,4.8-4.4,8.1c-0.3,2.8-0.8,5.6-1.1,8.4c-0.4,3.4-0.5,6.9-0.9,10.3
	c-0.5,4.5-1.1,9-1.6,13.5c-0.3,2.7-0.5,5.4-0.8,8.1C465.4,281.1,464.6,288.6,463.8,296.1z M283.8,533.6c0,6.6,0,11.1,0,15.7
	c0,3.6,2.9,5.7,6.4,3.9c2-1,4.1-2,6.1-2.9c5.1-2.1,10-4.6,15.2-6.7c3.5-1.4,6.7-3.4,10.2-4.8c3.6-1.4,6.8-3.5,10.4-4.8
	c4.5-1.5,8.8-3.6,13-5.8c2-1.1,4-2.6,5.3-4.4c1.7-2.2,2.5-5,2.6-7.9c0.1-5.4,0.4-10.7,0.6-16.1c0.2-4.3,0.5-8.6,0.7-13
	c0.4-7.5,0.9-14.9,1.2-22.4c0.1-1.4-0.1-2.8-0.5-4.2c-0.2-1.1-0.8-2.2-2.1-2.3c-1.3-0.1-2.7-0.3-3.9,0.1c-3.6,1.2-7.2,2.6-10.7,4.1
	c-8.9,3.7-17.7,7.6-26.6,11.4c-6.5,2.7-12.9,5.4-19.4,8.1c-5.5,2.3-7.8,6.7-7.9,12.4c-0.1,3.7-0.1,7.5-0.2,11.2
	C284.1,515.4,284,525.5,283.8,533.6z M456.6,377.9c0.1,2.5,0.2,5.7,0.4,8.9c0.1,1.1,0.4,2.2,0.7,3.2c1,2.9,3.5,4.5,6.5,4.9
	c3.2,0.4,5.9-1,8.6-2c2.5-0.8,5-2,7.5-3c2.7-1,5.4-1.9,8-2.9c3.6-1.4,7.3-2.9,10.9-4.4c4-1.6,8-3.4,12-4.8c4.5-1.5,6.5-5.1,7.3-9.2
	c1.1-5.7,1.7-11.6,2.4-17.4c1-8,1.8-16,2.7-24.1c0.8-6.3,1.7-12.6,2.6-18.9c0.2-1.9,0.4-3.8,0.3-5.7c0-1.5-0.7-3.1-2.2-3.6
	c-1.1-0.3-2.6-0.1-3.8,0.3c-2.8,0.9-5.5,2.1-8.3,3.1c-4,1.4-8.1,2.7-12.2,4.1c-2.6,0.9-5.9,1.6-8.5,2.5c-4.3,1.4-7.6,2.8-11.7,4.3
	c-1.1,0.4-2.3,1.2-3.3,1.7c-6.1,3.4-10.5,8.3-13.1,14.8c-1.9,4.9-2.9,10.1-3.7,15.2c-0.5,2.8-0.9,5.6-1.1,8.4
	c-0.2,2.9-0.3,5-0.9,8.5c0,0.2-0.1,0.6-0.1,0.6C457.8,362.3,456.9,372.1,456.6,377.9z M373.5,413.2c0.2,1.8-0.2,3.9,1,5.9
	c1.6,2.7,3.7,4.5,6.8,5.4c2.7,0.8,5.5,1.1,8,0.2c7.1-2.5,14-5.4,21-8.3c3.5-1.4,6.7-3.2,10.2-4.5c7.3-2.8,12.8-7.7,16.9-14.2
	c2.6-4.2,4.7-8.7,5.1-13.9c0.6-8.1,1.5-16.3,2.2-24.4c0.3-4.1,0.5-8.2,0.6-12.4c0-7.9-5.8-12.1-12.8-11.5c-1,0.1-1.5,0.4-3.1,0.8
	c-2.2,0.6-4.1,1.4-6.2,1.9c-0.4,0.4-1.9,0.4-5.5,2.1c-1.6,0.7-3.4,1.3-5.1,1.9c-3.4,1.3-6.1,2.6-10.1,3.8c-2.9,0.6-5.4,1.9-7.9,3.1
	c-4.4,2-8.4,4.9-11.3,8.9c-1.4,2-2.6,4.3-4,6.3c-1.4,2.1-1.9,4.5-2.7,6.8c-1.1,3-1.2,6.1-1.3,9.2c-0.1,4-0.4,8.1-0.6,12.1
	C374.2,399.3,373.9,406.1,373.5,413.2z M420.4,427.7c-3.3,1.1-6.7,2.3-9.9,3.7c-2.4,0.9-7,3.1-14.4,6c-4.4,2.6-8.9,5.1-13.3,7.7
	c-1.2,0.7-4.4,2.6-4.8,3c-2,2-3.8,4-5.4,6.3c-1.8,2.5-3.2,5.2-3.8,8.1c-1.3,7-1.8,14.1-1.8,21.3c0,0.5,0,1,0,1.5
	c-0.3,7.3-0.5,14.5-0.8,21.8c0,0-0.1,0-0.1,0c0,1.9,0,3.8,0,5.8c-0.1,3.4,2.6,5.4,5.8,4.1c2.9-1.2,5.9-2.4,8.8-3.7
	c3.8-1.8,7.6-3.6,11.5-5.3c6.8-2.9,13.5-6.1,20.1-9.3c4.3-2,8.8-3.5,13-5.7c2.3-1.2,4.7-2.1,6.7-3.6c1.5-1.1,3.1-2.8,3.7-4.6
	c1-3.1,1.3-6.5,1.6-9.8c0.5-6,0.8-12.1,1.1-18.1c0.4-7.4,0.8-14.7,1.3-22.1c0.2-2.3-1-4.3-1.5-6.4c0,0,0-0.1,0-0.1
	c-0.2-0.3-2-2.1-5.2-2.1c-2.2,0.3-4.5-0.1-6.6,0.5 M212.9,286c0,13.1-0.1,23,0,32.9c0.1,5.6,1.9,10.3,6.6,13.9
	c12.8,9.8,25.3,19.9,37.9,29.8c0.6,0.5,1.3,1,2,1.4c2.1,1.2,3.9,0.7,5-1.5c0.4-0.9,0.7-1.9,0.7-2.9c0.2-7.5,0.2-14.9,0.3-22.4
	c0.1-5.6,0.1-11.1,0.2-16.7c0-9.8,0.1-19.6,0.1-29.4c0-3.6-1.5-6.9-4.2-9c-4.2-3.5-8.7-6.5-13.2-9.6c-5.8-4-11.6-8-17.3-12
	c-4.2-2.9-8.3-6-12.6-8.8c-2.7-1.8-5.3-0.5-5.7,2.7c-0.2,1.8-0.4,3.6-0.4,5.4C212.5,269.6,212.7,279.4,212.9,286z M263.8,424.5
	c0-11.4-0.1-22.9,0-34.3c0.1-4.9-1.8-8.4-5.7-11.3c-5.4-4.1-10.6-8.5-15.9-12.8c-5.1-4.1-10.1-8.3-15.3-12.4c-1.4-1.1-2.9-2.1-4.5-3
	c-2-1.2-3.8-1-5.6,0.4c-1.6,1.2-2.5,3-2.8,4.9c-0.6,3.8-1.2,7.6-1.2,11.4c-0.1,12.6-0.7,25.3,0.5,37.9c0.2,2.6,0.6,5.2,0.9,7.8
	c0.5,4.2,2.1,8.1,3.9,12c1.4,3,3.3,5.5,5.7,7.7c10.1,9.2,20.2,18.4,30.4,27.6c1.2,1.1,2.4,2.1,3.7,3.1c2.2,1.6,4.8,0.5,5.1-2.2
	c0.1-0.6,0-1.2,0.1-1.8C263.2,447.7,263.7,424.5,263.8,424.5z M279.1,266.7c0.8-0.1,1.6-0.2,2.4-0.4c6.7-1.2,13.1-3.6,19.6-5.6
	c8-2.5,16-5.2,24-7.8c7.3-2.4,14.7-4.6,22-7c1.1-0.4,2.2-1,3.1-1.7c1.3-1,1.3-2.6,0.1-3.6c-1-0.9-2.3-1.6-3.5-2.4
	c-6.4-3.9-12.9-7.7-19.4-11.6c-7.2-4.4-14.3-8.9-21.6-13.2c-1.5-0.9-3.3-1.5-5-2c-4-1.1-8-0.6-11.9,0.5c-5.1,1.5-10.2,3-15.2,4.5
	c-8.2,2.4-16.5,4.9-24.7,7.4c-5.4,1.6-10.7,3.2-16.1,4.8c-1.5,0.5-3.1,0.9-4.4,1.8c-2.4,1.6-2.4,3-0.2,4.8c0.5,0.4,1,0.7,1.5,1.1
	c12.7,8.7,25.5,17.4,38.1,26.2C271.5,264.9,274.9,266.7,279.1,266.7z M449.5,473.3c0,0.1,0,0.8,0,1.5c0.2,3,1.4,4.2,4.4,3.9
	c1.2-0.1,2.4-0.5,3.4-0.9c3-1.2,5.9-2.6,8.9-3.9c3.7-1.6,7.5-3.1,11.2-4.7c5-2.1,9.9-4.3,14.9-6.5c2.8-1.2,5.7-2.3,8.5-3.6
	c1.9-0.9,4.1-1.6,5.6-3c1.9-2,3.4-4.5,3.8-7.4c0.4-2.7,0.8-5.4,1.1-8.1c1.2-11.2,1.9-22.5,3.7-33.6c0.7-4,0.7-8,1-12.1
	c0.1-0.8,0-1.6-0.2-2.4c-0.4-1.4-2.1-2.5-3.2-2.1c-4.4,1.6-8.8,3.2-13.2,4.9c-3.6,1.4-7.1,3-10.7,4.4c-4.4,1.8-8.9,3.4-13.2,5.2
	c-4.5,1.9-8.9,3.8-13.4,5.8c-4.2,1.9-7.2,5-7.8,9.8c-0.6,5-1.2,10-1.7,15c-0.8,8.7-1.5,17.5-2.2,26.2
	C450.1,465.3,449.8,469,449.5,473.3z M386.8,184.2c-1.7,0.2-4.7,0.3-7.7,1c-8.2,2-16.4,4.3-24.6,6.2c-8.3,2-16.6,4.1-24.4,7.9
	c-2.5,1.2-5.1,2.5-7.3,4.2c-2.3,1.8-1.9,3.4,0.5,5c3.7,2.3,7.3,4.6,11,6.9c10.7,6.7,21.4,13.4,32.1,20.1c1.8,1.1,3.4,1,5.7,0.5
	c4.5-0.9,18.6-6.1,26.7-8.6c10-3.2,20.1-6.5,30.1-9.7c4.9-1.6,9.8-3.2,14.6-4.7c1.3-0.4,2.6-1.1,2.6-2.6c0-1.4-1.3-2.1-2.5-2.7
	c-5.2-2.6-10.5-5.1-15.7-7.8c-7.7-4-14.3-7.8-22.9-12.2c-0.2-0.2-0.5-0.3-0.8-0.4C399.2,185.2,393.8,184.2,386.8,184.2z
	 M202.9,279.9c0-1.9,0.1-4.1,0-6.3c-0.3-7.7-0.8-15.3-1-23c-0.1-3.2-0.9-6.2-2.5-8.9c-0.5-0.8-1.2-1.7-2-2.2
	c-4.1-2.9-8.2-5.8-12.4-8.7c-9.3-6.4-18.7-12.9-28-19.4c-1.5-1.1-2.9-1.3-4.5-0.5c-1.6,0.7-1.7,2.1-1.7,3.6c0.1,2.7,0.3,5.4,0.4,8.2
	c0.3,7.3,0.5,14.5,0.8,21.8c0.3,7.8,0.7,15.6,1.2,23.3c0.2,3,0.9,6,1.7,8.9c1.4,5.4,4.7,9.8,8.3,13.9c5.9,6.6,12.9,11.8,19.9,17
	c3.6,2.7,7.5,5,11.8,6.6c2.5,1,4.6,0.4,6.1-1.9c0.8-1.2,1.5-2.7,1.7-4.1c0.4-2.9,0.7-5.8,0.6-8.7
	C203.4,292.9,203.1,286.6,202.9,279.9z M213.8,223.8c1.7-0.2,3.4-0.1,5.1-0.6c5.1-1.3,10.3-2.9,15.4-4.3c6.5-1.8,13-3.6,19.5-5.4
	c5.4-1.5,10.9-2.9,16.2-4.7c2.5-0.8,5-1.5,6.9-3.5c2.1-2.2,2.2-5,0-7c-2.8-2.5-5.6-4.9-8.6-7.1c-6.6-4.6-13.5-8.7-20.7-12.2
	c-3.9-1.9-7.8-3.6-12.1-4.4c-4.2-0.8-8.4-1.2-12.6-0.7c-4,0.5-7.9,1.5-11.8,2.4c-1.2,0.3-2.3,0.8-3.5,1.1
	c-5.4,1.4-10.9,2.8-16.3,4.3c-5.4,1.4-10.9,2.8-16.3,4.3c-2.9,0.8-5.8,1.5-8.6,2.6c-3,1.2-3.2,3.4-0.4,5.3
	c12.8,8.9,25.6,17.8,38.4,26.8C207.1,222.8,210.1,224.1,213.8,223.8z M263.9,515.8C263.9,515.8,263.9,515.8,263.9,515.8
	c0-3,0-6.1,0-9.1c0-6.7-0.1-13.3,0-20c0.1-3.2-1.2-5.7-3.2-7.9c-1.9-2.1-3.9-4.1-6-6c-5.4-4.9-10.7-9.8-16.1-14.6
	c-6.2-5.6-12.5-11.1-18.8-16.6c-0.4-0.4-1-0.7-1.5-0.8c-2.1-0.4-3.5,0.5-3.7,2.9c-0.3,3.2-0.2,6.4-0.2,9.7
	c0.2,11.6,0.4,23.2,0.6,34.9c0.1,4.6,0.1,9.3,0.2,14c0.1,2.5,1.1,4.6,2.9,6.4c13.1,13,26.2,26.1,39.3,39.2c0.6,0.6,1.3,1.3,2,1.8
	c0.9,0.7,1.8,0.7,2.7-0.1c1.4-1.1,1.8-2.5,1.8-4.3C263.9,535.4,263.9,525.6,263.9,515.8z M464,205.4c1.3,0,2.7,0.2,3.9-0.1
	c2.5-0.6,5-1.5,7.5-2.3c9.3-2.9,18.6-5.8,27.9-8.7c6.3-2,12.6-4.1,18.9-6.2c1.1-0.4,2.3-0.8,3.4-1.3c1.9-1.1,1.9-2.5,0.2-3.7
	c-0.5-0.3-1-0.6-1.6-0.9c-7.9-3.7-15.8-7.5-23.7-11.2c-7.9-3.7-15.9-7.4-23.8-11c-4.1-1.9-8.2-2.6-12.6-1.3
	c-4.8,1.4-9.6,2.8-14.4,4.2c-5.8,1.7-11.5,3.5-17.3,5.2c-6.4,1.9-12.9,3.8-19.4,5.7c-1.4,0.4-2.7,0.7-4,1.3
	c-2.3,1.1-2.5,3.2-0.4,4.7c0.8,0.5,1.6,0.9,2.4,1.3c7.5,3.8,15.1,7.5,22.6,11.3c7.4,3.7,14.7,7.4,22,11.2
	C458.2,205,461,205.7,464,205.4z M206.6,460.6c-0.1-6.9-0.3-13.7-0.6-20.6c-0.1-1.5-0.3-3.1-1-4.4c-1.7-3.5-3.5-7.1-5.7-10.2
	c-2.6-3.6-5.5-7-8.6-10c-4.4-4.4-9-8.5-13.8-12.5c-3.4-2.8-7.1-5.2-10.9-7.5c-2.5-1.6-4.8-0.9-6.5,1.6c-0.9,1.4-1.4,2.9-1.3,4.6
	c0.2,4.8,0.7,9.7,0.5,14.5c-0.2,7.6,0.9,15.1,0.4,22.7c-0.3,3.4,0.1,6.9,0.4,10.3c0.3,3.5,1.5,6.7,4,9.2c7.7,7.5,15.4,15,23.1,22.5
	c3.8,3.6,7.5,7.2,11.4,10.8c1.2,1.2,2.6,2.2,3.9,3.3c1.2,1,2.7,1,4,0.6c1.3-0.4,0.7-1.9,0.9-2.9c0.1-0.6,0-1.2,0-1.8
	c0-6.6,0-13.1,0-19.7 M203.2,366.3c-0.2-12.3-2.2-20.8-6.4-28.8c-2-3.8-4.4-7.4-7.9-10.1c-6.7-5.1-13.2-10.5-19.8-15.6
	c-1.3-1-2.9-1.9-4.4-2.6c-1.1-0.5-2.2-0.4-3.4,0.2c-3,1.4-3.6,4.1-4.3,6.8c-0.7,2.9-0.1,5.8,0,8.7c0.2,5.6,0.3,11.1,0.6,16.6
	c0.3,5.6,0.8,11.2,1.2,16.9c0.6,8,3.7,15.1,8.1,21.8c2,3,4.7,5.2,7.3,7.6c5.5,4.8,11,9.6,16.5,14.3c1.3,1.1,2.8,1.9,4.2,2.8
	c2.7,1.8,5.2,0.3,6.8-1.8c0.6-0.8,1-1.8,1.3-2.7c1.3-3.7,1.3-7.5,1.2-11.3C203.8,380.4,203.4,371.7,203.2,366.3z M146,270.5
	c-0.2-2.9-0.4-5.8-0.6-8.8c-0.3-5.2-0.4-10.5-0.8-15.7c-0.7-11.4-1.5-22.8-2.3-34.2c-0.4-5-1.9-9.3-6.6-12.2
	c-6.1-3.9-11.9-8.2-17.9-12.3c-4.3-3-8.6-5.9-12.9-8.8c-2.3-1.5-3.7-1.1-4.6,1.5c-0.2,0.7-0.4,1.4-0.4,2.1c0,1.4,0,2.8,0.1,4.2
	c0.7,8.1,1.5,16.1,2.1,24.1c0.8,9.7,1.4,19.4,2,29c0.1,1.5,0.2,3,0.6,4.5c0.8,3.3,2.2,6.2,5,8.4c10,7.6,20.1,15.3,30.1,23
	c0.8,0.6,1.7,1.2,2.6,1.5c1.4,0.6,2.4,0.2,2.8-1.3C145.8,273.9,146.1,270.5,146,270.5z M307.3,193.3c7.1,0.3,14.4-1.7,21.6-3.8
	c5.9-1.7,11.8-3.5,17.6-5.4c4-1.3,8-2.6,11.9-4.2c1.4-0.6,2.7-1.8,3.7-3c1.8-2.2,1.4-4.9-0.8-6.7c-1.3-1.1-2.7-2.1-4.2-2.9
	c-5.8-3.2-11.7-6.3-17.6-9.4c-1.5-0.8-3.1-1.6-4.6-2.3c-5-2.6-10.4-3.9-16-3.9c-3.8,0-7.8-0.4-11.5,0.2c-5,0.8-9.8,2.2-14.7,3.6
	c-7.3,2.1-14.5,4.4-21.7,6.4c-2.9,0.8-5.7,2-8.2,3.7c-1.5,1-2.1,2.3-2.1,4.1c0,1.3,0.2,2.5,1.1,3.3c1.4,1.3,2.7,2.7,4.3,3.7
	c6.7,4.1,13.5,8,20.2,12C292.7,192.3,299.5,193.4,307.3,193.3z M394,167.9c2-0.1,4.1,0,6-0.4c4.8-1.1,9.6-2.3,14.3-3.7
	c11.6-3.5,23.2-7.1,34.8-10.8c1.1-0.4,2.1-1.1,3.1-1.8c0.8-0.6,0.8-1.5,0-2c-1.1-0.7-2.2-1.4-3.4-2c-8.7-4.1-17.5-8.2-26.2-12.2
	c-6.4-3-12.8-5.9-19.1-8.9c-4-1.9-8.3-2.1-12.4-1c-9.3,2.5-18.5,5.3-27.8,8c-3.8,1.1-7.6,2-11.3,3.2c-2.9,0.9-5.8,1.9-8.4,3.3
	c-3.1,1.8-3.2,4.5-0.4,6.9c1.5,1.2,3,2.4,4.6,3.4c8.9,5.6,18.2,10.2,28,14.1C381.6,166.3,387.6,168.3,394,167.9z M153.3,184.2
	c4.9,0.1,9-1.3,13.2-2.4c3.6-0.9,7.2-2,10.7-3c6.9-1.9,13.8-3.7,20.6-5.6c6.4-1.7,12.8-3.3,19.2-5c1.3-0.4,2.7-0.9,4-1.4
	c1.8-0.7,1.9-1.4,0.5-2.4c-2.2-1.6-4.5-3.1-6.7-4.5c-9-5.7-18.1-11.2-26.9-17.2c-4.9-3.3-10.1-3.6-15.3-2.5
	c-7.8,1.7-15.5,4.1-23.2,6.1c-7.6,2-15.2,3.8-22.7,5.8c-3.6,0.9-7.1,2-10.7,3.1c-1.3,0.4-2.9,0.8-3.1,2.5c-0.2,1.5,1.3,2.1,2.3,2.9
	c10.2,7.1,20.3,14.1,30.5,21.2C148.1,183.6,150.7,184.5,153.3,184.2z M148.4,341.1c0.1,0-0.1-13.6-0.6-20.3
	c-0.4-5.5-1.5-11-2.2-16.5c-0.6-4.3-2.1-8.2-4-12c-1.2-2.6-3.2-4.7-5.4-6.5c-2.5-2-5.1-3.9-7.6-5.9c-6-4.7-12-9.4-18-14.2
	c-1.1-0.9-2.2-2.1-3.7-1.3c-1.4,0.7-1.3,2.4-1.4,3.8c0,0.1,0,0.2,0,0.3c0.2,3.5,0.4,7.1,0.7,10.6c0.7,9.9,1.4,19.8,2.1,29.6
	c0.5,7,0.9,13.9,1.3,20.9c0.2,3.1,1.4,5.5,3.8,7.6c5.5,4.8,10.8,9.8,16.2,14.6c3.8,3.4,7.5,6.8,11.3,10.1c2.5,2.2,5.6,1.5,6.9-1.6
	c0.4-1.1,0.6-2.3,0.6-3.5C148.5,351.6,148.4,346.3,148.4,341.1z M241.6,158.1c6.3,0.3,12.7-1.6,19.2-2.9c8-1.7,15.8-4,23.5-6.5
	c2.7-0.9,5.3-2,7.9-2.9c1.5-0.6,3.1-0.9,4.5-1.6c2-0.8,4.1-1.6,6-2.9c2.2-1.5,2.3-3.6,0.5-5.3c-1.4-1.4-3.2-2.5-4.9-3.4
	c-8.7-4.8-17.5-9.6-26.3-14.4c-2.4-1.3-5-2.2-7.8-1.9c-2.8,0.3-5.6,0.8-8.3,1.5c-11,2.9-21.9,5.9-32.9,8.9c-7.4,2-14.9,4.1-22.4,6.2
	c-1.3,0.4-2.9,0.7-3.1,2.4c-0.2,1.6,1.3,2.1,2.4,2.8c8.9,5.5,17.9,10.9,26.8,16.4C231.2,157.3,236,158.3,241.6,158.1z M152.1,389.8
	c-0.1-4-1.4-7.5-4.5-10.2c-1.5-1.3-2.9-2.8-4.4-4.1c-8-7-16.1-14.1-24.1-21.1c-1-0.9-2-1.7-3.1-2.4c-1.7-1.1-3.2-0.3-3.4,1.7
	c-0.1,0.7,0,1.4,0,2.1c0.1,2.7,0.3,5.5,0.5,8.2c0.8,13.9,1.7,27.9,2.4,41.8c0.2,3.8,1.5,6.7,4.2,9.3c9.8,9.4,19.4,18.9,29.2,28.3
	c0.4,0.4,0.7,0.7,1.1,1.1c0.9,0.9,2,1.4,3.3,0.9c1.3-0.6,1.2-1.7,1.2-2.8c0-2.7,0-5.5,0-8.2c0,0-0.5-11.9-0.9-17.9
	c-0.2-4.3-0.7-8.7-1-13 M323.8,135.8c1.6-0.2,3.2-0.3,4.8-0.7c3.2-0.8,6.4-1.6,9.6-2.6c7.2-2.1,14.5-4.1,21.7-6.3
	c6.6-2,13.3-4,19.9-6c0.9-0.3,1.7-0.6,2.5-1.1c1.3-0.9,1.2-2,0-2.9c-1-0.7-2.1-1.3-3.2-1.8c-4.9-2.3-9.9-4.6-14.8-6.9
	c-6.9-3.2-13.8-6.5-20.7-9.8c-3.4-1.6-6.9-2.2-10.6-1.2c-8.7,2.4-17.4,4.9-26.1,7.3c-5.3,1.5-10.6,2.9-15.9,4.4c-3,0.8-6,1.6-9,2.5
	c-1.1,0.3-2.4,0.8-2.6,2.2c-0.2,1.5,1.1,2,2.1,2.7c0.2,0.2,0.5,0.3,0.8,0.4c11.1,5.8,22.3,11.6,33.4,17.5
	C318.2,135.1,320.8,135.9,323.8,135.8z"/>
</svg>
