<?xml version="1.0" encoding="utf-8"?>
<!-- Generator: Adobe Illustrator 26.0.1, SVG Export Plug-In . SVG Version: 6.00 Build 0)  -->
<svg version="1.1" id="Layer_1" xmlns="http://www.w3.org/2000/svg" xmlns:xlink="http://www.w3.org/1999/xlink" x="0px" y="0px"
	 viewBox="0 0 1728 359.1" style="enable-background:new 0 0 1728 359.1;" xml:space="preserve">
<style type="text/css">
	.st0{enable-background:new    ;}
	.st1{fill:#FFFFFF;}
</style>
<g class="st0">
	<path d="M286.6,309.1h-60V206.9H110.7v102.2H50.2v-265h60.5V138h115.9V44.1h60V309.1z"/>
	<path d="M827.1,299.2L707.8,153.5v155.6h-54.7V89.3c0-35.2,15.7-49.5,32.9-49.5c7.3,0,14.6,2.4,24.2,14.3l119.3,145.7V44.2h55
		v219.4c0,35.2-15.7,49.9-33.2,49.9C843.7,313.5,836.4,311.1,827.1,299.2z"/>
	<path d="M1100.5,149.9c47.4,0,73.1,24.2,73.1,72.5c0,54.3-24.2,86.7-83.5,86.7H908.7l38.7-68.1h147.3c14.3,0,20.7-5.5,20.7-19.4
		c0-13.5-6.4-19-20.7-19h-106c-50.1,0-73.1-30.5-73.1-76c0-49.9,24.5-82.4,83.5-82.4h169.1l-38.7,68.9H994.4
		c-14,0-20.7,4.8-20.7,18.2c0,13.5,6.7,18.6,20.7,18.6L1100.5,149.9L1100.5,149.9z"/>
	<path d="M1426.5,241l-38.7,68.1h-187.5v-265h225.6l-39,68.9h-126v31.7h154.3l-34.6,60.2H1261v36h165.5L1426.5,241L1426.5,241z"/>
	<path d="M1620.4,299.2l-119.3-145.7v155.6h-54.7V89.3c0-35.2,15.7-49.5,32.9-49.5c7.3,0,14.6,2.4,24.2,14.3l119.3,145.7V44.2h55
		v219.4c0,35.2-15.7,49.9-33.2,49.9C1637,313.5,1629.7,311.1,1620.4,299.2z"/>
</g>
<polygon class="st1" points="405.5,74.6 352.1,89 436.6,150.7 561.4,105.8 559,102.2 515.9,77.7 457.9,100.8 "/>
<polygon class="st1" points="453.7,96.1 509.5,81.3 510.8,77.7 471.6,57.5 466.8,57.1 418.4,74.6 "/>
<polygon class="st1" points="501.2,203.2 501.2,265.5 559.3,241.9 559.3,181.8 "/>
<polygon class="st1" points="347.7,95 355.1,221.9 404.1,263.7 434.6,290.2 434.6,344.2 427.7,342.5 394.2,309.1 388.3,305.5 
	355.8,272.6 352.4,269.6 326.3,243.4 322.8,194.4 324.6,194.4 321.6,188.5 318.5,135.8 320.1,131.4 317.7,126.6 314,78.5 
	317.1,76.6 "/>
<path class="st1" d="M440,153.6c-1.1,1.5-2.2,138.3-2.2,138.3l63.5-26.5v-62.3c0,0,62.4-17.9,63-23.5c0.6-5.6,5-68,5-68L440,153.6z"
	/>
<polygon class="st1" points="392,191.3 353.4,163.9 352.1,221.2 389.9,250.5 "/>
<path class="st1" d="M564.9,106.1c-11.7-8.2-94.8-50.3-94.8-50.3L349.5,90.6l-29.3-23.6l5-2.5l45-12.1l6.6,2.8l2.2-5l49.7-13.5
	l4.1-0.1l3.8,2.4l1.5-4.6l42.5-11.9L519.6,40v1.8l4.4,0.3l43.3,20.4L572,66l2.6-0.1L620,86.3L564.9,106.1z"/>
<polygon class="st1" points="350.9,96.1 434.2,148.9 433.2,286.4 426.3,284.3 388,249.1 395.1,191.3 349.1,159.1 "/>
<path class="st1" d="M439.8,343.6c0,0,0.8,3.8,4.5,1.6s45.2-20.1,45.2-20.1l4-3.1l8.6-2.4l98-43l2-2.4l5.5-49.3l0.6-10l6.6-54.9
	l-1.8-5l1.8-4.5l7.3-56.1L569,111.1l-7.7,72l-5.4,59.5l-118.5,50.7v50.5L439.8,343.6L439.8,343.6z"/>
<path d="M322.4,196.4c0.1-1.4-0.2-2.9,0.6-4.1c0.3-0.5,0.1-0.8-0.3-1c-1.3-1.2-1.6-2.6-1.7-4.4c-0.3-5.3-0.8-10.5-1.1-15.8
	c-0.3-5-0.6-10-1-15c-0.3-5.9-0.8-11.8-1.1-17.7c-0.1-1.3-0.1-2.5-0.1-3.8c-0.1-1.3,0.1-2.4,1-3.3c0.4-0.5,0.6-0.9-0.1-1.4
	c-1-0.7-1.2-1.9-1.3-3c-0.3-4.4-0.6-8.9-0.9-13.2c-0.5-6-1-12.1-1.5-18.1c-0.2-2.6-0.3-5.4-0.6-8c-0.2-2.9-0.6-5.9-0.7-8.9
	c-0.1-2.2-0.3-4.5-0.1-6.8c0.2-2.2,1.5-4,3.4-5c1.4-0.8,2.9-1.3,4.5-1.7c6.8-1.8,13.5-3.5,20.2-5.2c9.3-2.4,18.6-5,28-7.4
	c1-0.3,2.1-0.1,3.1,0.1c0.7,0.1,1.3,0.2,1.7-0.4c0.8-1.3,2.1-1.8,3.6-2.2c8.3-2.2,16.6-4.5,24.9-6.7c8.3-2.2,16.6-4.5,24.8-6.8
	c1.4-0.3,2.7-0.4,4.1-0.1c0.4,0.1,1,0.1,1.3-0.1c1-1,2.5-1.3,3.8-1.7c6.6-2,13.3-3.7,19.9-5.6c6.4-1.9,12.8-3.8,19.3-5.6
	c1-0.3,2-0.5,3.1-0.8c2-0.6,3.8-0.3,5.7,0.6c5.2,2.5,10.5,5,15.6,7.3c6.1,2.9,12.3,5.6,18.3,8.5c1,0.5,2.2,1,2.9,2.1
	c0.2,0.3,0.8,0.6,1.3,0.5c2.2-0.3,4.1,0.7,6,1.6c12.1,5.7,24.2,11.4,36.3,17.1c1.5,0.7,3.1,1.4,4.5,2.2c0.8,0.4,1.5,1.1,2,1.8
	c0.5,0.8,1,1,1.9,1c1,0.1,2.1,0.3,3,0.8c5.8,2.6,11.5,5.4,17.2,8c7.3,3.4,14.5,6.8,21.8,10.2c1.5,0.7,2.9,1.3,4.4,2
	c2,0.9,3.3,2.4,4,4.3c0.3,1,0.6,2.1,0.5,3.1c-0.4,3.7-1,7.4-1.5,11.1c-0.5,3.7-0.8,7.4-1.3,11.1c-0.3,2.5-0.6,5-1,7.5
	c-0.4,3.2-0.8,6.4-1.2,9.6c-0.5,3.7-1,7.3-1.5,11c-0.2,1.7-0.4,3.3-0.6,5c-0.1,1.8-0.4,3.6-1.8,5c-0.3,0.3-0.3,0.7,0,1.1
	c1,1.2,1.3,2.5,1,4.1c-0.5,3.6-0.9,7.1-1.3,10.7c-0.2,2-0.3,3.9-0.5,5.9c-0.1,0.9-0.3,1.7-0.4,2.6c-0.7,5.8-1.5,11.5-2.2,17.3
	c-0.4,3.8-0.8,7.5-1.3,11.2c-0.4,3.1-0.9,6.2-1.4,9.3c-0.1,1-0.4,2-1.4,2.7c-0.3,0.3-0.8,0.6-0.4,1.3c0.9,1.3,0.8,2.9,0.6,4.3
	c-0.3,2.4-0.6,4.9-1,7.3c-0.3,2-0.4,3.9-0.7,5.9c-0.3,2.4-0.7,4.8-0.8,7.3c-0.1,2.1-0.8,4.1-0.7,6.1c0.1,2.5-0.6,4.8-0.6,7.3
	c0,1.7-0.4,3.3-0.6,5c-0.1,0.5,0,1-0.1,1.5c-0.2,0.9-0.1,1.7-0.2,2.8c-0.2,1.9-0.7,3.7-0.6,5.6c0,1.7-0.6,2.7-2.3,3.5
	c-16.9,7.5-33.7,15.1-50.6,22.6c-14.5,6.5-29,13-43.5,19.5c-3.5,1.6-2.6,1.2-6.1,2.7c-0.7,0.3-5.9,2.9-6.8,2.3c-0.3-0.1,0,0-1.1,0.2
	c-2.7,2.8-6.3,3.8-9.7,5.3c-11.3,5.1-22.6,10.1-33.9,15.2c-2.1,0.9-4.1,2.2-6.2,3c-2,0.8-4.2,1.5-6.3,2c-0.8,0.2-1.8-0.1-2.6-0.3
	c-1.7-0.6-3.2-1.5-4.5-2.7c-11.1-11.1-22.2-22.1-33.3-33.2c-0.6-0.6-1.1-1.3-1.7-1.9c-0.5-0.5-1-1.1-1.5-1.4c-1.5-0.7-2.6-1.9-3.8-3
	c-7.4-7.2-14.7-14.4-22-21.6c-3.1-3.1-6.3-6-9.3-9.1c-1-1-1.7-2.4-2.6-3.6c-0.6-0.8-1.2-1.6-2.2-2.2c-1-0.6-2-1.6-2.9-2.4
	c-5.3-5.2-10.5-10.4-15.8-15.5c-2.2-2.2-4.5-4.3-6.6-6.5c-0.1-0.1-0.3-0.3-0.5-0.4c-1.3-1.5-2.3-2.9-2.4-5
	c-0.1-3.3-0.4-6.8-0.6-10.1c-0.3-5.6-0.6-11.1-0.9-16.7c-0.2-4.1-0.5-8.3-0.8-12.4C322.7,199.8,322.5,198.1,322.4,196.4z
	 M444.2,201.6c0,3.6-0.1,6,0,8.4c0,1,0.2,2,0.6,2.9c0.2,0.5,0.8,1,1.3,1.1c1.4,0.3,3.5,0.3,5.6-0.4c2.6-1,5.2-2,7.7-3
	c1.5-0.6,3-1.1,4.5-1.7c1.3-0.5,2.6-1.1,4-1.6c1.3-0.6,2.6-1,4-1.5c2.3-0.9,4.6-2,7-2.6c2-0.6,4-1.4,5.8-2c1.9-0.6,3.8-1.5,5.7-2.2
	c3.6-1.3,5.4-3.9,5.9-7.5c0.5-4.1,0.6-8.3,0.8-12.4c0.1-1.6,0-3.2,0.1-4.9c0.3-4.9,0.8-9.8,1.1-14.7c0.2-4.1,0.3-8.3,0.3-12.5
	c0-1-0.1-2-0.4-2.9c-0.4-1.7-1-2.1-2.7-2c-1,0-1.9,0.3-2.9,0.6c-1.2,0.3-2.4,0.8-3.6,1.1c-2.2,0.7-4.4,1.5-6.6,2.2
	c-1.8,0.6-3.6,1.4-5.4,2c-1.4,0.4-2.8,0.7-4.2,1.1c-2.8,1-5.5,2.2-8.4,3.1c-3.4,1-6.8,2.2-10.2,3.4c-0.8,0.3-1.7,0.7-2.6,0.9
	c-4.5,1.2-6.6,4.8-6.8,8.1c-0.1,2.1-0.3,4.3-0.3,6.3c-0.1,6.8-0.1,13.5-0.2,20.3c0,0.5,0,1,0,1.5C444.5,196,444.3,199.4,444.2,201.6
	z M507.1,177.7L507.1,177.7c0.1,0.5,0,1,0,1.5c0.1,2.1-0.1,4.2,0.6,6.3c0.6,1.9,2.1,3,3.7,3.1c2.6,0.3,10-0.8,10.7-1
	c4.1-1.3,4.1-1.3,5.5-1.7c2.2-0.8,4.3-1.6,6.4-2.4c1-0.3,6.6-2.5,9.3-3.6c2.9-1.3,4.8-2.6,7.1-4c2.1-1.3,4.1-2.6,5.6-4.6
	c2.6-3.5,4.3-7.5,4.7-12c0.2-2.6,0.3-5.4,0.6-8c0.3-3.9,0.8-7.8,1.1-11.8c0.3-4,0.7-8,1-12c0.2-2.2,0.4-4.3-0.2-6.5
	c-0.2-0.6-0.5-0.9-1.1-1c-2.2-0.3-3.1,0.4-5.4,0.8c-1.3,0.3,0.7-0.1-2.3,0.6c-2.1,0.5-3.2,1.2-5.2,1.9c-2,0.7-4.1,1.2-6.1,1.9
	c-2.1,0.7-4,1.6-6.1,2.3c-2.9,1-5.8,1.8-8.6,2.8c-2.2,0.8-4.3,1.5-6.6,2.3c-2.6,0.9-5.3,1.5-7.7,2.7c-2.6,1.3-4.3,3.4-4.5,6.4
	c-0.3,4.2-0.7,8.4-1,12.6C508.1,162.2,507.6,169.9,507.1,177.7z M443.8,270.6c0,2.9,0,5.1,0,7.2c0,1-0.1,2.1,0.1,3.1
	c0.1,1.3,1,2.4,2,2.4c0.9,0.1,1.9,0.1,2.7-0.2c1.7-0.5,3.2-1.3,4.8-1.9c1.5-0.6,2.9-1.5,4.5-2c2-0.6,3.9-1.6,5.9-2.4
	c1.7-0.7,3.3-1.4,5-2.1c2-0.8,3.8-1.5,5.8-2.4c1.3-0.6,0,0,3.7-1.6c2.4-1,4.6-1.9,6.8-2.9c2.2-1.1,4-3.2,5.4-5.3
	c1.4-2.2,2.5-4.5,3-7.1c0.6-3.1,1.2-6.3,1.7-9.5c0.3-1.8,0.3-3.6,0.5-5.4c0.1-1.3,0.1-2.6,0.3-4c0.1-2,0.4-3.9,0.6-5.9
	c0.3-4.6-0.1-9.1-0.9-13.7c-0.4-2.4-1.5-4.5-4.2-5.3c-1.7-0.5-3.6-0.6-5.4,0.1c-2.8,1-5.5,2-8.2,3.1c-5.7,2.1-11.4,4.2-17.2,6.3
	c-3,1.1-5.9,2.4-9,3.5c-1.1,0.3-2,0.8-2.9,1.5c-1.7,1.3-3,2.8-3.3,5c-0.3,1.7-0.4,3.5-0.4,5.2c-0.1,4.3-0.1,8.6-0.2,12.9
	C444.3,256.7,444,264.1,443.8,270.6z M569,163L569,163c0.1,0.8,0,1.7,0.1,2.5c0.1,0.8,0.9,1.9,1.6,2c1,0.1,2.2,0.1,3.1-0.1
	c2.1-0.6,4.1-1.5,6.1-2.2c1.5-0.6,2.9-1.3,4.5-1.7c2.7-0.6,5.2-1.9,7.9-2.6c1-0.3,2-0.8,2.9-1c1-0.1,2.1-0.6,3.1-1
	c2.1-0.8,4.2-1.5,6.2-2.2c1.9-0.7,3.8-1.3,5.5-2.4c0.8-0.6,1.7-1,2.3-1.7c1.5-1.9,2.3-4.1,2.6-6.6c0.7-5.6,1.5-11.3,2.2-16.9
	c0.4-3.3,0.8-6.7,1.3-10c0.3-2.2,0.7-4.5,1-6.7c0.3-2.9,0.6-5.9,0.9-8.8c0.2-2-1.3-3.4-3.5-2.9c-1.6,0.4-3.3,0.8-4.9,1.2
	c-1.3,0.3-2.6,0.9-4,1.3c-1.6,0.6-3.2,1.2-4.9,1.7c-2.2,0.6-4.5,1-6.6,1.9c-3.1,1.2-6.2,2.2-9.3,3.3c-2.8,0.9-5.6,1.7-8.4,2.6
	c-0.7,0.2-1.5,0.6-2,1.1c-1.6,1.5-2.8,3.3-3.1,5.6c-0.2,2-0.6,3.9-0.8,5.9c-0.3,2.4-0.3,4.8-0.6,7.2c-0.3,3.1-0.8,6.3-1.1,9.4
	c-0.2,1.9-0.3,3.8-0.6,5.6C570.1,152.6,569.5,157.8,569,163z M443.5,328.6c0,4.6,0,7.7,0,10.9c0,2.5,2,4,4.5,2.7
	c1.4-0.7,2.9-1.4,4.3-2c3.6-1.5,7-3.2,10.6-4.7c2.4-1,4.7-2.4,7.1-3.3c2.5-1,4.7-2.4,7.3-3.3c3.1-1,6.1-2.5,9.1-4
	c1.4-0.8,2.8-1.8,3.7-3.1c1.2-1.5,1.7-3.5,1.8-5.5c0.1-3.8,0.3-7.5,0.4-11.2c0.1-3,0.3-6,0.5-9.1c0.3-5.2,0.6-10.4,0.8-15.6
	c0.1-1-0.1-2-0.3-2.9c-0.1-0.8-0.6-1.5-1.5-1.6c-0.9-0.1-1.9-0.2-2.7,0.1c-2.5,0.8-5,1.8-7.5,2.9c-6.2,2.6-12.3,5.3-18.5,7.9
	c-4.5,1.9-9,3.8-13.5,5.6c-3.8,1.6-5.4,4.7-5.5,8.6c-0.1,2.6-0.1,5.2-0.1,7.8C443.7,315.9,443.6,323,443.5,328.6z M564,220.1
	c0.1,1.7,0.1,4,0.3,6.2c0.1,0.8,0.3,1.5,0.5,2.2c0.7,2,2.4,3.1,4.5,3.4c2.2,0.3,4.1-0.7,6-1.4c1.7-0.6,3.5-1.4,5.2-2.1
	c1.9-0.7,3.8-1.3,5.6-2c2.5-1,5.1-2,7.6-3.1c2.8-1.1,5.6-2.4,8.4-3.3c3.1-1,4.5-3.6,5.1-6.4c0.8-4,1.2-8.1,1.7-12.1
	c0.7-5.6,1.3-11.2,1.9-16.8c0.6-4.4,1.2-8.8,1.8-13.2c0.1-1.3,0.3-2.6,0.2-4c0-1-0.5-2.2-1.5-2.5c-0.8-0.2-1.8-0.1-2.6,0.2
	c-2,0.6-3.8,1.5-5.8,2.2c-2.8,1-5.6,1.9-8.5,2.9c-1.8,0.6-4.1,1.1-5.9,1.7c-3,1-5.3,2-8.2,3c-0.8,0.3-1.6,0.8-2.3,1.2
	c-4.3,2.4-7.3,5.8-9.1,10.3c-1.3,3.4-2,7-2.6,10.6c-0.3,2-0.6,3.9-0.8,5.9c-0.1,2-0.2,3.5-0.6,5.9c0,0.1-0.1,0.4-0.1,0.4
	C564.8,209.2,564.2,216,564,220.1z M506,244.7c0.1,1.3-0.1,2.7,0.7,4.1c1.1,1.9,2.6,3.1,4.7,3.8c1.9,0.6,3.8,0.8,5.6,0.1
	c5-1.7,9.8-3.8,14.6-5.8c2.4-1,4.7-2.2,7.1-3.1c5.1-2,8.9-5.4,11.8-9.9c1.8-2.9,3.3-6.1,3.6-9.7c0.4-5.6,1-11.4,1.5-17
	c0.2-2.9,0.3-5.7,0.4-8.6c0-5.5-4-8.4-8.9-8c-0.7,0.1-1,0.3-2.2,0.6c-1.5,0.4-2.9,1-4.3,1.3c-0.3,0.3-1.3,0.3-3.8,1.5
	c-1.1,0.5-2.4,0.9-3.6,1.3c-2.4,0.9-4.3,1.8-7,2.6c-2,0.4-3.8,1.3-5.5,2.2c-3.1,1.4-5.9,3.4-7.9,6.2c-1,1.4-1.8,3-2.8,4.4
	c-1,1.5-1.3,3.1-1.9,4.7c-0.8,2.1-0.8,4.3-0.9,6.4c-0.1,2.8-0.3,5.6-0.4,8.4C506.5,235,506.3,239.7,506,244.7z M538.7,254.8
	c-2.3,0.8-4.7,1.6-6.9,2.6c-1.7,0.6-4.9,2.2-10,4.2c-3.1,1.8-6.2,3.6-9.3,5.4c-0.8,0.5-3.1,1.8-3.3,2.1c-1.4,1.4-2.6,2.8-3.8,4.4
	c-1.3,1.7-2.2,3.6-2.6,5.6c-0.9,4.9-1.3,9.8-1.3,14.9c0,0.3,0,0.7,0,1c-0.2,5.1-0.3,10.1-0.6,15.2h-0.1c0,1.3,0,2.6,0,4
	c-0.1,2.4,1.8,3.8,4,2.9c2-0.8,4.1-1.7,6.1-2.6c2.6-1.3,5.3-2.5,8-3.7c4.7-2,9.4-4.3,14-6.5c3-1.4,6.1-2.4,9.1-4
	c1.6-0.8,3.3-1.5,4.7-2.5c1-0.8,2.2-2,2.6-3.2c0.7-2.2,0.9-4.5,1.1-6.8c0.3-4.2,0.6-8.4,0.8-12.6c0.3-5.2,0.6-10.2,0.9-15.4
	c0.1-1.6-0.7-3-1-4.5v-0.1c-0.1-0.2-1.4-1.5-3.6-1.5c-1.5,0.2-3.1-0.1-4.6,0.3 M394,156c0,9.1-0.1,16,0,22.9
	c0.1,3.9,1.3,7.2,4.6,9.7c8.9,6.8,17.6,13.9,26.4,20.8c0.4,0.3,0.9,0.7,1.4,1c1.5,0.8,2.7,0.5,3.5-1c0.3-0.6,0.5-1.3,0.5-2
	c0.1-5.2,0.1-10.4,0.2-15.6c0.1-3.9,0.1-7.7,0.1-11.6c0-6.8,0.1-13.7,0.1-20.5c0-2.5-1-4.8-2.9-6.3c-2.9-2.4-6.1-4.5-9.2-6.7
	c-4-2.8-8.1-5.6-12.1-8.4c-2.9-2-5.8-4.2-8.8-6.1c-1.9-1.3-3.7-0.3-4,1.9c-0.1,1.3-0.3,2.5-0.3,3.8C393.8,144.5,393.9,151.4,394,156
	z M429.5,252.6c0-7.9-0.1-16,0-23.9c0.1-3.4-1.3-5.9-4-7.9c-3.8-2.9-7.4-5.9-11.1-8.9c-3.6-2.9-7-5.8-10.7-8.6c-1-0.8-2-1.5-3.1-2.1
	c-1.4-0.8-2.6-0.7-3.9,0.3c-1.1,0.8-1.7,2.1-2,3.4c-0.4,2.6-0.8,5.3-0.8,7.9c-0.1,8.8-0.5,17.6,0.3,26.4c0.1,1.8,0.4,3.6,0.6,5.4
	c0.3,2.9,1.5,5.6,2.7,8.4c1,2.1,2.3,3.8,4,5.4c7,6.4,14.1,12.8,21.2,19.2c0.8,0.8,1.7,1.5,2.6,2.2c1.5,1.1,3.3,0.3,3.6-1.5
	c0.1-0.4,0-0.8,0.1-1.3C429.1,268.7,429.5,252.6,429.5,252.6z M440.2,142.5c0.6-0.1,1.1-0.1,1.7-0.3c4.7-0.8,9.1-2.5,13.7-3.9
	c5.6-1.7,11.2-3.6,16.7-5.4c5.1-1.7,10.2-3.2,15.3-4.9c0.8-0.3,1.5-0.7,2.2-1.2c0.9-0.7,0.9-1.8,0.1-2.5c-0.7-0.6-1.6-1.1-2.4-1.7
	c-4.5-2.7-9-5.4-13.5-8.1c-5-3.1-10-6.2-15.1-9.2c-1-0.6-2.3-1-3.5-1.4c-2.8-0.8-5.6-0.4-8.3,0.3c-3.6,1-7.1,2.1-10.6,3.1
	c-5.7,1.7-11.5,3.4-17.2,5.2c-3.8,1.1-7.5,2.2-11.2,3.3c-1,0.3-2.2,0.6-3.1,1.3c-1.7,1.1-1.7,2.1-0.1,3.3c0.3,0.3,0.7,0.5,1,0.8
	c8.9,6.1,17.8,12.1,26.6,18.3C434.9,141.3,437.3,142.5,440.2,142.5z M559,286.6c0,0.1,0,0.6,0,1c0.1,2.1,1,2.9,3.1,2.7
	c0.8-0.1,1.7-0.3,2.4-0.6c2.1-0.8,4.1-1.8,6.2-2.7c2.6-1.1,5.2-2.2,7.8-3.3c3.5-1.5,6.9-3,10.4-4.5c2-0.8,4-1.6,5.9-2.5
	c1.3-0.6,2.9-1.1,3.9-2.1c1.3-1.4,2.4-3.1,2.6-5.2c0.3-1.9,0.6-3.8,0.8-5.6c0.8-7.8,1.3-15.7,2.6-23.4c0.5-2.8,0.5-5.6,0.7-8.4
	c0.1-0.6,0-1.1-0.1-1.7c-0.3-1-1.5-1.7-2.2-1.5c-3.1,1.1-6.1,2.2-9.2,3.4c-2.5,1-5,2.1-7.5,3.1c-3.1,1.3-6.2,2.4-9.2,3.6
	c-3.1,1.3-6.2,2.6-9.3,4c-2.9,1.3-5,3.5-5.4,6.8c-0.4,3.5-0.8,7-1.2,10.5c-0.6,6.1-1,12.2-1.5,18.3C559.4,281,559.2,283.6,559,286.6
	z M515.3,85c-1.2,0.1-3.3,0.2-5.4,0.7c-5.7,1.4-11.4,3-17.2,4.3c-5.8,1.4-11.6,2.9-17,5.5c-1.7,0.8-3.6,1.7-5.1,2.9
	c-1.6,1.3-1.3,2.4,0.3,3.5c2.6,1.6,5.1,3.2,7.7,4.8c7.5,4.7,14.9,9.3,22.4,14c1.3,0.8,2.4,0.7,4,0.3c3.1-0.6,13-4.3,18.6-6
	c7-2.2,14-4.5,21-6.8c3.4-1.1,6.8-2.2,10.2-3.3c0.9-0.3,1.8-0.8,1.8-1.8c0-1-0.9-1.5-1.7-1.9c-3.6-1.8-7.3-3.6-10.9-5.4
	c-5.4-2.8-10-5.4-16-8.5c-0.1-0.1-0.3-0.2-0.6-0.3C523.9,85.7,520.2,85,515.3,85z M387.1,151.7c0-1.3,0.1-2.9,0-4.4
	c-0.2-5.4-0.6-10.7-0.7-16c-0.1-2.2-0.6-4.3-1.7-6.2c-0.3-0.6-0.8-1.2-1.4-1.5c-2.9-2-5.7-4-8.6-6.1c-6.5-4.5-13-9-19.5-13.5
	c-1-0.8-2-0.9-3.1-0.3c-1.1,0.5-1.2,1.5-1.2,2.5c0.1,1.9,0.2,3.8,0.3,5.7c0.2,5.1,0.3,10.1,0.6,15.2c0.2,5.4,0.5,10.9,0.8,16.2
	c0.1,2.1,0.6,4.2,1.2,6.2c1,3.8,3.3,6.8,5.8,9.7c4.1,4.6,9,8.2,13.9,11.9c2.5,1.9,5.2,3.5,8.2,4.6c1.7,0.7,3.2,0.3,4.3-1.3
	c0.6-0.8,1-1.9,1.2-2.9c0.3-2,0.5-4,0.4-6.1C387.4,160.8,387.2,156.4,387.1,151.7z M394.7,112.6c1.2-0.1,2.4-0.1,3.6-0.4
	c3.6-0.9,7.2-2,10.7-3c4.5-1.3,9.1-2.5,13.6-3.8c3.8-1,7.6-2,11.3-3.3c1.7-0.6,3.5-1,4.8-2.4c1.5-1.5,1.5-3.5,0-4.9
	c-2-1.7-3.9-3.4-6-5c-4.6-3.2-9.4-6.1-14.4-8.5c-2.7-1.3-5.4-2.5-8.4-3.1c-2.9-0.6-5.9-0.8-8.8-0.5c-2.8,0.3-5.5,1-8.2,1.7
	c-0.8,0.2-1.6,0.6-2.4,0.8c-3.8,1-7.6,2-11.4,3c-3.8,1-7.6,2-11.4,3c-2,0.6-4,1-6,1.8c-2.1,0.8-2.2,2.4-0.3,3.7
	c8.9,6.2,17.9,12.4,26.8,18.7C390,111.9,392.1,112.8,394.7,112.6z M429.6,316.2L429.6,316.2c0-2.1,0-4.3,0-6.3c0-4.7-0.1-9.3,0-13.9
	c0.1-2.2-0.8-4-2.2-5.5c-1.3-1.5-2.7-2.9-4.2-4.2c-3.8-3.4-7.5-6.8-11.2-10.2c-4.3-3.9-8.7-7.7-13.1-11.6c-0.3-0.3-0.7-0.5-1-0.6
	c-1.5-0.3-2.4,0.3-2.6,2c-0.2,2.2-0.1,4.5-0.1,6.8c0.1,8.1,0.3,16.2,0.4,24.3c0.1,3.2,0.1,6.5,0.1,9.8c0.1,1.7,0.8,3.2,2,4.5
	c9.1,9.1,18.3,18.2,27.4,27.3c0.4,0.4,0.9,0.9,1.4,1.3c0.6,0.5,1.3,0.5,1.9-0.1c1-0.8,1.3-1.7,1.3-3
	C429.6,329.9,429.6,323,429.6,316.2z M569.1,99.8c0.9,0,1.9,0.1,2.7-0.1c1.7-0.4,3.5-1,5.2-1.6c6.5-2,13-4,19.5-6.1
	c4.4-1.4,8.8-2.9,13.2-4.3c0.8-0.3,1.6-0.6,2.4-0.9c1.3-0.8,1.3-1.7,0.1-2.6c-0.3-0.2-0.7-0.4-1.1-0.6c-5.5-2.6-11-5.2-16.5-7.8
	c-5.5-2.6-11.1-5.2-16.6-7.7c-2.9-1.3-5.7-1.8-8.8-0.9c-3.3,1-6.7,2-10,2.9c-4,1.2-8,2.4-12.1,3.6c-4.5,1.3-9,2.6-13.5,4
	c-1,0.3-1.9,0.5-2.8,0.9c-1.6,0.8-1.7,2.2-0.3,3.3c0.6,0.3,1.1,0.6,1.7,0.9c5.2,2.6,10.5,5.2,15.8,7.9c5.2,2.6,10.2,5.2,15.3,7.8
	C565.1,99.5,567,100,569.1,99.8z M389.7,277.7c-0.1-4.8-0.2-9.6-0.4-14.4c-0.1-1-0.2-2.2-0.7-3.1c-1.2-2.4-2.4-5-4-7.1
	c-1.8-2.5-3.8-4.9-6-7c-3.1-3.1-6.3-5.9-9.6-8.7c-2.4-2-5-3.6-7.6-5.2c-1.7-1.1-3.3-0.6-4.5,1.1c-0.6,1-1,2-0.9,3.2
	c0.1,3.3,0.5,6.8,0.3,10.1c-0.1,5.3,0.6,10.5,0.3,15.8c-0.2,2.4,0.1,4.8,0.3,7.2c0.2,2.4,1,4.7,2.8,6.4c5.4,5.2,10.7,10.5,16.1,15.7
	c2.6,2.5,5.2,5,7.9,7.5c0.8,0.8,1.8,1.5,2.7,2.3c0.8,0.7,1.9,0.7,2.8,0.4c0.9-0.3,0.5-1.3,0.6-2c0.1-0.4,0-0.8,0-1.3
	c0-4.6,0-9.1,0-13.7 M387.3,212c-0.1-8.6-1.5-14.5-4.5-20.1c-1.4-2.6-3.1-5.2-5.5-7c-4.7-3.6-9.2-7.3-13.8-10.9
	c-0.9-0.7-2-1.3-3.1-1.8c-0.8-0.3-1.5-0.3-2.4,0.1c-2.1,1-2.5,2.9-3,4.7c-0.5,2-0.1,4,0,6.1c0.1,3.9,0.2,7.7,0.4,11.6
	c0.2,3.9,0.6,7.8,0.8,11.8c0.4,5.6,2.6,10.5,5.6,15.2c1.4,2.1,3.3,3.6,5.1,5.3c3.8,3.3,7.7,6.7,11.5,10c0.9,0.8,2,1.3,2.9,2
	c1.9,1.3,3.6,0.2,4.7-1.3c0.4-0.6,0.7-1.3,0.9-1.9c0.9-2.6,0.9-5.2,0.8-7.9C387.7,221.8,387.4,215.7,387.3,212z M347.4,145.2
	c-0.1-2-0.3-4-0.4-6.1c-0.2-3.6-0.3-7.3-0.6-10.9c-0.5-7.9-1-15.9-1.6-23.8c-0.3-3.5-1.3-6.5-4.6-8.5c-4.3-2.7-8.3-5.7-12.5-8.6
	c-3-2.1-6-4.1-9-6.1c-1.6-1-2.6-0.8-3.2,1c-0.1,0.5-0.3,1-0.3,1.5c0,1,0,2,0.1,2.9c0.5,5.6,1,11.2,1.5,16.8c0.6,6.8,1,13.5,1.4,20.2
	c0.1,1,0.1,2.1,0.4,3.1c0.6,2.3,1.5,4.3,3.5,5.9c7,5.3,14,10.7,21,16c0.6,0.4,1.2,0.8,1.8,1c1,0.4,1.7,0.1,2-0.9
	C347.3,147.5,347.5,145.2,347.4,145.2z M459.9,91.3c5,0.2,10-1.2,15.1-2.6c4.1-1.2,8.2-2.4,12.3-3.8c2.8-0.9,5.6-1.8,8.3-2.9
	c1-0.4,1.9-1.3,2.6-2.1c1.3-1.5,1-3.4-0.6-4.7c-0.9-0.8-1.9-1.5-2.9-2c-4-2.2-8.2-4.4-12.3-6.6c-1-0.6-2.2-1.1-3.2-1.6
	c-3.5-1.8-7.3-2.7-11.2-2.7c-2.6,0-5.4-0.3-8,0.1c-3.5,0.6-6.8,1.5-10.2,2.5c-5.1,1.5-10.1,3.1-15.1,4.5c-2,0.6-4,1.4-5.7,2.6
	c-1,0.7-1.5,1.6-1.5,2.9c0,0.9,0.1,1.7,0.8,2.3c1,0.9,1.9,1.9,3,2.6c4.7,2.9,9.4,5.6,14.1,8.4C449.7,90.6,454.4,91.4,459.9,91.3z
	 M520.3,73.6c1.4-0.1,2.9,0,4.2-0.3c3.3-0.8,6.7-1.6,10-2.6c8.1-2.4,16.2-5,24.3-7.5c0.8-0.3,1.5-0.8,2.2-1.3c0.6-0.4,0.6-1,0-1.4
	c-0.8-0.5-1.5-1-2.4-1.4c-6.1-2.9-12.2-5.7-18.3-8.5c-4.5-2.1-8.9-4.1-13.3-6.2c-2.8-1.3-5.8-1.5-8.6-0.7
	c-6.5,1.7-12.9,3.7-19.4,5.6c-2.6,0.8-5.3,1.4-7.9,2.2c-2,0.6-4,1.3-5.9,2.3c-2.2,1.3-2.2,3.1-0.3,4.8c1,0.8,2.1,1.7,3.2,2.4
	c6.2,3.9,12.7,7.1,19.5,9.8C511.7,72.5,515.9,73.9,520.3,73.6z M352.5,85c3.4,0.1,6.3-0.9,9.2-1.7c2.5-0.6,5-1.4,7.5-2.1
	c4.8-1.3,9.6-2.6,14.4-3.9c4.5-1.2,8.9-2.3,13.4-3.5c0.9-0.3,1.9-0.6,2.8-1c1.3-0.5,1.3-1,0.3-1.7c-1.5-1.1-3.1-2.2-4.7-3.1
	c-6.3-4-12.6-7.8-18.8-12c-3.4-2.3-7-2.5-10.7-1.7c-5.4,1.2-10.8,2.9-16.2,4.3c-5.3,1.4-10.6,2.6-15.8,4c-2.5,0.6-5,1.4-7.5,2.2
	c-0.9,0.3-2,0.6-2.2,1.7c-0.1,1,0.9,1.5,1.6,2c7.1,5,14.2,9.8,21.3,14.8C348.9,84.6,350.7,85.2,352.5,85z M349.1,194.4
	c0.1,0-0.1-9.5-0.4-14.2c-0.3-3.8-1-7.7-1.5-11.5c-0.4-3-1.5-5.7-2.8-8.4c-0.8-1.8-2.2-3.3-3.8-4.5c-1.7-1.4-3.6-2.7-5.3-4.1
	c-4.2-3.3-8.4-6.6-12.6-9.9c-0.8-0.6-1.5-1.5-2.6-0.9c-1,0.5-0.9,1.7-1,2.6c0,0.1,0,0.1,0,0.2c0.1,2.4,0.3,5,0.5,7.4
	c0.5,6.9,1,13.8,1.5,20.6c0.3,4.9,0.6,9.7,0.9,14.6c0.1,2.2,1,3.8,2.6,5.3c3.8,3.3,7.5,6.8,11.3,10.2c2.6,2.4,5.2,4.7,7.9,7
	c1.7,1.5,3.9,1,4.8-1.1c0.3-0.8,0.4-1.6,0.4-2.4C349.1,201.7,349.1,198,349.1,194.4z M414.1,66.8c4.4,0.2,8.9-1.1,13.4-2
	c5.6-1.2,11-2.8,16.4-4.5c1.9-0.6,3.7-1.4,5.5-2c1-0.4,2.2-0.6,3.1-1.1c1.4-0.6,2.9-1.1,4.2-2c1.5-1,1.6-2.5,0.3-3.7
	c-1-1-2.2-1.7-3.4-2.4c-6.1-3.3-12.2-6.7-18.3-10c-1.7-0.9-3.5-1.5-5.4-1.3s-3.9,0.6-5.8,1c-7.7,2-15.3,4.1-22.9,6.2
	c-5.2,1.4-10.4,2.9-15.6,4.3c-0.9,0.3-2,0.5-2.2,1.7c-0.1,1.1,0.9,1.5,1.7,2c6.2,3.8,12.5,7.6,18.7,11.4
	C406.8,66.2,410.2,66.9,414.1,66.8z M351.6,228.4c-0.1-2.8-1-5.2-3.1-7.1c-1-0.9-2-2-3.1-2.9c-5.6-4.9-11.2-9.8-16.8-14.7
	c-0.7-0.6-1.4-1.2-2.2-1.7c-1.2-0.8-2.2-0.2-2.4,1.2c-0.1,0.5,0,1,0,1.5c0.1,1.9,0.2,3.8,0.3,5.7c0.6,9.7,1.2,19.5,1.7,29.1
	c0.1,2.6,1,4.7,2.9,6.5c6.8,6.6,13.5,13.2,20.4,19.7c0.3,0.3,0.5,0.5,0.8,0.8c0.6,0.6,1.4,1,2.3,0.6c0.9-0.4,0.8-1.2,0.8-2
	c0-1.9,0-3.8,0-5.7c0,0-0.3-8.3-0.6-12.5c-0.1-3-0.5-6.1-0.7-9.1 M471.4,51.2c1.1-0.1,2.2-0.2,3.3-0.5c2.2-0.6,4.5-1.1,6.7-1.8
	c5-1.5,10.1-2.9,15.1-4.4c4.6-1.4,9.3-2.8,13.9-4.2c0.6-0.2,1.2-0.4,1.7-0.8c0.9-0.6,0.8-1.4,0-2c-0.7-0.5-1.5-0.9-2.2-1.3
	c-3.4-1.6-6.9-3.2-10.3-4.8c-4.8-2.2-9.6-4.5-14.4-6.8c-2.4-1.1-4.8-1.5-7.4-0.8c-6.1,1.7-12.1,3.4-18.2,5.1c-3.7,1-7.4,2-11.1,3.1
	c-2.1,0.6-4.2,1.1-6.3,1.7c-0.8,0.2-1.7,0.6-1.8,1.5c-0.1,1,0.8,1.4,1.5,1.9c0.1,0.1,0.3,0.2,0.6,0.3c7.7,4,15.5,8.1,23.3,12.2
	C467.5,50.8,469.3,51.3,471.4,51.2z"/>
</svg>
