<?xml version="1.0" encoding="utf-8"?>
<!-- Generator: Adobe Illustrator 26.0.1, SVG Export Plug-In . SVG Version: 6.00 Build 0)  -->
<svg version="1.1" id="Layer_1" xmlns="http://www.w3.org/2000/svg" xmlns:xlink="http://www.w3.org/1999/xlink" x="0px" y="0px"
	 viewBox="0 0 2312 483.2" style="enable-background:new 0 0 2312 483.2;" xml:space="preserve">
<style type="text/css">
	.st0{enable-background:new    ;}
	.st1{fill:#1A3D40;}
	.st2{fill:#418BB5;}
	.st3{fill:#2A5A75;}
	.st4{fill:#142B38;}
</style>
<g class="st0">
	<path class="st1" d="M820.9,368h-60V265.8H645V368h-60.5V103H645v93.9h115.9V103h60V368z"/>
	<path class="st1" d="M940.2,368l36.4-68.1h48.9c11.6,0,25.3,0,34.6,0.8c-5.2-9.5-13.4-25.7-19.8-38.4l-34.9-70.1L914,368h-71.3
		l124.9-239.6c8.2-15.4,20.1-29.7,39-29.7c18,0,30,13.1,38.4,29.7L1166.7,368L940.2,368L940.2,368z"/>
	<path class="st1" d="M1361.4,358.1l-119.3-145.7V368h-54.7V148.2c0-35.2,15.7-49.5,32.9-49.5c7.3,0,14.6,2.4,24.2,14.3l119.3,145.7
		V103.1h55v219.4c0,35.2-15.7,49.9-33.2,49.9C1378,372.4,1370.7,370,1361.4,358.1z"/>
	<path class="st1" d="M1634.8,208.8c47.4,0,73.1,24.2,73.1,72.5c0,54.3-24.2,86.7-83.5,86.7H1443l38.7-68.1H1629
		c14.3,0,20.7-5.5,20.7-19.4c0-13.5-6.4-19-20.7-19h-106c-50.1,0-73.1-30.5-73.1-76c0-49.9,24.5-82.4,83.5-82.4h169.1l-38.7,68.9
		h-135.1c-14,0-20.7,4.8-20.7,18.2c0,13.5,6.7,18.6,20.7,18.6L1634.8,208.8L1634.8,208.8z"/>
	<path class="st1" d="M1960.8,299.9l-38.7,68.1h-187.5V103h225.6l-39,68.9h-126v31.7h154.3l-34.6,60.2h-119.6v36h165.5V299.9z"/>
	<path class="st1" d="M2154.7,358.1l-119.3-145.7V368h-54.7V148.2c0-35.2,15.7-49.5,32.9-49.5c7.3,0,14.6,2.4,24.2,14.3l119.3,145.7
		V103.1h55v219.4c0,35.2-15.7,49.9-33.2,49.9C2171.3,372.4,2164,370,2154.7,358.1z"/>
</g>
<polygon class="st2" points="230.1,82.4 153.5,103.1 274.7,191.5 453.6,127.1 450.2,122 388.4,86.8 305.2,119.9 "/>
<polygon class="st2" points="299.1,113.2 379.2,92 381,86.8 324.8,57.9 317.9,57.3 248.6,82.4 "/>
<polygon class="st3" points="367.3,266.8 367.3,356.1 450.6,322.3 450.6,236.2 "/>
<polygon class="st2" points="147.2,111.7 157.8,293.6 228,353.6 271.7,391.6 271.7,469 261.9,466.6 213.8,418.7 205.4,413.5 
	158.7,366.4 153.9,362.1 116.4,324.5 111.4,254.2 114,254.2 109.7,245.7 105.2,170.2 107.6,163.8 104.1,157 98.8,88 103.2,85.2 "/>
<path class="st3" d="M279.5,195.7c-1.6,2.1-3.2,198.4-3.2,198.4l91-38v-89.3c0,0,89.5-25.7,90.4-33.7c0.8-8,7.2-97.5,7.2-97.5
	L279.5,195.7z"/>
<polygon class="st4" points="210.7,249.8 155.3,210.5 153.5,292.6 207.6,334.7 "/>
<path class="st3" d="M458.7,127.5c-16.8-11.8-135.9-72.1-135.9-72.1l-173.1,50l-42-33.8l7.2-3.6l64.6-17.3l9.5,4l3.1-7.2l71.3-19.3
	l5.9-0.1l5.4,3.4l2.1-6.6l61-17.1l55.8,24.9v2.6l6.3,0.4L462,64.9l6.8,5.2l3.8-0.2l65,29.3L458.7,127.5z"/>
<polygon class="st4" points="151.7,113.2 271.2,189 269.7,386.1 259.9,383.2 204.9,332.6 215.1,249.8 149.2,203.6 "/>
<path class="st4" d="M279.2,468.2c0,0,1.2,5.4,6.5,2.3s64.8-28.8,64.8-28.8l5.8-4.4l12.3-3.4l140.6-61.7l2.9-3.4l7.9-70.7l0.8-14.3
	l9.5-78.7l-2.6-7.1l2.6-6.5l10.5-80.5l-76.3,23.7l-11,103.2l-7.7,85.3l-169.9,72.7v72.4L279.2,468.2L279.2,468.2z"/>
<path d="M110.8,257.1c0.1-2-0.3-4.1,0.9-5.9c0.4-0.7,0.1-1.1-0.4-1.5c-1.8-1.7-2.3-3.8-2.4-6.3c-0.4-7.6-1.1-15.1-1.6-22.7
	c-0.5-7.2-0.9-14.3-1.4-21.5c-0.5-8.5-1.1-16.9-1.6-25.4c-0.1-1.8-0.1-3.6-0.2-5.5c-0.1-1.8,0.2-3.4,1.4-4.8c0.6-0.7,0.8-1.3-0.1-2
	c-1.5-1-1.7-2.7-1.8-4.3c-0.5-6.3-0.8-12.7-1.3-19c-0.7-8.6-1.5-17.3-2.2-25.9c-0.3-3.8-0.5-7.7-0.8-11.5c-0.3-4.2-0.8-8.4-1-12.7
	c-0.2-3.2-0.4-6.5-0.1-9.7s2.1-5.7,4.9-7.2c2-1.1,4.2-1.8,6.4-2.4c9.7-2.6,19.4-5,29-7.5c13.4-3.5,26.7-7.1,40.1-10.6
	c1.4-0.4,3-0.2,4.5,0.1c1,0.2,1.8,0.3,2.4-0.6c1.2-1.9,3-2.6,5.2-3.2c11.9-3.1,23.8-6.4,35.7-9.6c11.9-3.2,23.8-6.5,35.6-9.7
	c2-0.5,3.9-0.6,5.9-0.1c0.6,0.2,1.5,0.1,1.9-0.2c1.5-1.5,3.6-1.9,5.4-2.4c9.5-2.8,19.1-5.3,28.6-8.1c9.2-2.7,18.4-5.4,27.7-8.1
	c1.4-0.4,2.9-0.7,4.4-1.1c2.8-0.8,5.5-0.4,8.2,0.8c7.5,3.6,15,7.1,22.4,10.5c8.8,4.1,17.6,8.1,26.3,12.2c1.5,0.7,3.1,1.4,4.1,3
	c0.3,0.5,1.2,0.8,1.8,0.7c3.2-0.4,5.9,1,8.6,2.3c17.4,8.2,34.7,16.3,52.1,24.5c2.2,1,4.4,2,6.5,3.2c1.1,0.6,2.1,1.6,2.8,2.6
	c0.7,1.1,1.5,1.4,2.7,1.5c1.5,0.2,3,0.5,4.3,1.1c8.3,3.8,16.5,7.7,24.7,11.5c10.4,4.9,20.8,9.8,31.3,14.7c2.1,1,4.2,1.8,6.3,2.8
	c2.8,1.3,4.8,3.4,5.8,6.2c0.5,1.4,0.9,3,0.7,4.4c-0.6,5.3-1.4,10.6-2.1,15.9c-0.7,5.3-1.2,10.6-1.9,15.9c-0.4,3.6-0.9,7.2-1.4,10.8
	c-0.6,4.6-1.1,9.2-1.7,13.8c-0.7,5.3-1.5,10.5-2.2,15.8c-0.3,2.4-0.6,4.8-0.8,7.2c-0.2,2.6-0.6,5.2-2.6,7.2c-0.5,0.5-0.5,1,0,1.6
	c1.4,1.7,1.8,3.6,1.4,5.9c-0.7,5.1-1.3,10.2-1.8,15.3c-0.3,2.8-0.5,5.6-0.7,8.4c-0.1,1.3-0.4,2.5-0.6,3.8c-1,8.3-2.1,16.5-3.1,24.8
	c-0.6,5.4-1.1,10.7-1.8,16.1c-0.6,4.5-1.3,8.9-2,13.4c-0.2,1.5-0.6,2.9-2,3.9c-0.5,0.4-1.2,0.9-0.6,1.8c1.3,1.9,1.1,4.1,0.9,6.1
	c-0.4,3.5-0.9,7-1.4,10.4c-0.4,2.8-0.6,5.6-1,8.4c-0.4,3.5-1,6.9-1.2,10.4c-0.2,3-1.2,5.9-1,8.8c0.2,3.6-0.9,6.9-0.9,10.4
	c0,2.4-0.6,4.8-0.9,7.1c-0.1,0.7,0,1.5-0.1,2.1c-0.3,1.3-0.1,2.5-0.3,4c-0.3,2.7-1,5.3-0.9,8c0,2.5-0.9,3.9-3.3,5
	c-24.2,10.7-48.4,21.6-72.6,32.4c-20.8,9.3-41.6,18.6-62.4,27.9c-5,2.3-3.7,1.7-8.8,3.9c-1,0.5-8.5,4.1-9.8,3.3
	c-0.4-0.2,0,0-1.6,0.3c-3.9,4-9.1,5.4-13.9,7.6c-16.2,7.3-32.4,14.5-48.6,21.8c-3,1.3-5.9,3.1-8.9,4.3c-2.9,1.2-6,2.2-9.1,2.9
	c-1.2,0.3-2.6-0.1-3.8-0.5c-2.4-0.9-4.6-2.1-6.4-3.9c-15.9-15.9-31.8-31.7-47.7-47.6c-0.9-0.9-1.6-1.8-2.4-2.7
	c-0.7-0.7-1.4-1.6-2.2-2c-2.2-1-3.8-2.7-5.4-4.3c-10.6-10.3-21.1-20.7-31.6-31c-4.5-4.4-9.1-8.6-13.4-13.1c-1.5-1.5-2.5-3.4-3.7-5.1
	c-0.9-1.2-1.7-2.3-3.1-3.1c-1.5-0.9-2.8-2.3-4.1-3.5c-7.6-7.4-15.1-14.9-22.7-22.3c-3.2-3.1-6.4-6.2-9.5-9.3
	c-0.2-0.2-0.4-0.4-0.7-0.6c-1.8-2.1-3.3-4.1-3.4-7.2c-0.1-4.8-0.6-9.7-0.9-14.5c-0.5-8-0.9-15.9-1.3-23.9
	c-0.3-5.9-0.7-11.9-1.1-17.8C111.3,261.9,111,259.5,110.8,257.1z M285.6,264.5c0,5.1-0.1,8.6,0,12c0,1.4,0.3,2.8,0.8,4.1
	c0.3,0.7,1.2,1.5,1.9,1.6c2,0.4,5,0.5,8-0.6c3.7-1.5,7.4-2.9,11.1-4.3c2.1-0.8,4.3-1.6,6.4-2.4c1.9-0.7,3.8-1.6,5.7-2.3
	c1.9-0.8,3.8-1.5,5.8-2.2c3.3-1.3,6.6-2.8,10-3.7c2.8-0.8,5.7-2,8.3-2.9c2.7-0.9,5.4-2.2,8.2-3.2c5.1-1.8,7.8-5.6,8.4-10.7
	c0.7-5.9,0.9-11.9,1.2-17.8c0.1-2.3,0-4.6,0.2-7c0.5-7,1.2-14.1,1.6-21.1c0.3-5.9,0.4-11.9,0.5-17.9c0-1.4-0.2-2.8-0.6-4.1
	c-0.6-2.4-1.5-3-3.9-2.9c-1.4,0-2.7,0.4-4.1,0.8c-1.7,0.5-3.4,1.1-5.1,1.6c-3.1,1-6.3,2.1-9.4,3.2c-2.6,0.9-5.2,2-7.8,2.8
	c-2,0.6-4,1-6,1.6c-4,1.4-7.9,3.2-12,4.4c-4.9,1.4-9.8,3.1-14.6,4.9c-1.2,0.5-2.4,1-3.7,1.3c-6.5,1.7-9.5,6.9-9.8,11.6
	c-0.2,3-0.4,6.1-0.5,9.1c-0.1,9.7-0.2,19.4-0.3,29.1c0,0.7,0,1.4,0,2.1C286,256.5,285.7,261.4,285.6,264.5z M375.8,230.2h0.1
	c0,0.7-0.1,1.4-0.1,2.1c0.2,3-0.1,6,0.9,9c0.9,2.7,3,4.3,5.3,4.5c3.7,0.4,14.4-1.1,15.3-1.4c5.9-1.8,5.9-1.8,7.9-2.5
	c3.1-1.1,6.1-2.3,9.2-3.4c1.5-0.5,9.5-3.6,13.3-5.2c4.1-1.9,6.9-3.8,10.2-5.7c3-1.8,5.9-3.8,8-6.6c3.8-5,6.2-10.8,6.7-17.2
	c0.3-3.8,0.5-7.7,0.9-11.5c0.5-5.6,1.1-11.2,1.6-16.9c0.5-5.7,1-11.5,1.5-17.2c0.3-3.1,0.6-6.2-0.3-9.3c-0.3-0.9-0.7-1.3-1.6-1.4
	c-3.1-0.4-4.4,0.6-7.7,1.2c-1.8,0.4,1-0.2-3.3,0.8c-3,0.7-4.6,1.7-7.5,2.7s-5.9,1.7-8.7,2.7c-3,1-5.8,2.3-8.8,3.3
	c-4.1,1.4-8.3,2.6-12.4,4c-3.1,1.1-6.2,2.2-9.4,3.3c-3.7,1.3-7.6,2.2-11.1,3.9c-3.7,1.8-6.1,4.9-6.5,9.2c-0.5,6-1,12-1.4,18
	C377.2,208,376.5,219.1,375.8,230.2z M285,363.5c0,4.2,0,7.3,0,10.3c0,1.5-0.1,3,0.1,4.5c0.2,1.8,1.4,3.4,2.9,3.5
	c1.3,0.1,2.7,0.1,3.9-0.3c2.4-0.7,4.6-1.8,6.9-2.7c2.2-0.9,4.2-2.2,6.5-2.9c2.9-0.9,5.6-2.3,8.4-3.4c2.4-1,4.7-2,7.1-3
	c2.8-1.1,5.5-2.2,8.3-3.4c1.8-0.8,0,0,5.3-2.3c3.4-1.5,6.6-2.7,9.8-4.2c3.2-1.6,5.7-4.6,7.7-7.6c2-3.1,3.6-6.5,4.3-10.2
	c0.9-4.5,1.7-9,2.4-13.6c0.4-2.6,0.5-5.2,0.7-7.8c0.1-1.9,0.2-3.8,0.4-5.7c0.2-2.8,0.6-5.6,0.8-8.4c0.5-6.6-0.2-13.1-1.3-19.6
	c-0.6-3.4-2.2-6.5-6-7.6c-2.5-0.7-5.2-0.8-7.8,0.1c-4,1.4-7.9,2.9-11.8,4.4c-8.2,3-16.4,6-24.6,9.1c-4.3,1.6-8.5,3.5-12.9,5
	c-1.6,0.5-2.9,1.2-4.2,2.2c-2.4,1.8-4.3,4-4.8,7.1c-0.4,2.5-0.6,5-0.6,7.5c-0.2,6.2-0.1,12.3-0.3,18.5
	C285.7,343.5,285.3,354.1,285,363.5z M464.5,209.2h0.1c0,1.2-0.1,2.4,0,3.6s1.3,2.7,2.3,2.8c1.5,0.1,3.1,0.2,4.5-0.2
	c3-0.9,5.9-2.1,8.8-3.2c2.1-0.8,4.2-1.9,6.4-2.4c3.9-0.9,7.5-2.7,11.3-3.8c1.4-0.4,2.8-1.2,4.2-1.5c1.5-0.1,3-0.9,4.5-1.5
	c3-1.1,6-2.1,8.9-3.2c2.7-1,5.5-1.8,7.9-3.4c1.1-0.8,2.5-1.4,3.3-2.4c2.2-2.7,3.3-5.9,3.7-9.4c1-8.1,2.1-16.2,3.1-24.3
	c0.6-4.8,1.2-9.6,1.8-14.4c0.4-3.2,1-6.4,1.4-9.6c0.5-4.2,0.8-8.4,1.3-12.6c0.3-2.8-1.9-4.9-5-4.2c-2.3,0.6-4.7,1.1-7,1.7
	c-1.9,0.5-3.8,1.3-5.7,1.9c-2.3,0.8-4.6,1.7-7,2.4c-3.1,0.9-6.4,1.5-9.4,2.7c-4.4,1.7-8.9,3.2-13.4,4.7c-4,1.3-8,2.5-12,3.8
	c-1,0.3-2.1,0.8-2.9,1.6c-2.3,2.2-4,4.8-4.4,8.1c-0.3,2.8-0.8,5.6-1.1,8.4c-0.4,3.4-0.5,6.9-0.9,10.3c-0.5,4.5-1.1,9-1.6,13.5
	c-0.3,2.7-0.5,5.4-0.8,8.1C466.1,194.2,465.3,201.7,464.5,209.2z M284.5,446.7c0,6.6,0,11.1,0,15.7c0,3.6,2.9,5.7,6.4,3.9
	c2-1,4.1-2,6.1-2.9c5.1-2.1,10-4.6,15.2-6.7c3.5-1.4,6.7-3.4,10.2-4.8c3.6-1.4,6.8-3.5,10.4-4.8c4.5-1.5,8.8-3.6,13-5.8
	c2-1.1,4-2.6,5.3-4.4c1.7-2.2,2.5-5,2.6-7.9c0.1-5.4,0.4-10.7,0.6-16.1c0.2-4.3,0.5-8.6,0.7-13c0.4-7.5,0.9-14.9,1.2-22.4
	c0.1-1.4-0.1-2.8-0.5-4.2c-0.2-1.1-0.8-2.2-2.1-2.3c-1.3-0.1-2.7-0.3-3.9,0.1c-3.6,1.2-7.2,2.6-10.7,4.1
	c-8.9,3.7-17.7,7.6-26.6,11.4c-6.5,2.7-12.9,5.4-19.4,8.1c-5.5,2.3-7.8,6.7-7.9,12.4c-0.1,3.7-0.1,7.5-0.2,11.2
	C284.8,428.5,284.7,438.6,284.5,446.7z M457.3,291c0.1,2.5,0.2,5.7,0.4,8.9c0.1,1.1,0.4,2.2,0.7,3.2c1,2.9,3.5,4.5,6.5,4.9
	c3.2,0.4,5.9-1,8.6-2c2.5-0.8,5-2,7.5-3c2.7-1,5.4-1.9,8-2.9c3.6-1.4,7.3-2.9,10.9-4.4c4-1.6,8-3.4,12-4.8c4.5-1.5,6.5-5.1,7.3-9.2
	c1.1-5.7,1.7-11.6,2.4-17.4c1-8,1.8-16,2.7-24.1c0.8-6.3,1.7-12.6,2.6-18.9c0.2-1.9,0.4-3.8,0.3-5.7c0-1.5-0.7-3.1-2.2-3.6
	c-1.1-0.3-2.6-0.1-3.8,0.3c-2.8,0.9-5.5,2.1-8.3,3.1c-4,1.4-8.1,2.7-12.2,4.1c-2.6,0.9-5.9,1.6-8.5,2.5c-4.3,1.4-7.6,2.8-11.7,4.3
	c-1.1,0.4-2.3,1.2-3.3,1.7c-6.1,3.4-10.5,8.3-13.1,14.8c-1.9,4.9-2.9,10.1-3.7,15.2c-0.5,2.8-0.9,5.6-1.1,8.4
	c-0.2,2.9-0.3,5-0.9,8.5c0,0.2-0.1,0.6-0.1,0.6C458.5,275.4,457.6,285.2,457.3,291z M374.2,326.3c0.2,1.8-0.2,3.9,1,5.9
	c1.6,2.7,3.7,4.5,6.8,5.4c2.7,0.8,5.5,1.1,8,0.2c7.1-2.5,14-5.4,21-8.3c3.5-1.4,6.7-3.2,10.2-4.5c7.3-2.8,12.8-7.7,16.9-14.2
	c2.6-4.2,4.7-8.7,5.1-13.9c0.6-8.1,1.5-16.3,2.2-24.4c0.3-4.1,0.5-8.2,0.6-12.4c0-7.9-5.8-12.1-12.8-11.5c-1,0.1-1.5,0.4-3.1,0.8
	c-2.2,0.6-4.1,1.4-6.2,1.9c-0.4,0.4-1.9,0.4-5.5,2.1c-1.6,0.7-3.4,1.3-5.1,1.9c-3.4,1.3-6.1,2.6-10.1,3.8c-2.9,0.6-5.4,1.9-7.9,3.1
	c-4.4,2-8.4,4.9-11.3,8.9c-1.4,2-2.6,4.3-4,6.3c-1.4,2.1-1.9,4.5-2.7,6.8c-1.1,3-1.2,6.1-1.3,9.2c-0.1,4-0.4,8.1-0.6,12.1
	C374.9,312.4,374.6,319.2,374.2,326.3z M421.1,340.8c-3.3,1.1-6.7,2.3-9.9,3.7c-2.4,0.9-7,3.1-14.4,6c-4.4,2.6-8.9,5.1-13.3,7.7
	c-1.2,0.7-4.4,2.6-4.8,3c-2,2-3.8,4-5.4,6.3c-1.8,2.5-3.2,5.2-3.8,8.1c-1.3,7-1.8,14.1-1.8,21.3c0,0.5,0,1,0,1.5
	c-0.3,7.3-0.5,14.5-0.8,21.8h-0.1c0,1.9,0,3.8,0,5.8c-0.1,3.4,2.6,5.4,5.8,4.1c2.9-1.2,5.9-2.4,8.8-3.7c3.8-1.8,7.6-3.6,11.5-5.3
	c6.8-2.9,13.5-6.1,20.1-9.3c4.3-2,8.8-3.5,13-5.7c2.3-1.2,4.7-2.1,6.7-3.6c1.5-1.1,3.1-2.8,3.7-4.6c1-3.1,1.3-6.5,1.6-9.8
	c0.5-6,0.8-12.1,1.1-18.1c0.4-7.4,0.8-14.7,1.3-22.1c0.2-2.3-1-4.3-1.5-6.4v-0.1c-0.2-0.3-2-2.1-5.2-2.1c-2.2,0.3-4.5-0.1-6.6,0.5
	 M213.6,199.1c0,13.1-0.1,23,0,32.9c0.1,5.6,1.9,10.3,6.6,13.9c12.8,9.8,25.3,19.9,37.9,29.8c0.6,0.5,1.3,1,2,1.4
	c2.1,1.2,3.9,0.7,5-1.5c0.4-0.9,0.7-1.9,0.7-2.9c0.2-7.5,0.2-14.9,0.3-22.4c0.1-5.6,0.1-11.1,0.2-16.7c0-9.8,0.1-19.6,0.1-29.4
	c0-3.6-1.5-6.9-4.2-9c-4.2-3.5-8.7-6.5-13.2-9.6c-5.8-4-11.6-8-17.3-12c-4.2-2.9-8.3-6-12.6-8.8c-2.7-1.8-5.3-0.5-5.7,2.7
	c-0.2,1.8-0.4,3.6-0.4,5.4C213.2,182.7,213.4,192.5,213.6,199.1z M264.5,337.6c0-11.4-0.1-22.9,0-34.3c0.1-4.9-1.8-8.4-5.7-11.3
	c-5.4-4.1-10.6-8.5-15.9-12.8c-5.1-4.1-10.1-8.3-15.3-12.4c-1.4-1.1-2.9-2.1-4.5-3c-2-1.2-3.8-1-5.6,0.4c-1.6,1.2-2.5,3-2.8,4.9
	c-0.6,3.8-1.2,7.6-1.2,11.4c-0.1,12.6-0.7,25.3,0.5,37.9c0.2,2.6,0.6,5.2,0.9,7.8c0.5,4.2,2.1,8.1,3.9,12c1.4,3,3.3,5.5,5.7,7.7
	c10.1,9.2,20.2,18.4,30.4,27.6c1.2,1.1,2.4,2.1,3.7,3.1c2.2,1.6,4.8,0.5,5.1-2.2c0.1-0.6,0-1.2,0.1-1.8
	C263.9,360.8,264.4,337.6,264.5,337.6z M279.8,179.8c0.8-0.1,1.6-0.2,2.4-0.4c6.7-1.2,13.1-3.6,19.6-5.6c8-2.5,16-5.2,24-7.8
	c7.3-2.4,14.7-4.6,22-7c1.1-0.4,2.2-1,3.1-1.7c1.3-1,1.3-2.6,0.1-3.6c-1-0.9-2.3-1.6-3.5-2.4c-6.4-3.9-12.9-7.7-19.4-11.6
	c-7.2-4.4-14.3-8.9-21.6-13.2c-1.5-0.9-3.3-1.5-5-2c-4-1.1-8-0.6-11.9,0.5c-5.1,1.5-10.2,3-15.2,4.5c-8.2,2.4-16.5,4.9-24.7,7.4
	c-5.4,1.6-10.7,3.2-16.1,4.8c-1.5,0.5-3.1,0.9-4.4,1.8c-2.4,1.6-2.4,3-0.2,4.8c0.5,0.4,1,0.7,1.5,1.1c12.7,8.7,25.5,17.4,38.1,26.2
	C272.2,178,275.6,179.8,279.8,179.8z M450.2,386.4c0,0.1,0,0.8,0,1.5c0.2,3,1.4,4.2,4.4,3.9c1.2-0.1,2.4-0.5,3.4-0.9
	c3-1.2,5.9-2.6,8.9-3.9c3.7-1.6,7.5-3.1,11.2-4.7c5-2.1,9.9-4.3,14.9-6.5c2.8-1.2,5.7-2.3,8.5-3.6c1.9-0.9,4.1-1.6,5.6-3
	c1.9-2,3.4-4.5,3.8-7.4c0.4-2.7,0.8-5.4,1.1-8.1c1.2-11.2,1.9-22.5,3.7-33.6c0.7-4,0.7-8,1-12.1c0.1-0.8,0-1.6-0.2-2.4
	c-0.4-1.4-2.1-2.5-3.2-2.1c-4.4,1.6-8.8,3.2-13.2,4.9c-3.6,1.4-7.1,3-10.7,4.4c-4.4,1.8-8.9,3.4-13.2,5.2c-4.5,1.9-8.9,3.8-13.4,5.8
	c-4.2,1.9-7.2,5-7.8,9.8c-0.6,5-1.2,10-1.7,15c-0.8,8.7-1.5,17.5-2.2,26.2C450.8,378.4,450.5,382.1,450.2,386.4z M387.5,97.3
	c-1.7,0.2-4.7,0.3-7.7,1c-8.2,2-16.4,4.3-24.6,6.2c-8.3,2-16.6,4.1-24.4,7.9c-2.5,1.2-5.1,2.5-7.3,4.2c-2.3,1.8-1.9,3.4,0.5,5
	c3.7,2.3,7.3,4.6,11,6.9c10.7,6.7,21.4,13.4,32.1,20.1c1.8,1.1,3.4,1,5.7,0.5c4.5-0.9,18.6-6.1,26.7-8.6c10-3.2,20.1-6.5,30.1-9.7
	c4.9-1.6,9.8-3.2,14.6-4.7c1.3-0.4,2.6-1.1,2.6-2.6c0-1.4-1.3-2.1-2.5-2.7c-5.2-2.6-10.5-5.1-15.7-7.8c-7.7-4-14.3-7.8-22.9-12.2
	c-0.2-0.2-0.5-0.3-0.8-0.4C399.9,98.3,394.5,97.3,387.5,97.3z M203.6,193c0-1.9,0.1-4.1,0-6.3c-0.3-7.7-0.8-15.3-1-23
	c-0.1-3.2-0.9-6.2-2.5-8.9c-0.5-0.8-1.2-1.7-2-2.2c-4.1-2.9-8.2-5.8-12.4-8.7c-9.3-6.4-18.7-12.9-28-19.4c-1.5-1.1-2.9-1.3-4.5-0.5
	c-1.6,0.7-1.7,2.1-1.7,3.6c0.1,2.7,0.3,5.4,0.4,8.2c0.3,7.3,0.5,14.5,0.8,21.8c0.3,7.8,0.7,15.6,1.2,23.3c0.2,3,0.9,6,1.7,8.9
	c1.4,5.4,4.7,9.8,8.3,13.9c5.9,6.6,12.9,11.8,19.9,17c3.6,2.7,7.5,5,11.8,6.6c2.5,1,4.6,0.4,6.1-1.9c0.8-1.2,1.5-2.7,1.7-4.1
	c0.4-2.9,0.7-5.8,0.6-8.7C204.1,206,203.8,199.7,203.6,193z M214.5,136.9c1.7-0.2,3.4-0.1,5.1-0.6c5.1-1.3,10.3-2.9,15.4-4.3
	c6.5-1.8,13-3.6,19.5-5.4c5.4-1.5,10.9-2.9,16.2-4.7c2.5-0.8,5-1.5,6.9-3.5c2.1-2.2,2.2-5,0-7c-2.8-2.5-5.6-4.9-8.6-7.1
	c-6.6-4.6-13.5-8.7-20.7-12.2c-3.9-1.9-7.8-3.6-12.1-4.4c-4.2-0.8-8.4-1.2-12.6-0.7c-4,0.5-7.9,1.5-11.8,2.4
	c-1.2,0.3-2.3,0.8-3.5,1.1c-5.4,1.4-10.9,2.8-16.3,4.3c-5.4,1.4-10.9,2.8-16.3,4.3c-2.9,0.8-5.8,1.5-8.6,2.6c-3,1.2-3.2,3.4-0.4,5.3
	c12.8,8.9,25.6,17.8,38.4,26.8C207.8,135.9,210.8,137.2,214.5,136.9z M264.6,428.9L264.6,428.9c0-3,0-6.1,0-9.1c0-6.7-0.1-13.3,0-20
	c0.1-3.2-1.2-5.7-3.2-7.9c-1.9-2.1-3.9-4.1-6-6c-5.4-4.9-10.7-9.8-16.1-14.6c-6.2-5.6-12.5-11.1-18.8-16.6c-0.4-0.4-1-0.7-1.5-0.8
	c-2.1-0.4-3.5,0.5-3.7,2.9c-0.3,3.2-0.2,6.4-0.2,9.7c0.2,11.6,0.4,23.2,0.6,34.9c0.1,4.6,0.1,9.3,0.2,14c0.1,2.5,1.1,4.6,2.9,6.4
	c13.1,13,26.2,26.1,39.3,39.2c0.6,0.6,1.3,1.3,2,1.8c0.9,0.7,1.8,0.7,2.7-0.1c1.4-1.1,1.8-2.5,1.8-4.3
	C264.6,448.5,264.6,438.7,264.6,428.9z M464.7,118.5c1.3,0,2.7,0.2,3.9-0.1c2.5-0.6,5-1.5,7.5-2.3c9.3-2.9,18.6-5.8,27.9-8.7
	c6.3-2,12.6-4.1,18.9-6.2c1.1-0.4,2.3-0.8,3.4-1.3c1.9-1.1,1.9-2.5,0.2-3.7c-0.5-0.3-1-0.6-1.6-0.9c-7.9-3.7-15.8-7.5-23.7-11.2
	s-15.9-7.4-23.8-11c-4.1-1.9-8.2-2.6-12.6-1.3c-4.8,1.4-9.6,2.8-14.4,4.2c-5.8,1.7-11.5,3.5-17.3,5.2c-6.4,1.9-12.9,3.8-19.4,5.7
	c-1.4,0.4-2.7,0.7-4,1.3c-2.3,1.1-2.5,3.2-0.4,4.7c0.8,0.5,1.6,0.9,2.4,1.3c7.5,3.8,15.1,7.5,22.6,11.3c7.4,3.7,14.7,7.4,22,11.2
	C458.9,118.1,461.7,118.8,464.7,118.5z M207.3,373.7c-0.1-6.9-0.3-13.7-0.6-20.6c-0.1-1.5-0.3-3.1-1-4.4c-1.7-3.5-3.5-7.1-5.7-10.2
	c-2.6-3.6-5.5-7-8.6-10c-4.4-4.4-9-8.5-13.8-12.5c-3.4-2.8-7.1-5.2-10.9-7.5c-2.5-1.6-4.8-0.9-6.5,1.6c-0.9,1.4-1.4,2.9-1.3,4.6
	c0.2,4.8,0.7,9.7,0.5,14.5c-0.2,7.6,0.9,15.1,0.4,22.7c-0.3,3.4,0.1,6.9,0.4,10.3c0.3,3.5,1.5,6.7,4,9.2c7.7,7.5,15.4,15,23.1,22.5
	c3.8,3.6,7.5,7.2,11.4,10.8c1.2,1.2,2.6,2.2,3.9,3.3c1.2,1,2.7,1,4,0.6s0.7-1.9,0.9-2.9c0.1-0.6,0-1.2,0-1.8c0-6.6,0-13.1,0-19.7
	 M203.9,279.4c-0.2-12.3-2.2-20.8-6.4-28.8c-2-3.8-4.4-7.4-7.9-10.1c-6.7-5.1-13.2-10.5-19.8-15.6c-1.3-1-2.9-1.9-4.4-2.6
	c-1.1-0.5-2.2-0.4-3.4,0.2c-3,1.4-3.6,4.1-4.3,6.8c-0.7,2.9-0.1,5.8,0,8.7c0.2,5.6,0.3,11.1,0.6,16.6c0.3,5.6,0.8,11.2,1.2,16.9
	c0.6,8,3.7,15.1,8.1,21.8c2,3,4.7,5.2,7.3,7.6c5.5,4.8,11,9.6,16.5,14.3c1.3,1.1,2.8,1.9,4.2,2.8c2.7,1.8,5.2,0.3,6.8-1.8
	c0.6-0.8,1-1.8,1.3-2.7c1.3-3.7,1.3-7.5,1.2-11.3C204.5,293.5,204.1,284.8,203.9,279.4z M146.7,183.6c-0.2-2.9-0.4-5.8-0.6-8.8
	c-0.3-5.2-0.4-10.5-0.8-15.7c-0.7-11.4-1.5-22.8-2.3-34.2c-0.4-5-1.9-9.3-6.6-12.2c-6.1-3.9-11.9-8.2-17.9-12.3
	c-4.3-3-8.6-5.9-12.9-8.8c-2.3-1.5-3.7-1.1-4.6,1.5c-0.2,0.7-0.4,1.4-0.4,2.1c0,1.4,0,2.8,0.1,4.2c0.7,8.1,1.5,16.1,2.1,24.1
	c0.8,9.7,1.4,19.4,2,29c0.1,1.5,0.2,3,0.6,4.5c0.8,3.3,2.2,6.2,5,8.4c10,7.6,20.1,15.3,30.1,23c0.8,0.6,1.7,1.2,2.6,1.5
	c1.4,0.6,2.4,0.2,2.8-1.3C146.5,187,146.8,183.6,146.7,183.6z M308,106.4c7.1,0.3,14.4-1.7,21.6-3.8c5.9-1.7,11.8-3.5,17.6-5.4
	c4-1.3,8-2.6,11.9-4.2c1.4-0.6,2.7-1.8,3.7-3c1.8-2.2,1.4-4.9-0.8-6.7c-1.3-1.1-2.7-2.1-4.2-2.9c-5.8-3.2-11.7-6.3-17.6-9.4
	c-1.5-0.8-3.1-1.6-4.6-2.3c-5-2.6-10.4-3.9-16-3.9c-3.8,0-7.8-0.4-11.5,0.2c-5,0.8-9.8,2.2-14.7,3.6c-7.3,2.1-14.5,4.4-21.7,6.4
	c-2.9,0.8-5.7,2-8.2,3.7c-1.5,1-2.1,2.3-2.1,4.1c0,1.3,0.2,2.5,1.1,3.3c1.4,1.3,2.7,2.7,4.3,3.7c6.7,4.1,13.5,8,20.2,12
	C293.4,105.4,300.2,106.5,308,106.4z M394.7,81c2-0.1,4.1,0,6-0.4c4.8-1.1,9.6-2.3,14.3-3.7c11.6-3.5,23.2-7.1,34.8-10.8
	c1.1-0.4,2.1-1.1,3.1-1.8c0.8-0.6,0.8-1.5,0-2c-1.1-0.7-2.2-1.4-3.4-2c-8.7-4.1-17.5-8.2-26.2-12.2c-6.4-3-12.8-5.9-19.1-8.9
	c-4-1.9-8.3-2.1-12.4-1c-9.3,2.5-18.5,5.3-27.8,8c-3.8,1.1-7.6,2-11.3,3.2c-2.9,0.9-5.8,1.9-8.4,3.3c-3.1,1.8-3.2,4.5-0.4,6.9
	c1.5,1.2,3,2.4,4.6,3.4c8.9,5.6,18.2,10.2,28,14.1C382.3,79.4,388.3,81.4,394.7,81z M154,97.3c4.9,0.1,9-1.3,13.2-2.4
	c3.6-0.9,7.2-2,10.7-3c6.9-1.9,13.8-3.7,20.6-5.6c6.4-1.7,12.8-3.3,19.2-5c1.3-0.4,2.7-0.9,4-1.4c1.8-0.7,1.9-1.4,0.5-2.4
	c-2.2-1.6-4.5-3.1-6.7-4.5c-9-5.7-18.1-11.2-26.9-17.2c-4.9-3.3-10.1-3.6-15.3-2.5c-7.8,1.7-15.5,4.1-23.2,6.1
	c-7.6,2-15.2,3.8-22.7,5.8c-3.6,0.9-7.1,2-10.7,3.1c-1.3,0.4-2.9,0.8-3.1,2.5c-0.2,1.5,1.3,2.1,2.3,2.9
	c10.2,7.1,20.3,14.1,30.5,21.2C148.8,96.7,151.4,97.6,154,97.3z M149.1,254.2c0.1,0-0.1-13.6-0.6-20.3c-0.4-5.5-1.5-11-2.2-16.5
	c-0.6-4.3-2.1-8.2-4-12c-1.2-2.6-3.2-4.7-5.4-6.5c-2.5-2-5.1-3.9-7.6-5.9c-6-4.7-12-9.4-18-14.2c-1.1-0.9-2.2-2.1-3.7-1.3
	c-1.4,0.7-1.3,2.4-1.4,3.8c0,0.1,0,0.2,0,0.3c0.2,3.5,0.4,7.1,0.7,10.6c0.7,9.9,1.4,19.8,2.1,29.6c0.5,7,0.9,13.9,1.3,20.9
	c0.2,3.1,1.4,5.5,3.8,7.6c5.5,4.8,10.8,9.8,16.2,14.6c3.8,3.4,7.5,6.8,11.3,10.1c2.5,2.2,5.6,1.5,6.9-1.6c0.4-1.1,0.6-2.3,0.6-3.5
	C149.2,264.7,149.1,259.4,149.1,254.2z M242.3,71.2c6.3,0.3,12.7-1.6,19.2-2.9c8-1.7,15.8-4,23.5-6.5c2.7-0.9,5.3-2,7.9-2.9
	c1.5-0.6,3.1-0.9,4.5-1.6c2-0.8,4.1-1.6,6-2.9c2.2-1.5,2.3-3.6,0.5-5.3c-1.4-1.4-3.2-2.5-4.9-3.4c-8.7-4.8-17.5-9.6-26.3-14.4
	c-2.4-1.3-5-2.2-7.8-1.9s-5.6,0.8-8.3,1.5c-11,2.9-21.9,5.9-32.9,8.9c-7.4,2-14.9,4.1-22.4,6.2c-1.3,0.4-2.9,0.7-3.1,2.4
	c-0.2,1.6,1.3,2.1,2.4,2.8c8.9,5.5,17.9,10.9,26.8,16.4C231.9,70.4,236.7,71.4,242.3,71.2z M152.8,302.9c-0.1-4-1.4-7.5-4.5-10.2
	c-1.5-1.3-2.9-2.8-4.4-4.1c-8-7-16.1-14.1-24.1-21.1c-1-0.9-2-1.7-3.1-2.4c-1.7-1.1-3.2-0.3-3.4,1.7c-0.1,0.7,0,1.4,0,2.1
	c0.1,2.7,0.3,5.5,0.5,8.2c0.8,13.9,1.7,27.9,2.4,41.8c0.2,3.8,1.5,6.7,4.2,9.3c9.8,9.4,19.4,18.9,29.2,28.3c0.4,0.4,0.7,0.7,1.1,1.1
	c0.9,0.9,2,1.4,3.3,0.9c1.3-0.6,1.2-1.7,1.2-2.8c0-2.7,0-5.5,0-8.2c0,0-0.5-11.9-0.9-17.9c-0.2-4.3-0.7-8.7-1-13 M324.5,48.9
	c1.6-0.2,3.2-0.3,4.8-0.7c3.2-0.8,6.4-1.6,9.6-2.6c7.2-2.1,14.5-4.1,21.7-6.3c6.6-2,13.3-4,19.9-6c0.9-0.3,1.7-0.6,2.5-1.1
	c1.3-0.9,1.2-2,0-2.9c-1-0.7-2.1-1.3-3.2-1.8c-4.9-2.3-9.9-4.6-14.8-6.9c-6.9-3.2-13.8-6.5-20.7-9.8c-3.4-1.6-6.9-2.2-10.6-1.2
	c-8.7,2.4-17.4,4.9-26.1,7.3c-5.3,1.5-10.6,2.9-15.9,4.4c-3,0.8-6,1.6-9,2.5c-1.1,0.3-2.4,0.8-2.6,2.2c-0.2,1.5,1.1,2,2.1,2.7
	c0.2,0.2,0.5,0.3,0.8,0.4c11.1,5.8,22.3,11.6,33.4,17.5C318.9,48.2,321.5,49,324.5,48.9z"/>
</svg>
