<?xml version="1.0" encoding="utf-8"?>
<!-- Generator: Adobe Illustrator 26.0.0, SVG Export Plug-In . SVG Version: 6.00 Build 0)  -->
<svg version="1.1" id="Layer_1" xmlns="http://www.w3.org/2000/svg" xmlns:xlink="http://www.w3.org/1999/xlink" x="0px" y="0px"
	 viewBox="0 0 453.9 479.22" style="enable-background:new 0 0 453.9 479.22;" xml:space="preserve">
<style type="text/css">
	.st0{fill:#418BB5;}
	.st1{fill:#2A5A75;}
	.st2{fill:#142B38;}
</style>
<polygon class="st0" points="135.35,79.53 58.75,100.24 179.96,188.68 358.86,124.32 355.49,119.19 293.67,83.93 210.55,117.06 "/>
<polygon class="st0" points="204.44,110.38 284.46,89.18 286.26,83.93 230.06,55.1 223.16,54.44 153.9,79.53 "/>
<polygon class="st1" points="272.63,264.01 272.63,353.28 355.87,319.52 355.87,233.37 "/>
<polygon class="st0" points="52.5,108.86 63.06,290.81 133.33,350.77 176.99,388.73 176.99,466.17 167.17,463.82 119.14,415.85 
	110.7,410.71 64.01,363.59 59.2,359.28 21.74,321.67 16.65,251.35 19.3,251.39 15.02,242.84 10.54,167.41 12.87,160.96 9.43,154.21 
	4.14,85.13 8.53,82.41 "/>
<path class="st1" d="M184.84,192.83c-1.59,2.11-3.17,198.41-3.17,198.41l90.96-37.96v-89.27c0,0,89.53-25.66,90.36-33.68
	c0.83-8.02,7.21-97.51,7.21-97.51L184.84,192.83z"/>
<polygon class="st2" points="116,246.95 60.59,207.63 58.75,289.76 112.88,331.87 "/>
<path class="st1" d="M364.01,124.7c-16.78-11.83-135.93-72.12-135.93-72.12L55,102.6L12.96,68.84l7.17-3.55l64.59-17.27l9.53,4.03
	l3.15-7.23l71.31-19.31l5.94-0.06l5.4,3.44l2.14-6.64L243.14,5.1l55.84,24.9l0.05,2.57l6.33,0.37l62.11,29.18l6.77,5.18l3.84-0.23
	l65,29.34L364.01,124.7z"/>
<polygon class="st2" points="56.98,110.38 176.54,186.18 174.96,383.3 165.16,380.36 110.25,329.82 120.4,246.95 54.5,200.79 "/>
<path class="st2" d="M184.45,465.34c0,0,1.22,5.37,6.48,2.35c5.26-3.02,64.82-28.8,64.82-28.8l5.81-4.37l12.3-3.39l140.64-61.73
	l2.93-3.38l7.86-70.7l0.79-14.29l9.48-78.66l-2.59-7.15l2.59-6.54l10.53-80.54l-76.27,23.69l-10.95,103.18l-7.69,85.27
	l-169.88,72.66v72.4H184.45z"/>
<path d="M16.12,254.24c0.14-2.01-0.28-4.08,0.88-5.91c0.45-0.71,0.08-1.1-0.39-1.53c-1.84-1.7-2.26-3.85-2.39-6.28
	c-0.42-7.57-1.06-15.12-1.58-22.68c-0.49-7.16-0.92-14.32-1.37-21.48c-0.53-8.46-1.08-16.93-1.59-25.39
	c-0.11-1.82-0.06-3.64-0.19-5.46c-0.13-1.79,0.19-3.42,1.36-4.81c0.61-0.73,0.83-1.33-0.13-1.99c-1.5-1.02-1.67-2.68-1.78-4.28
	c-0.45-6.34-0.77-12.69-1.28-19.02c-0.69-8.64-1.53-17.27-2.25-25.91c-0.32-3.82-0.46-7.65-0.75-11.47
	c-0.31-4.23-0.77-8.45-1.02-12.68c-0.19-3.22-0.39-6.48-0.12-9.69c0.27-3.16,2.13-5.69,4.89-7.21c1.99-1.09,4.23-1.84,6.43-2.43
	c9.66-2.57,19.36-5,29.03-7.54c13.35-3.51,26.68-7.1,40.05-10.55c1.39-0.36,3.02-0.18,4.46,0.13c1.02,0.22,1.76,0.34,2.36-0.57
	c1.24-1.88,3.03-2.6,5.19-3.16c11.92-3.08,23.79-6.35,35.67-9.58c11.88-3.23,23.76-6.48,35.64-9.73c1.98-0.54,3.94-0.59,5.94-0.06
	c0.59,0.16,1.53,0.14,1.9-0.22c1.55-1.49,3.57-1.86,5.45-2.41c9.51-2.76,19.07-5.35,28.6-8.07c9.24-2.65,18.44-5.39,27.67-8.08
	c1.44-0.42,2.91-0.73,4.35-1.14c2.85-0.81,5.5-0.45,8.18,0.84c7.45,3.59,14.95,7.07,22.44,10.55c8.76,4.08,17.56,8.07,26.28,12.23
	c1.48,0.71,3.12,1.42,4.06,3.05c0.26,0.45,1.2,0.8,1.77,0.74c3.2-0.37,5.86,1,8.61,2.3c17.35,8.2,34.74,16.32,52.1,24.48
	c2.18,1.02,4.37,2.02,6.45,3.23c1.09,0.63,2.13,1.56,2.83,2.6c0.73,1.06,1.55,1.37,2.73,1.53c1.47,0.2,2.99,0.49,4.33,1.1
	c8.26,3.78,16.47,7.65,24.7,11.5c10.43,4.88,20.84,9.79,31.27,14.66c2.09,0.98,4.23,1.84,6.33,2.8c2.77,1.28,4.75,3.4,5.84,6.21
	c0.53,1.37,0.89,2.97,0.73,4.4c-0.57,5.3-1.42,10.56-2.09,15.85c-0.67,5.29-1.24,10.59-1.88,15.88c-0.44,3.6-0.95,7.2-1.39,10.81
	c-0.57,4.6-1.07,9.2-1.67,13.79c-0.69,5.28-1.46,10.55-2.17,15.82c-0.32,2.4-0.6,4.8-0.83,7.2c-0.25,2.63-0.56,5.21-2.59,7.18
	c-0.53,0.51-0.46,0.99,0.02,1.56c1.43,1.71,1.75,3.63,1.43,5.87c-0.73,5.07-1.26,10.17-1.81,15.26c-0.3,2.79-0.45,5.6-0.73,8.4
	c-0.13,1.29-0.42,2.55-0.58,3.84c-1.03,8.27-2.08,16.54-3.07,24.82c-0.64,5.36-1.14,10.74-1.82,16.09
	c-0.57,4.46-1.27,8.91-1.97,13.36c-0.23,1.5-0.61,2.94-1.97,3.93c-0.52,0.37-1.18,0.87-0.56,1.75c1.32,1.89,1.1,4.06,0.87,6.15
	c-0.37,3.49-0.93,6.96-1.37,10.44c-0.35,2.8-0.63,5.61-0.97,8.41c-0.41,3.47-0.99,6.93-1.22,10.41c-0.19,2.97-1.24,5.92-1.05,8.79
	c0.24,3.56-0.87,6.88-0.94,10.35c-0.04,2.38-0.62,4.75-0.94,7.13c-0.09,0.7,0.05,1.47-0.11,2.09c-0.33,1.28-0.14,2.47-0.31,4.02
	c-0.3,2.72-0.97,5.29-0.93,7.96c0.04,2.53-0.85,3.94-3.29,5.02c-24.22,10.72-48.39,21.59-72.57,32.41
	c-20.79,9.31-41.58,18.61-62.38,27.92c-5.04,2.26-3.7,1.74-8.76,3.94c-1.05,0.46-8.46,4.06-9.8,3.32c-0.37-0.2,0,0-1.59,0.34
	c-3.86,3.95-9.09,5.44-13.89,7.62c-16.17,7.35-32.43,14.49-48.64,21.76c-3.02,1.35-5.87,3.09-8.93,4.35
	c-2.95,1.21-6.03,2.17-9.14,2.93c-1.16,0.28-2.6-0.1-3.78-0.53c-2.38-0.86-4.56-2.12-6.38-3.94c-15.88-15.86-31.78-31.7-47.66-47.56
	c-0.86-0.86-1.6-1.82-2.45-2.69c-0.7-0.72-1.35-1.62-2.22-2.01c-2.21-0.98-3.76-2.71-5.41-4.32
	c-10.55-10.31-21.07-20.67-31.61-30.99c-4.47-4.38-9.05-8.64-13.45-13.09c-1.46-1.48-2.51-3.38-3.73-5.1
	c-0.86-1.21-1.69-2.32-3.12-3.1c-1.55-0.85-2.8-2.27-4.09-3.54c-7.57-7.43-15.11-14.9-22.66-22.34c-3.17-3.12-6.36-6.22-9.54-9.34
	c-0.22-0.21-0.45-0.41-0.65-0.63c-1.81-2.06-3.32-4.15-3.37-7.16c-0.09-4.84-0.59-9.68-0.87-14.52c-0.46-7.96-0.87-15.93-1.33-23.9
	c-0.34-5.94-0.71-11.88-1.1-17.82C16.63,259.06,16.35,256.65,16.12,254.24z M190.91,261.69c0,5.15-0.07,8.58,0.03,12.02
	c0.04,1.38,0.27,2.82,0.76,4.1c0.27,0.71,1.2,1.5,1.93,1.65c2.05,0.42,4.97,0.49,8.02-0.61c3.66-1.53,7.4-2.86,11.11-4.27
	c2.14-0.81,4.3-1.56,6.43-2.39c1.91-0.74,3.78-1.58,5.68-2.33c1.91-0.76,3.85-1.48,5.77-2.21c3.32-1.26,6.58-2.76,9.99-3.7
	c2.85-0.78,5.7-1.99,8.35-2.91c2.7-0.94,5.44-2.2,8.22-3.19c5.07-1.81,7.82-5.6,8.44-10.66c0.72-5.9,0.85-11.88,1.19-17.83
	c0.13-2.32,0.05-4.65,0.21-6.97c0.5-7.04,1.19-14.06,1.59-21.11c0.34-5.94,0.41-11.9,0.51-17.85c0.02-1.38-0.22-2.81-0.58-4.15
	c-0.65-2.37-1.46-3-3.89-2.91c-1.37,0.05-2.74,0.44-4.08,0.8c-1.72,0.47-3.42,1.05-5.11,1.62c-3.13,1.04-6.26,2.09-9.38,3.18
	c-2.61,0.91-5.19,1.95-7.82,2.81c-1.97,0.64-4.04,0.96-5.99,1.64c-4.01,1.39-7.9,3.16-11.97,4.35c-4.95,1.45-9.82,3.1-14.63,4.95
	c-1.21,0.46-2.41,0.96-3.66,1.28c-6.5,1.7-9.45,6.93-9.83,11.64c-0.25,3.02-0.42,6.05-0.46,9.07c-0.14,9.69-0.2,19.37-0.29,29.06
	c-0.01,0.71,0.03,1.42,0,2.12C191.26,253.72,191.05,258.56,190.91,261.69z M281.12,227.36c0.04,0,0.08,0.01,0.13,0.01
	c-0.04,0.71-0.14,1.42-0.1,2.12c0.16,3-0.11,5.99,0.91,8.96c0.93,2.72,2.99,4.29,5.31,4.55c3.73,0.42,14.35-1.07,15.31-1.36
	c5.92-1.83,5.92-1.83,7.87-2.49c3.1-1.05,6.14-2.28,9.22-3.39c1.5-0.54,9.54-3.57,13.26-5.17c4.1-1.93,6.92-3.77,10.25-5.69
	c3.04-1.76,5.94-3.8,8.04-6.55c3.84-5.03,6.18-10.77,6.66-17.17c0.29-3.83,0.52-7.66,0.85-11.48c0.49-5.63,1.07-11.25,1.59-16.87
	c0.52-5.73,1.03-11.45,1.52-17.18c0.27-3.12,0.6-6.23-0.3-9.33c-0.26-0.9-0.7-1.33-1.65-1.44c-3.08-0.36-4.35,0.58-7.71,1.25
	c-1.82,0.36,0.99-0.22-3.32,0.84c-3.01,0.74-4.56,1.74-7.46,2.7c-2.9,0.96-5.85,1.73-8.74,2.73c-2.95,1.01-5.82,2.27-8.77,3.28
	c-4.12,1.41-8.3,2.65-12.44,4.03c-3.14,1.05-6.25,2.2-9.38,3.28c-3.72,1.29-7.6,2.24-11.14,3.9c-3.71,1.75-6.1,4.91-6.47,9.19
	c-0.51,6.01-0.97,12.02-1.37,18.03C282.47,205.19,281.81,216.27,281.12,227.36z M190.27,360.71c0,4.24-0.01,7.27,0,10.3
	c0.01,1.52-0.05,3.04,0.1,4.54c0.18,1.83,1.41,3.35,2.85,3.45c1.29,0.09,2.68,0.12,3.89-0.26c2.37-0.74,4.65-1.76,6.94-2.73
	c2.18-0.92,4.24-2.19,6.49-2.85c2.93-0.86,5.59-2.31,8.39-3.43c2.37-0.96,4.7-2.02,7.07-3c2.75-1.14,5.53-2.23,8.27-3.38
	c1.78-0.75,0,0,5.3-2.3c3.42-1.49,6.65-2.69,9.78-4.23c3.18-1.57,5.72-4.58,7.72-7.62c2.03-3.08,3.58-6.51,4.29-10.19
	c0.87-4.52,1.7-9.05,2.38-13.6c0.39-2.58,0.46-5.2,0.66-7.8c0.15-1.91,0.25-3.82,0.42-5.73c0.24-2.81,0.57-5.62,0.77-8.44
	c0.47-6.58-0.16-13.11-1.27-19.57c-0.59-3.44-2.25-6.55-5.98-7.59c-2.53-0.71-5.22-0.77-7.76,0.13c-3.97,1.4-7.9,2.9-11.84,4.36
	c-8.19,3.04-16.39,6.05-24.57,9.13c-4.31,1.62-8.53,3.47-12.87,4.99c-1.55,0.54-2.95,1.22-4.25,2.16c-2.45,1.76-4.31,4-4.76,7.06
	c-0.36,2.49-0.58,5.02-0.64,7.53c-0.16,6.16-0.12,12.33-0.31,18.49C191.04,340.72,190.61,351.31,190.27,360.71z M369.77,206.38
	c0.05,0,0.09,0.01,0.14,0.01c0,1.21-0.06,2.43,0.02,3.64c0.07,1.18,1.27,2.71,2.27,2.75c1.51,0.07,3.12,0.24,4.52-0.18
	c2.99-0.9,5.87-2.14,8.8-3.25c2.12-0.81,4.18-1.9,6.38-2.38c3.92-0.87,7.48-2.7,11.28-3.84c1.41-0.42,2.81-1.16,4.19-1.47
	c1.54-0.14,3.03-0.93,4.53-1.47c2.98-1.07,5.98-2.11,8.93-3.24c2.67-1.02,5.46-1.76,7.87-3.38c1.13-0.76,2.46-1.39,3.28-2.41
	c2.19-2.72,3.27-5.91,3.68-9.42c0.95-8.11,2.09-16.21,3.13-24.31c0.62-4.8,1.18-9.61,1.83-14.4c0.43-3.19,1.05-6.36,1.44-9.55
	c0.52-4.21,0.85-8.43,1.34-12.64c0.33-2.78-1.87-4.91-5.01-4.16c-2.33,0.55-4.67,1.08-6.98,1.73c-1.92,0.55-3.8,1.26-5.69,1.92
	c-2.34,0.81-4.64,1.73-7.01,2.44c-3.12,0.94-6.35,1.45-9.43,2.65c-4.4,1.71-8.9,3.17-13.39,4.66c-3.99,1.33-8.04,2.5-12.03,3.83
	c-1.02,0.34-2.12,0.82-2.87,1.56c-2.26,2.22-3.99,4.8-4.38,8.08c-0.33,2.8-0.79,5.59-1.08,8.4c-0.35,3.41-0.53,6.85-0.89,10.26
	c-0.48,4.5-1.1,8.98-1.61,13.47c-0.31,2.71-0.53,5.42-0.82,8.13C371.41,191.33,370.58,198.86,369.77,206.38z M189.8,443.84
	c0,6.58,0.04,11.13-0.01,15.68c-0.04,3.6,2.86,5.68,6.37,3.86c2.01-1.04,4.06-2.02,6.15-2.87c5.12-2.08,10.05-4.61,15.19-6.66
	c3.49-1.39,6.73-3.41,10.23-4.77c3.57-1.39,6.75-3.53,10.4-4.79c4.47-1.55,8.77-3.64,12.97-5.84c2.01-1.05,3.98-2.62,5.31-4.43
	c1.66-2.25,2.5-5.01,2.57-7.94c0.14-5.35,0.35-10.7,0.59-16.05c0.19-4.33,0.47-8.65,0.71-12.98c0.42-7.45,0.87-14.9,1.22-22.36
	c0.07-1.39-0.14-2.83-0.45-4.19c-0.24-1.07-0.79-2.18-2.11-2.27c-1.3-0.08-2.71-0.26-3.89,0.14c-3.62,1.21-7.19,2.59-10.7,4.07
	c-8.88,3.74-17.72,7.58-26.59,11.35c-6.45,2.74-12.93,5.41-19.37,8.15c-5.45,2.32-7.8,6.66-7.89,12.41
	c-0.06,3.74-0.09,7.48-0.16,11.22C190.15,425.66,189.95,435.76,189.8,443.84z M362.56,288.22c0.11,2.46,0.2,5.69,0.41,8.91
	c0.07,1.09,0.36,2.19,0.72,3.22c0.99,2.86,3.53,4.51,6.52,4.85c3.16,0.35,5.85-1.04,8.65-1.97c2.54-0.84,4.96-2.02,7.46-2.97
	c2.66-1.02,5.37-1.9,8.03-2.94c3.65-1.42,7.26-2.93,10.89-4.38c4.01-1.61,7.96-3.37,12.05-4.76c4.5-1.53,6.46-5.11,7.28-9.19
	c1.14-5.73,1.69-11.57,2.38-17.38c0.96-8.02,1.76-16.05,2.74-24.06c0.77-6.3,1.74-12.57,2.55-18.86c0.24-1.9,0.36-3.83,0.31-5.74
	c-0.04-1.54-0.7-3.13-2.21-3.58c-1.14-0.34-2.61-0.05-3.8,0.33c-2.8,0.9-5.51,2.08-8.28,3.06c-4.04,1.42-8.13,2.71-12.17,4.14
	c-2.61,0.93-5.91,1.55-8.51,2.5c-4.32,1.36-7.6,2.78-11.7,4.34c-1.1,0.42-2.26,1.17-3.28,1.74c-6.09,3.37-10.54,8.31-13.1,14.77
	c-1.94,4.88-2.87,10.07-3.7,15.24c-0.45,2.78-0.9,5.58-1.06,8.39c-0.17,2.86-0.32,5-0.87,8.52c-0.03,0.19-0.07,0.6-0.07,0.6
	C363.81,272.56,362.9,282.38,362.56,288.22z M279.48,323.44c0.18,1.84-0.23,3.93,0.95,5.94c1.6,2.73,3.69,4.47,6.8,5.39
	c2.74,0.81,5.48,1.07,8,0.16c7.07-2.55,14.02-5.42,20.98-8.27c3.45-1.41,6.73-3.22,10.21-4.54c7.34-2.77,12.79-7.71,16.87-14.23
	c2.65-4.24,4.7-8.71,5.07-13.89c0.57-8.14,1.52-16.26,2.19-24.4c0.34-4.12,0.55-8.25,0.57-12.38c0.03-7.89-5.8-12.08-12.81-11.52
	c-1.05,0.08-1.55,0.44-3.11,0.84c-2.2,0.56-4.07,1.38-6.16,1.9c-0.42,0.36-1.86,0.45-5.46,2.06c-1.64,0.73-3.4,1.28-5.09,1.95
	c-3.36,1.32-6.13,2.57-10.1,3.81c-2.87,0.62-5.44,1.89-7.94,3.07c-4.37,2.05-8.44,4.87-11.33,8.93c-1.44,2.03-2.56,4.28-3.98,6.33
	c-1.43,2.07-1.87,4.49-2.68,6.77c-1.06,2.97-1.2,6.1-1.26,9.25c-0.08,4.03-0.4,8.06-0.61,12.09
	C280.23,309.53,279.86,316.36,279.48,323.44z M326.4,338c-3.34,1.15-6.66,2.34-9.93,3.66c-2.35,0.94-6.95,3.07-14.35,6.03
	c-4.44,2.56-8.87,5.11-13.31,7.66c-1.2,0.69-4.41,2.6-4.75,2.95c-1.97,1.96-3.79,4.04-5.41,6.31c-1.78,2.48-3.2,5.19-3.76,8.12
	c-1.33,7.02-1.79,14.15-1.78,21.3c0,0.51-0.01,1.01-0.03,1.52c-0.26,7.27-0.51,14.53-0.77,21.8c-0.03,0-0.06,0-0.09,0
	c0,1.92,0.05,3.84-0.01,5.76c-0.12,3.38,2.56,5.44,5.82,4.08c2.93-1.22,5.9-2.36,8.76-3.71c3.81-1.8,7.63-3.59,11.5-5.27
	c6.77-2.93,13.46-6.09,20.12-9.27c4.29-2.05,8.79-3.55,13.01-5.69c2.28-1.16,4.71-2.15,6.74-3.65c1.53-1.14,3.13-2.81,3.66-4.56
	c0.96-3.15,1.33-6.52,1.6-9.83c0.5-6.03,0.75-12.09,1.1-18.14c0.42-7.36,0.79-14.72,1.3-22.07c0.16-2.33-0.96-4.26-1.47-6.37
	c-0.01-0.04-0.02-0.07-0.05-0.09c-0.25-0.3-1.97-2.14-5.19-2.12c-2.19,0.31-4.52-0.09-6.59,0.52 M118.85,196.26
	c0,13.1-0.09,23.01,0.04,32.91c0.07,5.55,1.86,10.26,6.58,13.88c12.75,9.79,25.29,19.85,37.91,29.8c0.63,0.5,1.29,0.97,2,1.36
	c2.14,1.17,3.91,0.68,5-1.51c0.43-0.86,0.67-1.89,0.69-2.86c0.16-7.47,0.24-14.95,0.34-22.42c0.07-5.56,0.14-11.12,0.16-16.68
	c0.05-9.79,0.09-19.58,0.08-29.37c-0.01-3.61-1.47-6.85-4.15-9.05c-4.19-3.45-8.75-6.45-13.2-9.57
	c-5.75-4.03-11.55-7.97-17.31-11.98c-4.2-2.92-8.31-5.96-12.55-8.83c-2.67-1.81-5.27-0.54-5.67,2.67c-0.23,1.8-0.43,3.63-0.41,5.44
	C118.5,179.84,118.72,189.64,118.85,196.26z M169.75,334.74c0-11.43-0.08-22.86,0.04-34.28c0.05-4.85-1.81-8.4-5.67-11.31
	c-5.44-4.1-10.65-8.53-15.94-12.83c-5.09-4.13-10.15-8.3-15.28-12.39c-1.41-1.12-2.95-2.1-4.49-3.03c-1.99-1.21-3.75-1.04-5.58,0.36
	c-1.63,1.24-2.46,3.01-2.75,4.89c-0.58,3.78-1.2,7.6-1.21,11.4c-0.05,12.62-0.7,25.26,0.5,37.87c0.25,2.6,0.6,5.2,0.94,7.8
	c0.54,4.24,2.14,8.12,3.95,11.95c1.4,2.96,3.28,5.53,5.69,7.72c10.12,9.21,20.23,18.44,30.35,27.64c1.18,1.08,2.4,2.13,3.68,3.09
	c2.18,1.62,4.78,0.48,5.08-2.18c0.07-0.6,0.05-1.21,0.06-1.82C169.25,357.99,169.67,334.74,169.75,334.74z M185.15,176.97
	c0.79-0.11,1.59-0.2,2.38-0.35c6.71-1.25,13.11-3.6,19.61-5.61c8.02-2.48,15.97-5.2,23.96-7.77c7.33-2.36,14.7-4.63,22.02-7.02
	c1.12-0.36,2.21-1,3.13-1.73c1.27-1.01,1.31-2.55,0.08-3.64c-1.04-0.92-2.27-1.65-3.47-2.38c-6.44-3.87-12.93-7.67-19.36-11.57
	c-7.21-4.37-14.34-8.85-21.57-13.18c-1.52-0.91-3.26-1.51-4.98-2c-4-1.14-7.97-0.64-11.89,0.53c-5.08,1.51-10.16,3-15.24,4.51
	c-8.24,2.45-16.47,4.9-24.7,7.35c-5.37,1.6-10.74,3.18-16.09,4.83c-1.51,0.47-3.11,0.94-4.4,1.8c-2.39,1.6-2.35,2.97-0.16,4.75
	c0.47,0.38,0.98,0.71,1.48,1.05c12.71,8.73,25.47,17.37,38.09,26.23C177.47,175.16,180.91,176.93,185.15,176.97z M355.46,383.55
	c0,0.08-0.04,0.79,0.01,1.5c0.2,3.05,1.39,4.16,4.4,3.87c1.17-0.11,2.35-0.45,3.44-0.91c2.98-1.24,5.9-2.63,8.87-3.9
	c3.72-1.59,7.48-3.08,11.2-4.68c4.97-2.13,9.91-4.34,14.87-6.48c2.83-1.22,5.71-2.33,8.51-3.61c1.94-0.88,4.15-1.6,5.58-3.05
	c1.94-1.97,3.37-4.51,3.79-7.41c0.39-2.69,0.79-5.39,1.08-8.1c1.18-11.2,1.93-22.45,3.75-33.59c0.65-3.97,0.74-8.04,1.04-12.06
	c0.06-0.79,0.03-1.64-0.19-2.39c-0.4-1.37-2.15-2.51-3.19-2.13c-4.4,1.59-8.81,3.16-13.18,4.85c-3.6,1.4-7.13,2.99-10.72,4.42
	c-4.4,1.75-8.86,3.36-13.24,5.17c-4.5,1.85-8.94,3.83-13.37,5.83c-4.23,1.91-7.17,4.96-7.77,9.75c-0.63,5-1.22,10-1.68,15.02
	c-0.8,8.73-1.49,17.47-2.22,26.2C356.11,375.55,355.81,379.24,355.46,383.55z M292.81,94.45c-1.68,0.21-4.74,0.31-7.66,1
	c-8.23,1.96-16.37,4.26-24.59,6.25c-8.33,2.02-16.63,4.13-24.38,7.89c-2.52,1.22-5.07,2.52-7.27,4.21c-2.26,1.75-1.95,3.42,0.5,4.98
	c3.66,2.34,7.34,4.63,11.02,6.94c10.7,6.69,21.4,13.38,32.09,20.08c1.81,1.14,3.4,1,5.67,0.54c4.47-0.92,18.65-6.06,26.69-8.63
	c10.05-3.22,20.09-6.47,30.13-9.71c4.88-1.57,9.75-3.15,14.63-4.73c1.31-0.42,2.6-1.15,2.64-2.58c0.04-1.45-1.33-2.14-2.52-2.73
	c-5.22-2.6-10.49-5.13-15.67-7.81c-7.68-3.98-14.31-7.77-22.91-12.17c-0.24-0.17-0.54-0.26-0.81-0.37
	C305.17,95.49,299.75,94.5,292.81,94.45z M108.9,190.13c0-1.86,0.08-4.09-0.01-6.31c-0.31-7.67-0.78-15.34-0.98-23.01
	c-0.08-3.24-0.85-6.18-2.49-8.9c-0.5-0.83-1.17-1.66-1.96-2.22c-4.09-2.93-8.23-5.8-12.37-8.66c-9.33-6.45-18.7-12.85-27.98-19.37
	c-1.53-1.08-2.89-1.29-4.49-0.55c-1.56,0.72-1.72,2.14-1.67,3.59c0.09,2.73,0.28,5.45,0.39,8.17c0.29,7.27,0.51,14.54,0.83,21.81
	c0.34,7.77,0.66,15.55,1.23,23.31c0.22,2.98,0.94,5.96,1.71,8.87c1.42,5.4,4.66,9.78,8.31,13.87c5.86,6.57,12.9,11.76,19.92,16.98
	c3.64,2.71,7.51,5.01,11.75,6.63c2.54,0.97,4.58,0.4,6.08-1.89c0.81-1.23,1.51-2.69,1.72-4.13c0.42-2.89,0.66-5.83,0.62-8.74
	C109.43,203.22,109.13,196.86,108.9,190.13z M119.75,134.08c1.7-0.18,3.45-0.14,5.08-0.57c5.15-1.33,10.26-2.85,15.39-4.27
	c6.49-1.8,12.98-3.56,19.47-5.36c5.42-1.51,10.87-2.95,16.23-4.65c2.46-0.78,5.03-1.52,6.9-3.55c2.06-2.24,2.2-4.98-0.01-6.98
	c-2.76-2.5-5.59-4.95-8.63-7.08c-6.59-4.61-13.51-8.71-20.74-12.24c-3.86-1.89-7.82-3.57-12.11-4.42c-4.2-0.84-8.43-1.16-12.62-0.68
	c-3.97,0.46-7.88,1.54-11.8,2.41c-1.17,0.26-2.3,0.76-3.46,1.07c-5.43,1.44-10.87,2.84-16.31,4.26c-5.44,1.42-10.9,2.81-16.33,4.28
	c-2.9,0.78-5.84,1.51-8.62,2.61c-3.04,1.21-3.15,3.42-0.42,5.33c12.78,8.94,25.61,17.83,38.38,26.8
	C113.07,133.08,116.11,134.39,119.75,134.08z M169.93,426.09c-0.01,0-0.01,0-0.02,0c0-3.03,0-6.07,0-9.1
	c-0.01-6.67-0.11-13.34,0-20.01c0.05-3.16-1.16-5.71-3.17-7.93c-1.9-2.09-3.92-4.08-6-5.99c-5.35-4.9-10.74-9.76-16.15-14.58
	c-6.23-5.56-12.5-11.08-18.78-16.59c-0.42-0.37-0.98-0.71-1.53-0.81c-2.15-0.39-3.52,0.5-3.71,2.87c-0.26,3.21-0.22,6.44-0.18,9.66
	c0.18,11.62,0.43,23.24,0.63,34.86c0.08,4.65,0.06,9.3,0.18,13.95c0.07,2.52,1.1,4.61,2.94,6.43c13.13,13.04,26.2,26.14,39.29,39.21
	c0.64,0.64,1.3,1.28,2.02,1.83c0.9,0.69,1.75,0.67,2.71-0.12c1.38-1.15,1.8-2.53,1.79-4.26C169.9,445.71,169.93,435.9,169.93,426.09
	z M369.97,115.67c1.31,0,2.68,0.24,3.93-0.05c2.53-0.6,4.99-1.49,7.47-2.27c9.29-2.9,18.58-5.78,27.85-8.73
	c6.31-2.01,12.59-4.11,18.87-6.19c1.14-0.38,2.31-0.75,3.36-1.34c1.91-1.07,1.94-2.46,0.17-3.66c-0.5-0.34-1.05-0.59-1.59-0.85
	c-7.91-3.74-15.8-7.51-23.73-11.22c-7.92-3.71-15.86-7.36-23.79-11.04c-4.06-1.89-8.25-2.6-12.64-1.35
	c-4.82,1.38-9.64,2.8-14.44,4.24c-5.76,1.73-11.5,3.53-17.26,5.25c-6.44,1.92-12.9,3.78-19.35,5.68c-1.35,0.4-2.74,0.7-4.01,1.27
	c-2.33,1.05-2.47,3.25-0.36,4.68c0.75,0.5,1.58,0.89,2.39,1.29c7.54,3.78,15.1,7.54,22.64,11.34c7.36,3.71,14.72,7.42,22.05,11.2
	C364.21,115.31,366.97,116.02,369.97,115.67z M112.62,370.89c-0.15-6.86-0.33-13.72-0.62-20.58c-0.06-1.48-0.34-3.09-0.99-4.4
	c-1.74-3.5-3.47-7.07-5.72-10.24c-2.55-3.58-5.47-6.95-8.6-10.03c-4.41-4.35-9.03-8.51-13.81-12.45c-3.39-2.79-7.12-5.2-10.85-7.54
	c-2.53-1.59-4.85-0.85-6.53,1.61c-0.95,1.38-1.4,2.89-1.34,4.57c0.19,4.84,0.65,9.69,0.5,14.52c-0.23,7.57,0.93,15.1,0.35,22.69
	c-0.26,3.4,0.13,6.87,0.43,10.29c0.3,3.48,1.47,6.71,4.03,9.21c7.69,7.51,15.41,14.98,23.14,22.45c3.76,3.63,7.54,7.23,11.36,10.8
	c1.24,1.16,2.62,2.19,3.94,3.27c1.22,1,2.74,1.01,4.04,0.61c1.29-0.4,0.71-1.9,0.86-2.92c0.09-0.59,0.01-1.21,0.01-1.82
	c0-6.57,0-13.14,0-19.72 M109.22,276.59c-0.18-12.27-2.22-20.83-6.35-28.81c-1.98-3.83-4.42-7.38-7.95-10.1
	c-6.67-5.14-13.2-10.45-19.84-15.62c-1.34-1.04-2.86-1.88-4.4-2.62c-1.1-0.53-2.2-0.39-3.44,0.21c-2.96,1.42-3.62,4.09-4.32,6.84
	c-0.74,2.92-0.08,5.82,0,8.73c0.16,5.55,0.31,11.09,0.61,16.63c0.3,5.63,0.77,11.24,1.19,16.86c0.61,8.02,3.69,15.13,8.09,21.75
	c1.98,2.98,4.69,5.23,7.32,7.56c5.46,4.83,10.98,9.61,16.54,14.34c1.28,1.09,2.78,1.91,4.19,2.84c2.74,1.81,5.2,0.28,6.77-1.84
	c0.59-0.79,1.02-1.75,1.34-2.7c1.26-3.68,1.34-7.49,1.17-11.33C109.76,290.68,109.44,282,109.22,276.59z M52,180.79
	c-0.2-2.92-0.44-5.85-0.6-8.77c-0.28-5.25-0.44-10.5-0.77-15.74c-0.72-11.39-1.46-22.78-2.33-34.16c-0.38-4.97-1.93-9.29-6.58-12.22
	c-6.13-3.86-11.94-8.21-17.91-12.33c-4.29-2.96-8.59-5.88-12.9-8.8c-2.26-1.53-3.7-1.07-4.6,1.5c-0.23,0.65-0.35,1.38-0.36,2.07
	c-0.02,1.41,0,2.83,0.12,4.24c0.69,8.05,1.48,16.09,2.1,24.14c0.75,9.67,1.35,19.35,2.04,29.02c0.11,1.51,0.21,3.04,0.58,4.49
	c0.84,3.27,2.22,6.25,5.02,8.38c10.04,7.65,20.06,15.33,30.11,22.98c0.8,0.61,1.67,1.17,2.59,1.54c1.43,0.58,2.41,0.18,2.83-1.28
	C51.8,184.22,52.08,180.81,52,180.79z M213.34,103.6c7.05,0.27,14.35-1.73,21.62-3.84c5.89-1.71,11.75-3.51,17.59-5.38
	c4.02-1.29,8.02-2.64,11.92-4.24c1.41-0.58,2.71-1.78,3.69-2.99c1.77-2.21,1.39-4.89-0.81-6.72c-1.31-1.09-2.72-2.12-4.21-2.94
	c-5.84-3.2-11.72-6.32-17.6-9.45c-1.51-0.81-3.06-1.55-4.59-2.34c-5.02-2.59-10.36-3.93-16-3.95c-3.84-0.02-7.75-0.35-11.5,0.23
	c-4.96,0.78-9.83,2.19-14.68,3.56c-7.26,2.05-14.45,4.35-21.71,6.42c-2.95,0.84-5.68,2.03-8.23,3.71c-1.49,0.98-2.12,2.33-2.14,4.08
	c-0.02,1.28,0.22,2.46,1.13,3.34c1.37,1.32,2.72,2.74,4.32,3.72c6.7,4.09,13.49,8.04,20.25,12.03
	C198.66,102.54,205.55,103.63,213.34,103.6z M299.99,78.18c2.01-0.12,4.08,0.01,6.02-0.42c4.8-1.07,9.58-2.26,14.28-3.67
	c11.64-3.51,23.24-7.15,34.84-10.8c1.11-0.35,2.14-1.07,3.1-1.78c0.78-0.58,0.78-1.46-0.05-2.03c-1.06-0.74-2.18-1.44-3.35-1.99
	c-8.73-4.09-17.48-8.15-26.23-12.21c-6.38-2.96-12.76-5.93-19.15-8.88c-4.02-1.86-8.3-2.09-12.44-0.98
	c-9.3,2.49-18.5,5.34-27.75,8.02c-3.75,1.09-7.56,1.99-11.28,3.19c-2.85,0.92-5.76,1.88-8.35,3.34c-3.14,1.77-3.19,4.54-0.42,6.88
	c1.46,1.24,3.03,2.36,4.64,3.39c8.85,5.62,18.22,10.25,27.96,14.07C287.63,76.58,293.57,78.57,299.99,78.18z M59.27,94.51
	c4.93,0.14,9.04-1.34,13.22-2.37c3.61-0.89,7.15-2.02,10.74-3c6.87-1.87,13.75-3.73,20.63-5.56c6.4-1.7,12.81-3.33,19.21-5.04
	c1.35-0.36,2.68-0.87,3.98-1.4c1.75-0.72,1.92-1.38,0.47-2.44c-2.18-1.6-4.46-3.07-6.74-4.53c-8.97-5.73-18.07-11.25-26.88-17.21
	c-4.88-3.3-10.1-3.64-15.34-2.53c-7.83,1.66-15.5,4.09-23.25,6.13c-7.56,1.98-15.16,3.84-22.72,5.82c-3.58,0.94-7.14,2-10.69,3.06
	c-1.35,0.4-2.9,0.84-3.07,2.51c-0.15,1.52,1.26,2.15,2.32,2.89C31.3,77.92,41.48,84.95,51.6,92.07
	C54.1,93.84,56.74,94.79,59.27,94.51z M54.44,251.33c0.08,0-0.07-13.55-0.61-20.29c-0.45-5.51-1.53-10.97-2.24-16.47
	c-0.55-4.26-2.12-8.18-3.96-11.99c-1.25-2.58-3.17-4.69-5.36-6.49c-2.48-2.04-5.09-3.92-7.62-5.9c-6.02-4.71-12.03-9.43-18.02-14.17
	c-1.11-0.88-2.19-2.11-3.71-1.32c-1.44,0.74-1.28,2.38-1.4,3.77c-0.01,0.1,0,0.2,0.01,0.3c0.23,3.53,0.44,7.06,0.69,10.59
	c0.7,9.88,1.45,19.75,2.13,29.63c0.48,6.96,0.91,13.91,1.33,20.87c0.19,3.09,1.4,5.54,3.76,7.62c5.46,4.8,10.79,9.77,16.19,14.64
	c3.75,3.39,7.5,6.78,11.32,10.09c2.52,2.18,5.62,1.46,6.86-1.59c0.44-1.08,0.6-2.34,0.61-3.53
	C54.48,261.84,54.44,256.58,54.44,251.33z M147.61,68.39c6.31,0.33,12.73-1.57,19.22-2.93c7.97-1.67,15.79-3.97,23.53-6.5
	c2.67-0.87,5.26-1.97,7.9-2.93c1.51-0.55,3.08-0.93,4.55-1.55c2.03-0.85,4.15-1.64,5.95-2.86c2.18-1.48,2.33-3.61,0.46-5.35
	c-1.45-1.35-3.18-2.47-4.92-3.44c-8.73-4.84-17.51-9.6-26.27-14.38c-2.43-1.33-5.03-2.22-7.8-1.92c-2.78,0.3-5.58,0.79-8.28,1.51
	c-10.97,2.91-21.91,5.94-32.86,8.93c-7.45,2.04-14.91,4.08-22.35,6.18c-1.31,0.37-2.94,0.66-3.11,2.43
	c-0.15,1.62,1.35,2.14,2.41,2.79c8.91,5.49,17.9,10.85,26.75,16.43C137.25,67.61,142.02,68.62,147.61,68.39z M58.13,300.07
	c-0.1-4-1.36-7.5-4.45-10.22c-1.51-1.33-2.92-2.79-4.44-4.12c-8.02-7.04-16.05-14.07-24.08-21.09c-0.98-0.86-1.97-1.74-3.07-2.43
	c-1.69-1.07-3.18-0.29-3.42,1.7c-0.08,0.7-0.05,1.42-0.01,2.12c0.15,2.73,0.32,5.45,0.48,8.17c0.81,13.93,1.71,27.85,2.39,41.78
	c0.18,3.8,1.54,6.73,4.24,9.33c9.77,9.39,19.45,18.86,29.17,28.31c0.36,0.35,0.71,0.72,1.08,1.06c0.94,0.86,1.96,1.44,3.29,0.85
	c1.27-0.57,1.24-1.7,1.23-2.83c-0.01-2.73,0-5.46,0-8.19c-0.02,0-0.53-11.91-0.87-17.85c-0.25-4.33-0.66-8.66-1.02-12.98
	 M229.77,46.12c1.59-0.21,3.22-0.3,4.77-0.67c3.22-0.77,6.41-1.65,9.59-2.56c7.24-2.06,14.48-4.14,21.7-6.27
	c6.64-1.96,13.27-3.99,19.89-6.02c0.86-0.26,1.73-0.63,2.47-1.13c1.27-0.86,1.25-2.01-0.04-2.89c-0.99-0.68-2.07-1.26-3.16-1.78
	c-4.91-2.31-9.85-4.56-14.76-6.87c-6.9-3.25-13.78-6.53-20.68-9.79c-3.38-1.6-6.88-2.23-10.57-1.2c-8.69,2.43-17.37,4.86-26.06,7.28
	c-5.31,1.48-10.63,2.94-15.95,4.41c-3,0.83-6.02,1.58-8.98,2.53c-1.09,0.35-2.4,0.81-2.61,2.25c-0.21,1.52,1.07,2.02,2.06,2.68
	c0.25,0.17,0.53,0.3,0.79,0.44c11.14,5.83,22.29,11.64,33.41,17.49C224.21,45.36,226.83,46.21,229.77,46.12z"/>
</svg>
