<?xml version="1.0" encoding="utf-8"?>
<!-- Generator: Adobe Illustrator 26.0.1, SVG Export Plug-In . SVG Version: 6.00 Build 0)  -->
<svg version="1.1" id="Layer_1" xmlns="http://www.w3.org/2000/svg" xmlns:xlink="http://www.w3.org/1999/xlink" x="0px" y="0px"
	 viewBox="0 0 1728 359.1" style="enable-background:new 0 0 1728 359.1;" xml:space="preserve">
<style type="text/css">
	.st0{enable-background:new    ;}
	.st1{fill:#D5E5F2;}
	.st2{fill:#418BB5;}
	.st3{fill:#2A5A75;}
	.st4{fill:#142B38;}
</style>
<g class="st0">
	<path class="st1" d="M283.7,313.8h-60V211.6H107.8v102.2H47.3v-265h60.5v93.9h115.9V48.8h60V313.8z"/>
	<path class="st1" d="M824.2,303.9L704.9,158.2v155.6h-54.7V94c0-35.2,15.7-49.5,32.9-49.5c7.3,0,14.6,2.4,24.2,14.3l119.3,145.7
		V48.9h55v219.4c0,35.2-15.7,49.9-33.2,49.9C840.8,318.2,833.5,315.8,824.2,303.9z"/>
	<path class="st1" d="M1097.6,154.6c47.4,0,73.1,24.2,73.1,72.5c0,54.3-24.2,86.7-83.5,86.7H905.8l38.7-68.1h147.3
		c14.3,0,20.7-5.5,20.7-19.4c0-13.5-6.4-19-20.7-19h-106c-50.1,0-73.1-30.5-73.1-76c0-49.9,24.5-82.4,83.5-82.4h169.1l-38.7,68.9
		H991.5c-14,0-20.7,4.8-20.7,18.2c0,13.5,6.7,18.6,20.7,18.6L1097.6,154.6L1097.6,154.6z"/>
	<path class="st1" d="M1423.6,245.7l-38.7,68.1h-187.5v-265H1423l-39,68.9h-126v31.7h154.3l-34.6,60.2h-119.6v36h165.5L1423.6,245.7
		L1423.6,245.7z"/>
	<path class="st1" d="M1617.5,303.9l-119.3-145.7v155.6h-54.7V94c0-35.2,15.7-49.5,32.9-49.5c7.3,0,14.6,2.4,24.2,14.3l119.3,145.7
		V48.9h55v219.4c0,35.2-15.7,49.9-33.2,49.9C1634.1,318.2,1626.8,315.8,1617.5,303.9z"/>
</g>
<polygon class="st2" points="402.6,79.3 349.2,93.7 433.7,155.3 558.5,110.4 556.1,106.9 513,82.3 455,105.4 "/>
<polygon class="st2" points="450.8,100.7 506.6,86 507.9,82.3 468.7,62.2 463.9,61.8 415.5,79.3 "/>
<polygon class="st3" points="498.3,207.8 498.3,270.1 556.4,246.5 556.4,186.5 "/>
<polygon class="st2" points="344.8,99.7 352.2,226.5 401.2,268.4 431.7,294.9 431.7,348.8 424.8,347.2 391.3,313.8 385.4,310.1 
	352.9,277.3 349.5,274.3 323.4,248.1 319.9,199.1 321.7,199.1 318.7,193.1 315.6,140.5 317.2,136 314.8,131.3 311.1,83.2 
	314.2,81.2 "/>
<path class="st3" d="M437.1,158.3c-1.1,1.5-2.2,138.3-2.2,138.3l63.5-26.5v-62.3c0,0,62.4-17.9,63-23.5c0.6-5.6,5-68,5-68
	L437.1,158.3z"/>
<polygon class="st4" points="389.1,196 350.5,168.6 349.2,225.8 387,255.2 "/>
<path class="st3" d="M562,110.7c-11.7-8.2-94.8-50.3-94.8-50.3L346.6,95.3l-29.3-23.6l5-2.5l45-12.1L374,60l2.2-5l49.7-13.5l4.1-0.1
	l3.8,2.4l1.5-4.6l42.5-11.9l38.9,17.4v1.8l4.4,0.3l43.3,20.4l4.7,3.6l2.6-0.1L617.1,91L562,110.7z"/>
<polygon class="st4" points="348,100.7 431.3,153.6 430.3,291 423.4,289 385.1,253.7 392.2,196 346.2,163.8 "/>
<path class="st4" d="M436.9,348.3c0,0,0.8,3.8,4.5,1.6s45.2-20.1,45.2-20.1l4-3.1l8.6-2.4l98-43l2-2.4l5.5-49.3l0.6-10l6.6-54.9
	l-1.8-5l1.8-4.5l7.3-56.1l-53.2,16.5l-7.7,72l-5.4,59.5l-118.5,50.7v50.5L436.9,348.3L436.9,348.3z"/>
<path d="M319.5,201.1c0.1-1.4-0.2-2.9,0.6-4.1c0.3-0.5,0.1-0.8-0.3-1c-1.3-1.2-1.6-2.6-1.7-4.4c-0.3-5.3-0.8-10.5-1.1-15.8
	c-0.3-5-0.6-10-1-15c-0.3-5.9-0.8-11.8-1.1-17.7c-0.1-1.3-0.1-2.5-0.1-3.8c-0.1-1.3,0.1-2.4,1-3.3c0.4-0.5,0.6-0.9-0.1-1.4
	c-1-0.7-1.2-1.9-1.3-3c-0.3-4.4-0.6-8.9-0.9-13.2c-0.5-6-1-12.1-1.5-18.1c-0.2-2.6-0.3-5.4-0.6-8c-0.2-2.9-0.6-5.9-0.7-8.9
	c-0.1-2.2-0.3-4.5-0.1-6.8c0.2-2.2,1.5-4,3.4-5c1.4-0.8,2.9-1.3,4.5-1.7c6.8-1.8,13.5-3.5,20.2-5.2c9.3-2.4,18.6-5,28-7.4
	c1-0.3,2.1-0.1,3.1,0.1c0.7,0.1,1.3,0.2,1.7-0.4c0.8-1.3,2.1-1.8,3.6-2.2c8.3-2.2,16.6-4.5,24.9-6.7c8.3-2.2,16.6-4.5,24.8-6.8
	c1.4-0.3,2.7-0.4,4.1-0.1c0.4,0.1,1,0.1,1.3-0.1c1-1,2.5-1.3,3.8-1.7c6.6-2,13.3-3.7,19.9-5.6c6.4-1.9,12.8-3.8,19.3-5.6
	c1-0.3,2-0.5,3.1-0.8c2-0.6,3.8-0.3,5.7,0.6c5.2,2.5,10.5,5,15.6,7.3c6.1,2.9,12.3,5.6,18.3,8.5c1,0.5,2.2,1,2.9,2.1
	c0.2,0.3,0.8,0.6,1.3,0.5c2.2-0.3,4.1,0.7,6,1.6c12.1,5.7,24.2,11.4,36.3,17.1c1.5,0.7,3.1,1.4,4.5,2.2c0.8,0.4,1.5,1.1,2,1.8
	c0.5,0.8,1,1,1.9,1c1,0.1,2.1,0.3,3,0.8c5.8,2.6,11.5,5.4,17.2,8c7.3,3.4,14.5,6.8,21.8,10.2c1.5,0.7,2.9,1.3,4.4,2
	c2,0.9,3.3,2.4,4,4.3c0.3,1,0.6,2.1,0.5,3.1c-0.4,3.7-1,7.4-1.5,11.1c-0.5,3.7-0.8,7.4-1.3,11.1c-0.3,2.5-0.6,5-1,7.5
	c-0.4,3.2-0.8,6.4-1.2,9.6c-0.5,3.7-1,7.3-1.5,11c-0.2,1.7-0.4,3.3-0.6,5c-0.1,1.8-0.4,3.6-1.8,5c-0.3,0.3-0.3,0.7,0,1.1
	c1,1.2,1.3,2.5,1,4.1c-0.5,3.6-0.9,7.1-1.3,10.7c-0.2,2-0.3,3.9-0.5,5.9c-0.1,0.9-0.3,1.7-0.4,2.6c-0.7,5.8-1.5,11.5-2.2,17.3
	c-0.4,3.8-0.8,7.5-1.3,11.2c-0.4,3.1-0.9,6.2-1.4,9.3c-0.1,1-0.4,2-1.4,2.7c-0.3,0.3-0.8,0.6-0.4,1.3c0.9,1.3,0.8,2.9,0.6,4.3
	c-0.3,2.4-0.6,4.9-1,7.3c-0.3,2-0.4,3.9-0.7,5.9c-0.3,2.4-0.7,4.8-0.8,7.3c-0.1,2.1-0.8,4.1-0.7,6.1c0.1,2.5-0.6,4.8-0.6,7.3
	c0,1.7-0.4,3.3-0.6,5c-0.1,0.5,0,1-0.1,1.5c-0.2,0.9-0.1,1.7-0.2,2.8c-0.2,1.9-0.7,3.7-0.6,5.6c0,1.7-0.6,2.7-2.3,3.5
	c-16.9,7.5-33.7,15.1-50.6,22.6c-14.5,6.5-29,13-43.5,19.5c-3.5,1.6-2.6,1.2-6.1,2.7c-0.7,0.3-5.9,2.9-6.8,2.3c-0.3-0.1,0,0-1.1,0.2
	c-2.7,2.8-6.3,3.8-9.7,5.3c-11.3,5.1-22.6,10.1-33.9,15.2c-2.1,0.9-4.1,2.2-6.2,3c-2,0.8-4.2,1.5-6.3,2c-0.8,0.2-1.8-0.1-2.6-0.3
	c-1.7-0.6-3.2-1.5-4.5-2.7c-11.1-11.1-22.2-22.1-33.3-33.2c-0.6-0.6-1.1-1.3-1.7-1.9c-0.5-0.5-1-1.1-1.5-1.4c-1.5-0.7-2.6-1.9-3.8-3
	c-7.4-7.2-14.7-14.4-22-21.6c-3.1-3.1-6.3-6-9.3-9.1c-1-1-1.7-2.4-2.6-3.6c-0.6-0.8-1.2-1.6-2.2-2.2c-1-0.6-2-1.6-2.9-2.4
	c-5.3-5.2-10.5-10.4-15.8-15.5c-2.2-2.2-4.5-4.3-6.6-6.5c-0.1-0.1-0.3-0.3-0.5-0.4c-1.3-1.5-2.3-2.9-2.4-5
	c-0.1-3.3-0.4-6.8-0.6-10.1c-0.3-5.6-0.6-11.1-0.9-16.7c-0.2-4.1-0.5-8.3-0.8-12.4C319.8,204.4,319.6,202.8,319.5,201.1z
	 M441.3,206.2c0,3.6-0.1,6,0,8.4c0,1,0.2,2,0.6,2.9c0.2,0.5,0.8,1,1.3,1.1c1.4,0.3,3.5,0.3,5.6-0.4c2.6-1,5.2-2,7.7-3
	c1.5-0.6,3-1.1,4.5-1.7c1.3-0.5,2.6-1.1,4-1.6c1.3-0.6,2.6-1,4-1.5c2.3-0.9,4.6-2,7-2.6c2-0.6,4-1.4,5.8-2c1.9-0.6,3.8-1.5,5.7-2.2
	c3.6-1.3,5.4-3.9,5.9-7.5c0.5-4.1,0.6-8.3,0.8-12.4c0.1-1.6,0-3.2,0.1-4.9c0.3-4.9,0.8-9.8,1.1-14.7c0.2-4.1,0.3-8.3,0.3-12.5
	c0-1-0.1-2-0.4-2.9c-0.4-1.7-1-2.1-2.7-2c-1,0-1.9,0.3-2.9,0.6c-1.2,0.3-2.4,0.8-3.6,1.1c-2.2,0.7-4.4,1.5-6.6,2.2
	c-1.8,0.6-3.6,1.4-5.4,2c-1.4,0.4-2.8,0.7-4.2,1.1c-2.8,1-5.5,2.2-8.4,3.1c-3.4,1-6.8,2.2-10.2,3.4c-0.8,0.3-1.7,0.7-2.6,0.9
	c-4.5,1.2-6.6,4.8-6.8,8.1c-0.1,2.1-0.3,4.3-0.3,6.3c-0.1,6.8-0.1,13.5-0.2,20.3c0,0.5,0,1,0,1.5
	C441.6,200.7,441.4,204.1,441.3,206.2z M504.2,182.3L504.2,182.3c0.1,0.5,0,1,0,1.5c0.1,2.1-0.1,4.2,0.6,6.3c0.6,1.9,2.1,3,3.7,3.1
	c2.6,0.3,10-0.8,10.7-1c4.1-1.3,4.1-1.3,5.5-1.7c2.2-0.8,4.3-1.6,6.4-2.4c1-0.3,6.6-2.5,9.3-3.6c2.9-1.3,4.8-2.6,7.1-4
	c2.1-1.3,4.1-2.6,5.6-4.6c2.6-3.5,4.3-7.5,4.7-12c0.2-2.6,0.3-5.4,0.6-8c0.3-3.9,0.8-7.8,1.1-11.8c0.3-4,0.7-8,1-12
	c0.2-2.2,0.4-4.3-0.2-6.5c-0.2-0.6-0.5-0.9-1.1-1c-2.2-0.3-3.1,0.4-5.4,0.8c-1.3,0.3,0.7-0.1-2.3,0.6c-2.1,0.5-3.2,1.2-5.2,1.9
	c-2,0.7-4.1,1.2-6.1,1.9c-2.1,0.7-4,1.6-6.1,2.3c-2.9,1-5.8,1.8-8.6,2.8c-2.2,0.8-4.3,1.5-6.6,2.3c-2.6,0.9-5.3,1.5-7.7,2.7
	c-2.6,1.3-4.3,3.4-4.5,6.4c-0.3,4.2-0.7,8.4-1,12.6C505.2,166.8,504.7,174.6,504.2,182.3z M440.9,275.3c0,2.9,0,5.1,0,7.2
	c0,1-0.1,2.1,0.1,3.1c0.1,1.3,1,2.4,2,2.4c0.9,0.1,1.9,0.1,2.7-0.2c1.7-0.5,3.2-1.3,4.8-1.9c1.5-0.6,2.9-1.5,4.5-2
	c2-0.6,3.9-1.6,5.9-2.4c1.7-0.7,3.3-1.4,5-2.1c2-0.8,3.8-1.5,5.8-2.4c1.3-0.6,0,0,3.7-1.6c2.4-1,4.6-1.9,6.8-2.9
	c2.2-1.1,4-3.2,5.4-5.3c1.4-2.2,2.5-4.5,3-7.1c0.6-3.1,1.2-6.3,1.7-9.5c0.3-1.8,0.3-3.6,0.5-5.4c0.1-1.3,0.1-2.6,0.3-4
	c0.1-2,0.4-3.9,0.6-5.9c0.3-4.6-0.1-9.1-0.9-13.7c-0.4-2.4-1.5-4.5-4.2-5.3c-1.7-0.5-3.6-0.6-5.4,0.1c-2.8,1-5.5,2-8.2,3.1
	c-5.7,2.1-11.4,4.2-17.2,6.3c-3,1.1-5.9,2.4-9,3.5c-1.1,0.3-2,0.8-2.9,1.5c-1.7,1.3-3,2.8-3.3,5c-0.3,1.7-0.4,3.5-0.4,5.2
	c-0.1,4.3-0.1,8.6-0.2,12.9C441.4,261.3,441.1,268.7,440.9,275.3z M566.1,167.7L566.1,167.7c0.1,0.8,0,1.7,0.1,2.5
	c0.1,0.8,0.9,1.9,1.6,2c1,0.1,2.2,0.1,3.1-0.1c2.1-0.6,4.1-1.5,6.1-2.2c1.5-0.6,2.9-1.3,4.5-1.7c2.7-0.6,5.2-1.9,7.9-2.6
	c1-0.3,2-0.8,2.9-1c1-0.1,2.1-0.6,3.1-1c2.1-0.8,4.2-1.5,6.2-2.2c1.9-0.7,3.8-1.3,5.5-2.4c0.8-0.6,1.7-1,2.3-1.7
	c1.5-1.9,2.3-4.1,2.6-6.6c0.7-5.6,1.5-11.3,2.2-16.9c0.4-3.3,0.8-6.7,1.3-10c0.3-2.2,0.7-4.5,1-6.7c0.3-2.9,0.6-5.9,0.9-8.8
	c0.2-2-1.3-3.4-3.5-2.9c-1.6,0.4-3.3,0.8-4.9,1.2c-1.3,0.3-2.6,0.9-4,1.3c-1.6,0.6-3.2,1.2-4.9,1.7c-2.2,0.6-4.5,1-6.6,1.9
	c-3.1,1.2-6.2,2.2-9.3,3.3c-2.8,0.9-5.6,1.7-8.4,2.6c-0.7,0.2-1.5,0.6-2,1.1c-1.6,1.5-2.8,3.3-3.1,5.6c-0.2,2-0.6,3.9-0.8,5.9
	c-0.3,2.4-0.3,4.8-0.6,7.2c-0.3,3.1-0.8,6.3-1.1,9.4c-0.2,1.9-0.3,3.8-0.6,5.6C567.2,157.2,566.6,162.4,566.1,167.7z M440.6,333.3
	c0,4.6,0,7.7,0,10.9c0,2.5,2,4,4.5,2.7c1.4-0.7,2.9-1.4,4.3-2c3.6-1.5,7-3.2,10.6-4.7c2.4-1,4.7-2.4,7.1-3.3c2.5-1,4.7-2.4,7.3-3.3
	c3.1-1,6.1-2.5,9.1-4c1.4-0.8,2.8-1.8,3.7-3.1c1.2-1.5,1.7-3.5,1.8-5.5c0.1-3.8,0.3-7.5,0.4-11.2c0.1-3,0.3-6,0.5-9.1
	c0.3-5.2,0.6-10.4,0.8-15.6c0.1-1-0.1-2-0.3-2.9c-0.1-0.8-0.6-1.5-1.5-1.6c-0.9-0.1-1.9-0.2-2.7,0.1c-2.5,0.8-5,1.8-7.5,2.9
	c-6.2,2.6-12.3,5.3-18.5,7.9c-4.5,1.9-9,3.8-13.5,5.6c-3.8,1.6-5.4,4.7-5.5,8.6c-0.1,2.6-0.1,5.2-0.1,7.8
	C440.8,320.6,440.7,327.6,440.6,333.3z M561.1,224.7c0.1,1.7,0.1,4,0.3,6.2c0.1,0.8,0.3,1.5,0.5,2.2c0.7,2,2.4,3.1,4.5,3.4
	c2.2,0.3,4.1-0.7,6-1.4c1.7-0.6,3.5-1.4,5.2-2.1c1.9-0.7,3.8-1.3,5.6-2c2.5-1,5.1-2,7.6-3.1c2.8-1.1,5.6-2.4,8.4-3.3
	c3.1-1,4.5-3.6,5.1-6.4c0.8-4,1.2-8.1,1.7-12.1c0.7-5.6,1.3-11.2,1.9-16.8c0.6-4.4,1.2-8.8,1.8-13.2c0.1-1.3,0.3-2.6,0.2-4
	c0-1-0.5-2.2-1.5-2.5c-0.8-0.2-1.8-0.1-2.6,0.2c-2,0.6-3.8,1.5-5.8,2.2c-2.8,1-5.6,1.9-8.5,2.9c-1.8,0.6-4.1,1.1-5.9,1.7
	c-3,1-5.3,2-8.2,3c-0.8,0.3-1.6,0.8-2.3,1.2c-4.3,2.4-7.3,5.8-9.1,10.3c-1.3,3.4-2,7-2.6,10.6c-0.3,2-0.6,3.9-0.8,5.9
	c-0.1,2-0.2,3.5-0.6,5.9c0,0.1-0.1,0.4-0.1,0.4C561.9,213.8,561.3,220.7,561.1,224.7z M503.1,249.3c0.1,1.3-0.1,2.7,0.7,4.1
	c1.1,1.9,2.6,3.1,4.7,3.8c1.9,0.6,3.8,0.8,5.6,0.1c5-1.7,9.8-3.8,14.6-5.8c2.4-1,4.7-2.2,7.1-3.1c5.1-2,8.9-5.4,11.8-9.9
	c1.8-2.9,3.3-6.1,3.6-9.7c0.4-5.6,1-11.4,1.5-17c0.2-2.9,0.3-5.7,0.4-8.6c0-5.5-4-8.4-8.9-8c-0.7,0.1-1,0.3-2.2,0.6
	c-1.5,0.4-2.9,1-4.3,1.3c-0.3,0.3-1.3,0.3-3.8,1.5c-1.1,0.5-2.4,0.9-3.6,1.3c-2.4,0.9-4.3,1.8-7,2.6c-2,0.4-3.8,1.3-5.5,2.2
	c-3.1,1.4-5.9,3.4-7.9,6.2c-1,1.4-1.8,3-2.8,4.4c-1,1.5-1.3,3.1-1.9,4.7c-0.8,2.1-0.8,4.3-0.9,6.4c-0.1,2.8-0.3,5.6-0.4,8.4
	C503.6,239.6,503.4,244.4,503.1,249.3z M535.8,259.4c-2.3,0.8-4.7,1.6-6.9,2.6c-1.7,0.6-4.9,2.2-10,4.2c-3.1,1.8-6.2,3.6-9.3,5.4
	c-0.8,0.5-3.1,1.8-3.3,2.1c-1.4,1.4-2.6,2.8-3.8,4.4c-1.3,1.7-2.2,3.6-2.6,5.6c-0.9,4.9-1.3,9.8-1.3,14.9c0,0.3,0,0.7,0,1
	c-0.2,5.1-0.3,10.1-0.6,15.2H498c0,1.3,0,2.6,0,4c-0.1,2.4,1.8,3.8,4,2.9c2-0.8,4.1-1.7,6.1-2.6c2.6-1.3,5.3-2.5,8-3.7
	c4.7-2,9.4-4.3,14-6.5c3-1.4,6.1-2.4,9.1-4c1.6-0.8,3.3-1.5,4.7-2.5c1-0.8,2.2-2,2.6-3.2c0.7-2.2,0.9-4.5,1.1-6.8
	c0.3-4.2,0.6-8.4,0.8-12.6c0.3-5.2,0.6-10.2,0.9-15.4c0.1-1.6-0.7-3-1-4.5v-0.1c-0.1-0.2-1.4-1.5-3.6-1.5c-1.5,0.2-3.1-0.1-4.6,0.3
	 M391.1,160.6c0,9.1-0.1,16,0,22.9c0.1,3.9,1.3,7.2,4.6,9.7c8.9,6.8,17.6,13.9,26.4,20.8c0.4,0.3,0.9,0.7,1.4,1
	c1.5,0.8,2.7,0.5,3.5-1c0.3-0.6,0.5-1.3,0.5-2c0.1-5.2,0.1-10.4,0.2-15.6c0.1-3.9,0.1-7.7,0.1-11.6c0-6.8,0.1-13.7,0.1-20.5
	c0-2.5-1-4.8-2.9-6.3c-2.9-2.4-6.1-4.5-9.2-6.7c-4-2.8-8.1-5.6-12.1-8.4c-2.9-2-5.8-4.2-8.8-6.1c-1.9-1.3-3.7-0.3-4,1.9
	c-0.1,1.3-0.3,2.5-0.3,3.8C390.9,149.2,391,156,391.1,160.6z M426.6,257.2c0-7.9-0.1-16,0-23.9c0.1-3.4-1.3-5.9-4-7.9
	c-3.8-2.9-7.4-5.9-11.1-8.9c-3.6-2.9-7-5.8-10.7-8.6c-1-0.8-2-1.5-3.1-2.1c-1.4-0.8-2.6-0.7-3.9,0.3c-1.1,0.8-1.7,2.1-2,3.4
	c-0.4,2.6-0.8,5.3-0.8,7.9c-0.1,8.8-0.5,17.6,0.3,26.4c0.1,1.8,0.4,3.6,0.6,5.4c0.3,2.9,1.5,5.6,2.7,8.4c1,2.1,2.3,3.8,4,5.4
	c7,6.4,14.1,12.8,21.2,19.2c0.8,0.8,1.7,1.5,2.6,2.2c1.5,1.1,3.3,0.3,3.6-1.5c0.1-0.4,0-0.8,0.1-1.3
	C426.2,273.4,426.6,257.2,426.6,257.2z M437.3,147.2c0.6-0.1,1.1-0.1,1.7-0.3c4.7-0.8,9.1-2.5,13.7-3.9c5.6-1.7,11.2-3.6,16.7-5.4
	c5.1-1.7,10.2-3.2,15.3-4.9c0.8-0.3,1.5-0.7,2.2-1.2c0.9-0.7,0.9-1.8,0.1-2.5c-0.7-0.6-1.6-1.1-2.4-1.7c-4.5-2.7-9-5.4-13.5-8.1
	c-5-3.1-10-6.2-15.1-9.2c-1-0.6-2.3-1-3.5-1.4c-2.8-0.8-5.6-0.4-8.3,0.3c-3.6,1-7.1,2.1-10.6,3.1c-5.7,1.7-11.5,3.4-17.2,5.2
	c-3.8,1.1-7.5,2.2-11.2,3.3c-1,0.3-2.2,0.6-3.1,1.3c-1.7,1.1-1.7,2.1-0.1,3.3c0.3,0.3,0.7,0.5,1,0.8c8.9,6.1,17.8,12.1,26.6,18.3
	C432,145.9,434.4,147.2,437.3,147.2z M556.1,291.2c0,0.1,0,0.6,0,1c0.1,2.1,1,2.9,3.1,2.7c0.8-0.1,1.7-0.3,2.4-0.6
	c2.1-0.8,4.1-1.8,6.2-2.7c2.6-1.1,5.2-2.2,7.8-3.3c3.5-1.5,6.9-3,10.4-4.5c2-0.8,4-1.6,5.9-2.5c1.3-0.6,2.9-1.1,3.9-2.1
	c1.3-1.4,2.4-3.1,2.6-5.2c0.3-1.9,0.6-3.8,0.8-5.6c0.8-7.8,1.3-15.7,2.6-23.4c0.5-2.8,0.5-5.6,0.7-8.4c0.1-0.6,0-1.1-0.1-1.7
	c-0.3-1-1.5-1.7-2.2-1.5c-3.1,1.1-6.1,2.2-9.2,3.4c-2.5,1-5,2.1-7.5,3.1c-3.1,1.3-6.2,2.4-9.2,3.6c-3.1,1.3-6.2,2.6-9.3,4
	c-2.9,1.3-5,3.5-5.4,6.8c-0.4,3.5-0.8,7-1.2,10.5c-0.6,6.1-1,12.2-1.5,18.3C556.5,285.7,556.3,288.2,556.1,291.2z M512.4,89.7
	c-1.2,0.1-3.3,0.2-5.4,0.7c-5.7,1.4-11.4,3-17.2,4.3c-5.8,1.4-11.6,2.9-17,5.5c-1.7,0.8-3.6,1.7-5.1,2.9c-1.6,1.3-1.3,2.4,0.3,3.5
	c2.6,1.6,5.1,3.2,7.7,4.8c7.5,4.7,14.9,9.3,22.4,14c1.3,0.8,2.4,0.7,4,0.3c3.1-0.6,13-4.3,18.6-6c7-2.2,14-4.5,21-6.8
	c3.4-1.1,6.8-2.2,10.2-3.3c0.9-0.3,1.8-0.8,1.8-1.8c0-1-0.9-1.5-1.7-1.9c-3.6-1.8-7.3-3.6-10.9-5.4c-5.4-2.8-10-5.4-16-8.5
	c-0.1-0.1-0.3-0.2-0.6-0.3C521,90.4,517.3,89.7,512.4,89.7z M384.2,156.4c0-1.3,0.1-2.9,0-4.4c-0.2-5.4-0.6-10.7-0.7-16
	c-0.1-2.2-0.6-4.3-1.7-6.2c-0.3-0.6-0.8-1.2-1.4-1.5c-2.9-2-5.7-4-8.6-6.1c-6.5-4.5-13-9-19.5-13.5c-1-0.8-2-0.9-3.1-0.3
	c-1.1,0.5-1.2,1.5-1.2,2.5c0.1,1.9,0.2,3.8,0.3,5.7c0.2,5.1,0.3,10.1,0.6,15.2c0.2,5.4,0.5,10.9,0.8,16.2c0.1,2.1,0.6,4.2,1.2,6.2
	c1,3.8,3.3,6.8,5.8,9.7c4.1,4.6,9,8.2,13.9,11.9c2.5,1.9,5.2,3.5,8.2,4.6c1.7,0.7,3.2,0.3,4.3-1.3c0.6-0.8,1-1.9,1.2-2.9
	c0.3-2,0.5-4,0.4-6.1C384.5,165.4,384.3,161.1,384.2,156.4z M391.8,117.3c1.2-0.1,2.4-0.1,3.6-0.4c3.6-0.9,7.2-2,10.7-3
	c4.5-1.3,9.1-2.5,13.6-3.8c3.8-1,7.6-2,11.3-3.3c1.7-0.6,3.5-1,4.8-2.4c1.5-1.5,1.5-3.5,0-4.9c-2-1.7-3.9-3.4-6-5
	c-4.6-3.2-9.4-6.1-14.4-8.5c-2.7-1.3-5.4-2.5-8.4-3.1c-2.9-0.6-5.9-0.8-8.8-0.5c-2.8,0.3-5.5,1-8.2,1.7c-0.8,0.2-1.6,0.6-2.4,0.8
	c-3.8,1-7.6,2-11.4,3c-3.8,1-7.6,2-11.4,3c-2,0.6-4,1-6,1.8c-2.1,0.8-2.2,2.4-0.3,3.7c8.9,6.2,17.9,12.4,26.8,18.7
	C387.1,116.6,389.2,117.5,391.8,117.3z M426.7,320.9L426.7,320.9c0-2.1,0-4.3,0-6.3c0-4.7-0.1-9.3,0-13.9c0.1-2.2-0.8-4-2.2-5.5
	c-1.3-1.5-2.7-2.9-4.2-4.2c-3.8-3.4-7.5-6.8-11.2-10.2c-4.3-3.9-8.7-7.7-13.1-11.6c-0.3-0.3-0.7-0.5-1-0.6c-1.5-0.3-2.4,0.3-2.6,2
	c-0.2,2.2-0.1,4.5-0.1,6.8c0.1,8.1,0.3,16.2,0.4,24.3c0.1,3.2,0.1,6.5,0.1,9.8c0.1,1.7,0.8,3.2,2,4.5c9.1,9.1,18.3,18.2,27.4,27.3
	c0.4,0.4,0.9,0.9,1.4,1.3c0.6,0.5,1.3,0.5,1.9-0.1c1-0.8,1.3-1.7,1.3-3C426.7,334.5,426.7,327.7,426.7,320.9z M566.2,104.4
	c0.9,0,1.9,0.1,2.7-0.1c1.7-0.4,3.5-1,5.2-1.6c6.5-2,13-4,19.5-6.1c4.4-1.4,8.8-2.9,13.2-4.3c0.8-0.3,1.6-0.6,2.4-0.9
	c1.3-0.8,1.3-1.7,0.1-2.6c-0.3-0.2-0.7-0.4-1.1-0.6c-5.5-2.6-11-5.2-16.5-7.8c-5.5-2.6-11.1-5.2-16.6-7.7c-2.9-1.3-5.7-1.8-8.8-0.9
	c-3.3,1-6.7,2-10,2.9c-4,1.2-8,2.4-12.1,3.6c-4.5,1.3-9,2.6-13.5,4c-1,0.3-1.9,0.5-2.8,0.9c-1.6,0.8-1.7,2.2-0.3,3.3
	c0.6,0.3,1.1,0.6,1.7,0.9c5.2,2.6,10.5,5.2,15.8,7.9c5.2,2.6,10.2,5.2,15.3,7.8C562.2,104.2,564.1,104.6,566.2,104.4z M386.8,282.4
	c-0.1-4.8-0.2-9.6-0.4-14.4c-0.1-1-0.2-2.2-0.7-3.1c-1.2-2.4-2.4-5-4-7.1c-1.8-2.5-3.8-4.9-6-7c-3.1-3.1-6.3-5.9-9.6-8.7
	c-2.4-2-5-3.6-7.6-5.2c-1.7-1.1-3.3-0.6-4.5,1.1c-0.6,1-1,2-0.9,3.2c0.1,3.3,0.5,6.8,0.3,10.1c-0.1,5.3,0.6,10.5,0.3,15.8
	c-0.2,2.4,0.1,4.8,0.3,7.2c0.2,2.4,1,4.7,2.8,6.4c5.4,5.2,10.7,10.5,16.1,15.7c2.6,2.5,5.2,5,7.9,7.5c0.8,0.8,1.8,1.5,2.7,2.3
	c0.8,0.7,1.9,0.7,2.8,0.4c0.9-0.3,0.5-1.3,0.6-2c0.1-0.4,0-0.8,0-1.3c0-4.6,0-9.1,0-13.7 M384.4,216.6c-0.1-8.6-1.5-14.5-4.5-20.1
	c-1.4-2.6-3.1-5.2-5.5-7c-4.7-3.6-9.2-7.3-13.8-10.9c-0.9-0.7-2-1.3-3.1-1.8c-0.8-0.3-1.5-0.3-2.4,0.1c-2.1,1-2.5,2.9-3,4.7
	c-0.5,2-0.1,4,0,6.1c0.1,3.9,0.2,7.7,0.4,11.6c0.2,3.9,0.6,7.8,0.8,11.8c0.4,5.6,2.6,10.5,5.6,15.2c1.4,2.1,3.3,3.6,5.1,5.3
	c3.8,3.3,7.7,6.7,11.5,10c0.9,0.8,2,1.3,2.9,2c1.9,1.3,3.6,0.2,4.7-1.3c0.4-0.6,0.7-1.3,0.9-1.9c0.9-2.6,0.9-5.2,0.8-7.9
	C384.8,226.5,384.5,220.4,384.4,216.6z M344.5,149.8c-0.1-2-0.3-4-0.4-6.1c-0.2-3.6-0.3-7.3-0.6-10.9c-0.5-7.9-1-15.9-1.6-23.8
	c-0.3-3.5-1.3-6.5-4.6-8.5c-4.3-2.7-8.3-5.7-12.5-8.6c-3-2.1-6-4.1-9-6.1c-1.6-1-2.6-0.8-3.2,1c-0.1,0.5-0.3,1-0.3,1.5
	c0,1,0,2,0.1,2.9c0.5,5.6,1,11.2,1.5,16.8c0.6,6.8,1,13.5,1.4,20.2c0.1,1,0.1,2.1,0.4,3.1c0.6,2.3,1.5,4.3,3.5,5.9
	c7,5.3,14,10.7,21,16c0.6,0.4,1.2,0.8,1.8,1c1,0.4,1.7,0.1,2-0.9C344.4,152.2,344.6,149.8,344.5,149.8z M457,96
	c5,0.2,10-1.2,15.1-2.6c4.1-1.2,8.2-2.4,12.3-3.8c2.8-0.9,5.6-1.8,8.3-2.9c1-0.4,1.9-1.3,2.6-2.1c1.3-1.5,1-3.4-0.6-4.7
	c-0.9-0.8-1.9-1.5-2.9-2c-4-2.2-8.2-4.4-12.3-6.6c-1-0.6-2.2-1.1-3.2-1.6c-3.5-1.8-7.3-2.7-11.2-2.7c-2.6,0-5.4-0.3-8,0.1
	c-3.5,0.6-6.8,1.5-10.2,2.5c-5.1,1.5-10.1,3.1-15.1,4.5c-2,0.6-4,1.4-5.7,2.6c-1,0.7-1.5,1.6-1.5,2.9c0,0.9,0.1,1.7,0.8,2.3
	c1,0.9,1.9,1.9,3,2.6c4.7,2.9,9.4,5.6,14.1,8.4C446.8,95.3,451.5,96.1,457,96z M517.4,78.3c1.4-0.1,2.9,0,4.2-0.3
	c3.3-0.8,6.7-1.6,10-2.6c8.1-2.4,16.2-5,24.3-7.5c0.8-0.3,1.5-0.8,2.2-1.3c0.6-0.4,0.6-1,0-1.4c-0.8-0.5-1.5-1-2.4-1.4
	c-6.1-2.9-12.2-5.7-18.3-8.5c-4.5-2.1-8.9-4.1-13.3-6.2c-2.8-1.3-5.8-1.5-8.6-0.7c-6.5,1.7-12.9,3.7-19.4,5.6
	c-2.6,0.8-5.3,1.4-7.9,2.2c-2,0.6-4,1.3-5.9,2.3c-2.2,1.3-2.2,3.1-0.3,4.8c1,0.8,2.1,1.7,3.2,2.4c6.2,3.9,12.7,7.1,19.5,9.8
	C508.8,77.2,513,78.6,517.4,78.3z M349.6,89.7c3.4,0.1,6.3-0.9,9.2-1.7c2.5-0.6,5-1.4,7.5-2.1c4.8-1.3,9.6-2.6,14.4-3.9
	c4.5-1.2,8.9-2.3,13.4-3.5c0.9-0.3,1.9-0.6,2.8-1c1.3-0.5,1.3-1,0.3-1.7c-1.5-1.1-3.1-2.2-4.7-3.1c-6.3-4-12.6-7.8-18.8-12
	c-3.4-2.3-7-2.5-10.7-1.7c-5.4,1.2-10.8,2.9-16.2,4.3c-5.3,1.4-10.6,2.6-15.8,4c-2.5,0.6-5,1.4-7.5,2.2c-0.9,0.3-2,0.6-2.2,1.7
	c-0.1,1,0.9,1.5,1.6,2c7.1,5,14.2,9.8,21.3,14.8C346,89.2,347.8,89.9,349.6,89.7z M346.2,199.1c0.1,0-0.1-9.5-0.4-14.2
	c-0.3-3.8-1-7.7-1.5-11.5c-0.4-3-1.5-5.7-2.8-8.4c-0.8-1.8-2.2-3.3-3.8-4.5c-1.7-1.4-3.6-2.7-5.3-4.1c-4.2-3.3-8.4-6.6-12.6-9.9
	c-0.8-0.6-1.5-1.5-2.6-0.9c-1,0.5-0.9,1.7-1,2.6c0,0.1,0,0.1,0,0.2c0.1,2.4,0.3,5,0.5,7.4c0.5,6.9,1,13.8,1.5,20.6
	c0.3,4.9,0.6,9.7,0.9,14.6c0.1,2.2,1,3.8,2.6,5.3c3.8,3.3,7.5,6.8,11.3,10.2c2.6,2.4,5.2,4.7,7.9,7c1.7,1.5,3.9,1,4.8-1.1
	c0.3-0.8,0.4-1.6,0.4-2.4C346.2,206.4,346.2,202.7,346.2,199.1z M411.2,71.5c4.4,0.2,8.9-1.1,13.4-2c5.6-1.2,11-2.8,16.4-4.5
	c1.9-0.6,3.7-1.4,5.5-2c1-0.4,2.2-0.6,3.1-1.1c1.4-0.6,2.9-1.1,4.2-2c1.5-1,1.6-2.5,0.3-3.7c-1-1-2.2-1.7-3.4-2.4
	c-6.1-3.3-12.2-6.7-18.3-10c-1.7-0.9-3.5-1.5-5.4-1.3c-2,0.2-3.9,0.6-5.8,1c-7.7,2-15.3,4.1-22.9,6.2c-5.2,1.4-10.4,2.9-15.6,4.3
	c-0.9,0.3-2,0.5-2.2,1.7c-0.1,1.1,0.9,1.5,1.7,2c6.2,3.8,12.5,7.6,18.7,11.4C403.9,70.9,407.3,71.6,411.2,71.5z M348.7,233
	c-0.1-2.8-1-5.2-3.1-7.1c-1-0.9-2-2-3.1-2.9c-5.6-4.9-11.2-9.8-16.8-14.7c-0.7-0.6-1.4-1.2-2.2-1.7c-1.2-0.8-2.2-0.2-2.4,1.2
	c-0.1,0.5,0,1,0,1.5c0.1,1.9,0.2,3.8,0.3,5.7c0.6,9.7,1.2,19.5,1.7,29.1c0.1,2.6,1,4.7,2.9,6.5c6.8,6.6,13.5,13.2,20.4,19.7
	c0.3,0.3,0.5,0.5,0.8,0.8c0.6,0.6,1.4,1,2.3,0.6c0.9-0.4,0.8-1.2,0.8-2c0-1.9,0-3.8,0-5.7c0,0-0.3-8.3-0.6-12.5
	c-0.1-3-0.5-6.1-0.7-9.1 M468.5,55.9c1.1-0.1,2.2-0.2,3.3-0.5c2.2-0.6,4.5-1.1,6.7-1.8c5-1.5,10.1-2.9,15.1-4.4
	c4.6-1.4,9.3-2.8,13.9-4.2c0.6-0.2,1.2-0.4,1.7-0.8c0.9-0.6,0.8-1.4,0-2c-0.7-0.5-1.5-0.9-2.2-1.3c-3.4-1.6-6.9-3.2-10.3-4.8
	c-4.8-2.2-9.6-4.5-14.4-6.8c-2.4-1.1-4.8-1.5-7.4-0.8c-6.1,1.7-12.1,3.4-18.2,5.1c-3.7,1-7.4,2-11.1,3.1c-2.1,0.6-4.2,1.1-6.3,1.7
	c-0.8,0.2-1.7,0.6-1.8,1.5c-0.1,1,0.8,1.4,1.5,1.9c0.1,0.1,0.3,0.2,0.6,0.3c7.7,4,15.5,8.1,23.3,12.2
	C464.6,55.4,466.4,56,468.5,55.9z"/>
</svg>
